<?xml version="1.0" encoding="utf-8"?>
<!DOCTYPE svg PUBLIC "-//W3C//DTD SVG 1.1//EN" "http://www.w3.org/Graphics/SVG/1.1/DTD/svg11.dtd">
<svg version="1.1" id="bergamot-just-browse" xmlns="http://www.w3.org/2000/svg" width="1000" height="1000" viewBox="0 0 1000 1000">
<style type="text/css">
<![CDATA[
	.st0{fill:#965A5A;}
	.st1{fill:#FFFFFF;}
	.st2{fill:#D1D3D4;}
	.st3{fill:#A7A9AC;}
]]>
</style>
<g>
	<path d="M645.3,126c14.7,11.6,77.3-44.8,84.6-59.8c7.5-15.6,28.1-45.1,43.8-28c19.7,21.4,40.3,44.6,56.5,68.8
		c47.7,70.9,96.8,128.7,130.9,207.3c10.5,24.4,41.3,87.2,36.6,120c-3.6,25.6-17.8,73.3-28.7,98.3c-17.1,38.8-37.6,92.7-39,138.5
		c-0.5,17.6-5.4,46.5-8.2,63.4c-1,5.7-6,25-7.1,30.6c-3.3,17.1-1.9,33.7-17.2,40c-14.7,6.1-10.9,53.4-23.1,67.7
		c-28.7,33.7-76.1,66.6-116.3,83c-34.9,14.3-67.2,15.2-101,24c-18.8,4.9-55.7,20.9-75.6,13c-5.6-2.2-34.1,4.3-42.9,5.1
		c-17.8,1.6-43.3-6.9-59.5-1.5c-22.3,7.3-87.7,3.5-107.6-4.7c-36.4-15.1-81.3-7.2-118-22c-33.4-13.6-78-17.3-109.2-37.7
		c-17.5-11.4-34.1-18.2-53.8-27.2c-15.9-7.3-29.2-25.4-44.7-32.1c-23.7-10.2-54.8-85.3-46.1-112c8.9-27.3,1.7-62.6,14.8-90
		c12-25.2,20.4-93.1,49.4-105.8c5.3-2.3,19.7-34.3,25.8-37.7c3.7-2.1,37.8-47.5,41.3-53.9c16.2-28.7,46.2-56,66.2-81.9
		c9.4-12.3,35.2-35.1,43.7-50.3c3.2-5.8,37.8-40.4,42.2-46.2c11.6-15.4,14.3-62.2,27.3-71.8c7.5-5.6,15.4-39.2,18-48.1
		c8.6-28.1,28.3-56.6,35.3-85c3.7-15.1,40.6-87,51.4-89.9c5.5,0.7,30.2,39.3,35.3,44.8c23.2,24.6,48.7,46.4,80.1,61.6
		c17.6,8.5,95.7,48.1,113.7,19.7C645.4,127.2,644.5,127.3,645.3,126z"/>
</g>
<path class="st2" d="M15.2,800.5c4.1,17.2,14.6,34.7,25.4,50.1c11.5,16.2,29.1,26.3,44.5,37.6c30.5,22.4,60.8,31,95.2,45.5
	c60.4,25.5,136.1,16.1,194,46.1c14.6,7.6,75.2,3.1,89.9,4.7c36.9,4,74.1,0.8,111.3-1.1c72.8-3.9,144.6-22.6,209.8-55
	c48-23.8,136.8-101,58.5-146.2c-48.6-28-136.1,38.3-185.8,48.2c-34.2,6.9-67.8,14.1-101.9,16.3c-12.7,15.4-82.7-1.8-103.1,5.2
	c-11.8-4-180.5-16-167.5-34.9c15.1,7.4,48.4,19.8,66.4,11.9c1.5-0.7,45.3,2.9,46.9,4.4c21.5,20.6,118.7,2.9,147.7,2.9
	c20.9-14.4,32.7-35.9,39.7-61.5c13.3-48.6,112.5-45.6,126.5,0.4c5.3,17.4,41.1,19.2,47.7,2.5c5.2-13.1,6.2-27.1,11-39
	c21.7-53.5,66.8-64.8,113.9-44.3c32.3,14.1,35-1.2,38.5-32.4c1.9-18,5.4-48,14-64.1c8.9-16.9,6.8-40.4,11.5-58.8
	c4.6-18.1,17.7-36.5,24.7-54c9-22.5,23.6-69.1,5.6-92c-4.9-6.3-13.2-43.2-16.3-51.7c-3.4-9.2-24.4-34.9-24-44
	c1.3-26.7-43.5-71.5-56.4-93.5c-18.8-31.7-37.4-65-60.9-93.1c-11.1-13.4-22.5-33.2-33.9-44.3c-21.4-20.9-23.3-10-44.1,0.8
	c-23.1,12-38.7,48.5-63.1,61.2C593.9,173.7,517.2,114,452.4,57c-7.1-6.3-28.7-40.2-36.5-38.8c-5.8,27.2-35.1,57.7-47.7,83.7
	c-22.7,47.1-32.6,99-55.4,145.5c-27.3,56-32.9,118.7-49.9,177.8c-6.8,23.9-5.4,48.6-9.6,72.5c-0.9,5.1-2.4,47.6-4,48.7
	c-3.7-34.6-2.9-64.5,0.2-100.9c1.2-18.2,2.2-37.8,6.3-55.6c0.9-3.8,4.4-19.3,5.2-20.7c-11.2-5.2-24.4-16.2-32.9,5.5
	c-29,28.4-60,85.3-96.4,113C118,501,97.7,524,88.2,546.6c-1.9,4.5-11,23.2-14.1,26.6c-14.4,16.4-25.7,44.2-33,66.3
	c-7.9,23.8-22.7,59.1-28,84.3C7.6,749.5,19.5,777.2,15.2,800.5C16.3,802,13.6,794,15.2,800.5z"/>
<path class="st3" d="M776.2,773.5c35.6,8.4,53.1-20.2,86,11.5c25,24.2,41.7-21.4,46.5-45.5c-1.9-3-1.9-5.9,0.1-8.9
	c-5.4-7.8-15.4-13.5-19.8-21.9c-15.3-12.1-39.9-19.9-58.4-12C801.3,709.1,775.4,740.2,776.2,773.5
	C779.7,774.3,776.1,767.3,776.2,773.5z"/>
<path class="st3" d="M696.6,766.8c-41.4-31.5-117.7-6.5-112.5,54.6c2.2,26.4,69.5-4.4,88.5-7.2c11.5-1.7,26-13.2,36.8-10.8
	C725.5,791.2,692.8,776.6,696.6,766.8C695.5,766,695.7,769.1,696.6,766.8z"/>
<path d="M795.2,201.4c12.9,28,22.3,38.8,8.4,72c-6.8,16.2-29.8,26.2-45.4,20.6c-12.8-4.5-23.3-7-39.8-10.7c-4.6-1-44-13.3-44.8-14.8
	c1-5.1,42.5-41,45.2-42.4c12.8-6.5,33.4-31.4,42.9-42.6c23.4-27.8,11.4-1.6,32.2,16.5C793.9,200,794.8,200.5,795.2,201.4z"/>
<path class="st1" d="M700.7,260.8c0,0,39,22.8,65.7,24.9c19.9,1.5,30.2-37.1,30.2-52.1c0-13.8-10.9-57.8-49-25.7
	c-10.3,19.6-47.3,52.7-47.3,52.7L700.7,260.8z"/>
<path d="M505.5,216.8c22.7,9.2,74.4,20.8,90.7,37.2c-5,16.7-13.1,47.9-24.5,59.3c-22.4,22-29.7,24.9-59.3,25.5
	c-22.6,0.5-51.9-41.5-44.3-65c6.6-20.5-10.4-55.6-2.6-73.5c5.3-2.2,27.4,9.6,35.9,14.2C502.4,215.1,504.4,216.4,505.5,216.8z"/>
<path class="st1" d="M485.9,225.2c0,0-1.3,0.1-4.4-0.4c-20.9,44,3.6,122.4,60.5,103.5c19.3-6.4,48-64.6,22.7-69.6
	c-21.1-4.1-56-12.7-69.9-28.5C471.1,274.5,485.9,225.2,485.9,225.2z"/>
<path d="M812,471.9c-1.7,5.1-69.8,10-76.5,9c-7.7,9.5-24,22.9-33.5,31.9c-11.9,11.3-36.8,3-47.5,15c-2.6,2.9-20.8,7-25.2,3.3
	c-14.5,10-34.6,9.9-47,21.1c-25-4.7-43.5,25-62.8,17.6c7.8-19.7,90.8-45.1,110.6-45.9c11.9-0.5,68.9-14.7,67.5-27.1
	c-3-26.9-3.1-50.6-17.1-74.3c-31.2-4.7-79.9-21.4-45.7-65c22.8-29,61-4.6,84.3,10.6c15.3,10,21.2,29.5,2.9,40.2
	c-20.2,11.8-27.6,25-19,51.6c5.8,17.7,72.6,17.6,88.1,3.6c12.3-1.4,114.5-6.4,97.3,16C871.9,463.6,829.4,480.2,812,471.9
	C811.5,473.4,811.6,471.7,812,471.9z"/>
<path class="st0" d="M663.2,411.6c13.6-1.2,93-12.1,39.3-37.7c-12.9-6.1-49.6-25.6-60.1-4.4c-16.6,32.9,7.9,40.6,19.5,42.1
	C662.1,411.7,662.8,411.6,663.2,411.6z"/>
<path d="M79.5,722.8c0,0-4.3,12-9.7,10.8c-28.9-6.2,55.9-170,80.7-180c11.2-1.7-6.3,23-7.4,25.1c-4.5,9.4-24.9,45-34.2,49.7
	C91.2,637.7,77.9,705.1,79.5,722.8C71.9,724.6,79.5,722.8,79.5,722.8z"/>
<path d="M164,603.2c-0.7-0.5,5.7,4.8,5.4,4.5c-8.8,28.7-38.6,72.3-54.3,95.6C107.3,689.2,149.6,597.1,164,603.2
	C164.6,603.6,161.2,602.1,164,603.2z"/>
<path d="M177.9,700.8c-29.7,0,1.3-67.3,12.2-62.6c10.3,12.1-13.2,38-15,51.2C174.8,692.3,177.5,696.8,177.9,700.8z"/>
<path d="M830.4,379.6c2.7-4.3,13.3-14.9,19.4-6.5c7.8,10.9-17.8,14.4-20.7,9.5C828.7,381.9,830,380.3,830.4,379.6z"/>
<path d="M811.6,413.3c-1.4,4.5-8.7,14.1-15.9,10.5c-15.8-7.9-5.8-16.1,8.1-14.1C811.5,410.8,812.2,411.3,811.6,413.3z"/>
<path d="M845.7,422.1c1.4-4.9,19.2-15.3,20.3-1.4c1,13.2-16.6,7-19.8,3.1C845.9,423.5,845.6,422.5,845.7,422.1z"/>
<path d="M562.6,439.3c0,0,14.8-28.6,16.4-3.2c0.3,5-13.9,8.7-16.8,5.4C561.9,441,562.6,439.3,562.6,439.3z"/>
<path d="M541,475.2c-4,0.5-14.8,6.9-15.5-4.3c-0.9-14.2,19.6-12.2,20.3-1.3C546.2,476.2,542.8,475,541,475.2z"/>
<path d="M602.5,473c6.2,2.7,9.7,8.5,1.5,13.8c-11.1,7.1-17.9-11.2-7.7-15.1C601.3,470.6,598.8,470.7,602.5,473z"/>
<path d="M519.5,264.9c6.7,13.4-4.2,33-19,18.9c-16.1-15.4-7.3-21,9.7-23.4C510.9,260.3,514.2,259.1,519.5,264.9z"/>
<path d="M754.6,240.3c14.2,6.4,8.6,16.4-8,19.9c-30.9,6.4-16.7-24.7,2.3-21.3C750.4,239.2,751.2,238.8,754.6,240.3z"/>
</svg>
