<?xml version="1.0" encoding="utf-8"?>
<!DOCTYPE svg PUBLIC "-//W3C//DTD SVG 1.1//EN" "http://www.w3.org/Graphics/SVG/1.1/DTD/svg11.dtd">
<svg version="1.1" id="Austria" xmlns="http://www.w3.org/2000/svg" width="500" height="360" viewBox="0 0 500 360">
<g>
	<path d="M420.5,199.9c-0.1-2.6-1.4-6.2,0.9-8.7c-1.4-2-2.8-7.5-3-9.9c-0.3-4.4,3.3-20-6-17.8
		c-6.7,1.5-11.2-1.8-15.5-6.3c-1.4-1.4-1.5-4.4-4.2-4.2c-1.9,0.2-2.6-2-2.1-3.4c-0.5-1.8-2.6-2.3-2.9-4c-4-1-4.4-4.2-8.6-4.8
		c-0.7,1.9,0.5,3.6-3,2.3c-5.9-2.2-0.8-2.1,0.4-3.9c0.1-2.2-17.7-2-18.4-6.2c-0.7-4.4-5.5-3.9-8.8-4.5c-4.5-0.9-8.7-5.6-12.8-5.6
		c-5.5,0-12,8.1-18.3,6.8c-3.5-0.7-7.6,1.9-11.3,1c-1.9-0.5-1.8-0.7-1.8-2.2c-1.9-0.9-4.3,0.4-6.1-1.1c-2.3-1.9-7.8,0.4-10.7-1.3
		c-2.5-1.5-5.7-0.1-8-0.4c-6.6-0.9-13,4.3-19.4,4.1c-5.8-0.2-12.2,3.7-14.1,9.1c-1,2.9-4.5,4.6-6.1,6.9c-1.3,1.9-5,8.6-8.1,8.2
		c-0.8-0.1-6.4,4.2-7.5,4.8c-3.7,2.1-2.5,5.4-5.4,8c-1.9,1.7-1.9,5.1-3.3,7.1c-0.9,1.3-1.4,2.2-2.2,3.7c-0.9,1.7-2.9,2.4-3.8,4.1
		c-2.8,5.6-8.5,9.9-13,13.7c-2,1.7-3.7,2.1-5.7,2.5c-2.1,2.3-4.8,4.8-7.3,6.9c-7.1,5.8-11.8,12.9-19.7,17.8
		c-5.7,3.5-10.8,7.7-15.9,11.4c-5.4,4-13.2,6.8-17.4,11.9c-3.9,4.6-12.1,7.1-15.2,12.6c-3.1,5.7-12,8.5-16.2,13.4
		c-0.7,0.1-5.2,3.5-5.7,4.3c-2,3.3-8.1,4.9-9.7,8c-1,1.9-8.5,6.2-11,7.6c-3.6,2.1-7.2,3.2-10.4,5.8c-1.4,1.2-12.1,5.3-13.2,4.6
		c-1.9-1.2-5.6,3-8.6,1.5c1.1-2.6,5.4-2.2,7.2-4.1c0.7-2.1-1.6-3.3,2.6-3.3c5,0,9.9-2.8,13.8-5.8c3.3-2.5,7.5-4.5,11.1-6.7
		c1.4-0.9,2.7-2.1,4.1-2.9c1.7-3.4,2.7-0.1,4.9-3c10-13.7,25.2-21.8,37.9-32.7c6.5-5.5,15.6-9.3,17.5-18.5c1-5.1,1.1-10.2,1.5-15.3
		c0.4-5.5,1.9-11.3,0.8-16.9c-0.4-2.2-1.5-4.3-1.9-6.6c-0.5-2.5,0.3-3.7,0.3-6.1c0-3.7,1.9-10.7,4.5-13.3c-2.6-6.3,8-3.6,9.9-0.3
		c1.1,1.9-0.4,4.1,2.8,4.8c4,0.8-1.9,3.5-1.2,4.3c2.8,1.3,9.9,1.5,13.2,0.9c1.5-0.3,8.3,0.7,8.3-0.7c-0.2-3.2-0.6-8,1.2-10.7
		c-0.1,0.2-2-3.5-2-3.3c-1.3-2.7-0.6-6.4-2.3-9.5c-0.5-0.9-1.2-5.2-0.3-6.1c1.1-1-0.8-5.7-1-7.1c-2.7,3.7-2.4,9.3-3.8,13.5
		c-1.4,4.4,0,10.5-0.3,14.8c-0.1,1.5,1.7,6.7-0.4,7.3c-3.6,1.1-3.5,0-4.1-3.3c-0.9-5.9-1.7-12.3-0.1-17.5c-4.6-1.9-3.6-0.3-1.1-3.8
		c1.3-1.9,0-4.4,1.9-7.6c1.5-2.5,2.3-6.1,3.4-8.7c1-2.3,2.9-7.4,5.4-7.3c3.8-1.4,5.9-0.4,9.9-1.1c5.2-0.9,10.1-2.5,15.5-2.2
		c1.3-2.7,0.2-7.1,0.7-10.2c1.1-2.9-2-10.3-0.1-13.1c-1.7-2.3-1.1-7.4-1.6-10.3c-0.4-3.1-0.8-6.4-0.8-9.6c0-3.6-0.6-6.9-0.5-10.7
		c0.1-4.2,1.9-8.1,2.1-12.2c0.4-7.5,5.6-14.7,6.1-22.1c0.2-3.5,1.2-7.8,2.1-11.5c1.2-4.6,1.3-9.5,2.9-13.9c1-2.7,1-7.4,4.6-9.1
		c1.2,0.1,4-3.2,5.1-1.5c1.3,2.2,1.1,4.6,0.3,7.1c-0.7,2-1.6,2.7-0.6,4.9c0.7,0.7,2.1-0.6,1.4,1.4c-2.8,2,0.1,5-1.6,6.4
		c-0.5,0.4,2.6,8.4,3,10.1c0.9,4.1,0.8,8.4,1.7,12.4c0.8,3.5,2.9,8.6,2.7,12c-0.3,4,3.2,8.1,3.1,12.2c-0.1,4.4,1.4,8.5,2.3,12.7
		c0.5,2-0.4,3.6-2.2,4.5c0,2,0.6,5.3-0.2,7.1c-0.6,1.4-0.3,9.1,0.4,10.7c0.6,1.4-0.9,2.4,0.1,3.6c0.7,0.7,3.4,0,3,1.6
		c-1.7,2.5-2.5,4.8-1.2,8.3c2.6,7.3-0.1,18.3,5.3,24.6c3.4-4.3,5.5-9,9.8-12.2c2.7-2,6.1-0.9,9.1-2.8c1.6-1-1.2-1.9-1.6-2.1
		c-2.3-1-0.6-4.3-0.4-5.8c0.3-2.2-1.6-10.5,1.8-10.5c2.5,0,0.2-2.5,1-3.7c1.4-2.1,3.5,0,5.2-0.1c2-0.2,2.3,1,4.5-0.1
		c1.2-1.7,1.8-2.7,3.3-4.1c4.7-4.4,7.4-9.6,11.5-14.7c-1-3.8,4.4-5.3,6.1-7.4c1.4-1.8,3.8-1.7,3.8-4c-0.1-2.7,4.6-1.4,5.8-1.4
		c4.9,0,9.2-1.1,14-1.9c4.6-0.7,11.5-3.7,16-1.1c2.6-3.6,3.3,1.8,6.4-2.8c1.9-2.8,1.8-2.6,2.1-5.5c0.1-0.8,2.1-6,2.8-6.4
		c2.2-1.3,2-8.2,5.2-8.6c3.9-0.5,6.2,5.1,5.9,8.4c1.7-0.8,6.3,6.6,7.7,8.6c0.8,0.5,1.6,1,2.3,1.6c-0.1,1.3,0.2,2.4,1.1,3.3
		c1.2,1.2,0.6,2.7,2.8,3.9c0.7,1.8,1.2,1,3.2,1.5c0.6,1.2,2.3,2.6,3.3,3.6c2.8,2.8,6.5,5.7,8.2,9c2.1,4.2-2.1,10.3-1.4,14.6
		c0.4,2.5,1,10.3,0,12.6c-1,2.3-0.1,5-0.6,7.5c-0.5,2.4,1,4.2,0.3,6.6c-0.6,2,1,4.6,2.6,5.9c-1,3.1,1.9,2.1,2.5,4.4
		c1.6-3.5,0.8-8.2,1-11.8c0.2-3.3,0.7-4-1.6-7c0.9-1.5,4.6-3.9,6-5.3c3.8-3.6,6.7-9,9.9-12.9c1.6-2,3.1,0.3,3.1,2.2
		c3.5-1.7,4.2,3.2,6.2,4.4c0.6,1.8,3.1,4,4.9,4c1.9,0,1.7,2.6,2.4,4c7.1,1,4.5,8.1,4.5,12.9c0,6.5,0,13.1,0.1,19.7
		c0,2.2,0.2,7,1.5,8.9c-0.1,0.6,0,4.9,0.1,5.2c1.1,1.5,3.6,1.1,2.9,4.6c-0.9,4.7-0.6,10.9,2.8,14.6c0.6,0.7,1.5,3.3,1.2,4.2
		c0.1,1.6,1.5,3.4,1.7,5.8c0.2,2.2,4.4,6,3.6,8.1c-0.6,1.4,1.8,7.2,2.1,9.2c0.3,1.8,1.6,6.2,2.5,7.6c1.3,1.8,0.7,4.2,2.1,6.3
		c2.3,3.6,0.8,7.7,2.8,11.5c1.7,3.2,4.6,9.2,4.1,13.1c1.2,1.9,4.7,3.4,6.1,5.6c1.2,1.9,6.5,3.8,7.1,6.2c0.3,1.2,3.2,3.1,3.8,4.2
		c1.4,2.8,6.5,7,9.3,8.4c3.2,1.5,9.2,2.4,2.7,6c-3.8-1.7-6.7-2.3-9.9-5.2c-0.7,0.9-0.2,3.1-1.3,4.6c-1.7,2.3-4-0.9-6.5,0.9
		c-2.8,2.1-3.9-1.4-5.9,1.2c-0.1,2.2-1.6,3,0.8,4.3c2.1,1.1,2.6,6.4-0.1,6.5c-2.6-2-3.4,0.1-6-0.3c-0.9,0-1.4,0.4-1.6,1.3
		c-0.3,0.3-0.6,0.6-0.8,0.9c-2.1-1.4-3.2-1-3.3,1.2c-1.1,1.3-6.9,2.1-5.7,4c2.2,3.7,1.6-0.8,3.5-0.7c5.4,0.2,9.5,5.8,1.3,5.8
		c-2.8-1.8-4.3-1.8-6,0.9c-2.1,3.4-6.1-0.9-2-2.5c1.5-2.2-6.5,0.6-7.9-1.5c-1.9,1.5,0.7,3.7-1.4,4.7c-1.2,0.6-3.7,1.4-4.8,0.4
		c-1.4-1.2-1.6-3.9-2.4-5.4c0-4.5-2.7-0.6-5.1,0.3c-1.2,0.5-2.4,4.2-4.1,5.2c-3.2,1.9-2,1.2-2,3.9c0,3.9-10.3-5.8-5.8,4.1
		c-1.6,1.1-2.7,1.4-0.8,2.9c-0.3,1.8,2.5,2.5-1.1,3.1c-2.8,0.5-4.4-1.4-4.1-3.8c-2.4-0.1-1.5,1-2.2,2.5c-3.7,1.4-4-1.4-6.3-1.3
		c-2.5,0.1-2.2,1-4.2-0.6c-1.1-0.4-2.2,4.1-3.8,4.4c-2.6,0.6-5-0.8-3.9-3.3c3.1-0.4,6-2.1,8.9-2.9c3.3-1,6.2,3.1,6.4-1.4
		c1.2-1.2,3.3,0,4.5,0.3c1.3-1.5-1.3-4.9-2.5-5.6c-4.2,1.2-7.2,5.1-11.3,6c-2.5,0.5-5.9,2.1-8.2,0.1c-3.1,1.1-1.2,8.2,0.1,10.3
		c1.9-1.2,12.6,0.7,8.5,3.1c-2.4,1.4-3.4,3.2-5.9,0.7c-2.3-0.8-2.6,0.4-4.9-1.3c-1.2-0.9-8.4-2-6.4-5.5c0.5-0.8,1.7-5.2,0.2-5.5
		c-2-0.4-4-3.2-5.5-3.1c-4,0.4-3.3-0.6-7-2.5c-1.7-0.8-9.7-7.3-9.4-7.6c-2.6,2.2-11-3.2-11.7-2.2c-1.1,1.5-0.2,2.3,1.5,2.4
		c1.4,3.1-4.2,2.4-5,1.3c0.5-1.7,2.6-2.3-0.7-3c-1.3-3.3,1.5-2,2.5-3.5c-1.3-3.1-0.6-5.6-4.8-5.5c-1.3,0-8.3-1.9-5.9,1.8
		c4.8-2.6,3.8,4.5-0.1,1.2c-1.7,1.2,2.4,1.9,2.3,3.8c-1.6,2.7-3.6-1.8-2.6,3.4c-0.1-0.3,1,3.7,1.4,4c0.8,0.8,3.1,3.6,2.7,4.9
		c-0.5,1.9-4.9,4.3-6.7,3.1c-2.2-1.6-0.1-1.8-2.1-3.8c-1.4-1.4,6-5.1-0.5-6.8c-6.2-1.6-1.9-5.4-4-8.5c-1-1.4,1.2-1.6-0.7-3
		c-1.1-0.3-5.3,0-6-0.7c-2.1-2.1-5-3.3-7.1-5.7c-0.6-1.9-2.2-2.7-1.7-4.9c0.5-2.2-0.6-3.5-2.7-4.4c-0.6-3.5-1.2-6.7-2-10.1
		c-1-4.2-3.7-1.4-7-3c-2.3-1.1-6.3-2.8-6.5-6c-0.3-4-3.7-3.9-3.9-7.1c-0.4-5.4,1.3-1.7,3.5-5c0.5-2.2-3-0.5,0-3.3
		c3-2.7,0-1.1,0.1-4.2c-1.3,0.7-6.7,6.3-6.2,7c-2.3,0.7-3.7,2.5-5.4,4c0.3,2.6,3.3-0.3,4.1,2.7c-1.1,1.5-4.7-0.1-3.6,2.5
		c1.6,0.7,2.7,1.9,4.3,0.8c1.3-0.9,3.2-0.2,2.9,1.7c-2.2,0.8-4.6,1-7,0.7c-4.1,1.7-1.3,5.9,0.7,7.6c1.1,1,1.1,2.2,0,3.1
		c-1.2,0.9-2.5-0.4-3.9-0.7c-0.3,1,0.1,1.6,1,1.9c-3.4,7.2-10.9-7-1.8-1.7c-0.7-1.5-6.1-3.1-4.7-4.8c0.8-0.9-2.2-2.8-2.5-4.8
		c-0.5-3,0.1-3.8,0.1-6.8c-0.1-4.4-7.5-3.7-10.2-6.5c-2.2-0.6-6,0.7-7.5-0.7c-3-3,2.7-4,1.7-5.4c-1-1.4-4.1-4.3-5.5-5.5
		c-1.5-1.3-2.3-6.9-2.4-8.8c-0.1-4.3,4-13,9.5-12.2c1.7,0.3,8.3,2.8,9.2,0.6c0.8-1.9,2.9-1.8,5-2.4c0.3-2.1,0-1.9,1.5-4.1
		c3.1-0.4,5.5-4.4,9.1-5c4-0.8,7.6-1.5,10.6-4.2c2-0.2,5.8-1.8,7.8-2.7c4.1,0.6,5,3,6.9,5.7c0.9,1.3,3.1-1.7,3.4-2.2
		c2.9-1.9,5-2.3,8.3-3.4c3.6-1.2,17.9-1,20.2,1.9c2.1,2.6,4.8,1.5,7.7,1.4c4-0.2,7.3,1.9,11.4,0.9c2.1,0.9,4.3,1.6,6.5,2.3
		c1.2,0.4,5.9-0.3,5.9-0.3c1.4-3.2,5.2-0.6,5.6,1.5c0.5,3,1,6-0.9,8.7c-2.8,4,12.1,7.6,8.5,11.9c1.5,2.8,1.8,4.9,5.6,4.8
		c1.9-0.7,3.5-0.3,4.6,1.2c2.6,2,1.5,0.5,4.3,0.3c1.8-0.1,5.9-0.7,7.2,0.2c4.1,2.9-5.4,2.8-6.3,3.4c2,2.6,4.3,5,7.1,6.6
		c2,0.8,6.4-2.4,8.2-3.2c0-1.2-1.5-0.6-1.8-1.6c-0.4-2.4,4.4-1.3,5.3-0.7c3.7,2.7-1.7,2.2-2.9,3.1c-1.2,1.6,0.2,2.8-3.1,3.8
		c0.8,1.2,5.4,3,6.9,4c2.2,1.5,4,4.3,6.6,5.1c0.9,0.2,3.6-0.1,4.3-0.6c2.7-1.9,1.7,2.8,4,1.6c3.4-1.7-5-5.1-7.3-4.1
		c-1.1,0.5-3.3-1.4-3.5-2.4c1.5-1.2,2.5-4.3,3.8-5.1c0.2,0,3.9,3.2,3.9,2.8c0.1,1.5,1.9,2.9,3.1,4.1c2.2-1.3,8.5-4.4,5.8,1.1
		c-0.8,1.7-3.6,1.4-3.8,2.8c1.7,0.8,3.1-0.8,4.8-0.3c0.7,0.2,4.5,0.7,5.4,0.7c0.9-1.7-2.1-4.1-3.2-4.8c-0.8-2.8,4.7-5.1,4.5-0.8
		c1.1,0.4,2.2,0.8,3.2,1.2c3.2,2.7-2.1,3.7-2.9,4.9c1.4,6.2,5,2.4,8.9,2.6c2.7-2.6,5,0.1,3.4,0.6c-1.1,0.3-8.1,4-8,4.5
		c2.3,0.9,2.9-0.5,5.9-0.5c1.3,0.7,0.5,2,0.8,2.5c2.8-2.4,2-9.7,5.5-4c3.5,0.9,3.4,0.8,6.5,2.8c5.6,3.6-2.6,2.4-5.1,0.6
		c-1.3,1.5,0.5,6.9-2.1,8c-0.4-1.3-1-2.6-1.6-3.8c0.1,1.7,0.3,1.8-1,3c-1.8,1.5,1.1,2.6-0.1,4.3c-3.2,4.7-5.1-2.2-6.3-2.6
		c-1.7,0.8-1.1,7-0.8,8.6c1.1,0.6,2.2,0.5,3.3-0.1c2.7-0.8,2.5,1.7,4.5,2.4c2.9,0.9,6.9,0.3,1.6,3.2c-1,1.1-2.3,1.4-3.7,0.9
		c-1.4-0.4-2.8-2.4-4-2.4c-0.9,1.3,0.5,1.8,0.5,3c-0.4,1.9-1.2,3.8-2.6,5.2c-1.1,1.2-8.7,3.2-8.2,5.3c2.7,0.2,0.8,2.1,4.3,2.1
		c2.6,0,1.8,1,3.5,1.1c1.9-1.2-0.7-2.4,1.6-3.9c1.1-0.7,4.8-0.9,5.2-2.1c-0.5-1.6-3.3-1.5-2.1-4.1c0.9-1.9,2.3-0.5,4-0.8
		c1.4-0.2,1.7,0.8,4.4,0.7c1.9-0.1,4.5,0.3,5.5-1.8c0.4,0.4-8-3.7-2.9-3.9c3.7-0.2,3.8-1.4,1.3-4c-3-3.2,4.9-1.9,5.6-2.4
		c1.7-1.2,1.7-3,4.1-3.4c1.5-0.2,6.2,1.8,6.9,1c-1.9-2-4.1-6-6-7.4c-0.5-0.4-10.4,2.5-9.4,5.1c5.4,4.4-2.6,3.1-5.9,3.8
		c-6-2.1,2.5-5.6,3.6-6.3c-4.2-1.7,1.6-3.7,2.8-4.3c1.4,0.5,5.1,1.4,6.5,1c0.7-1-7.3-7.8-8.3-8.3c-5.5-3.1-7.6-7.8-10.3-12.8
		c-0.5,0.3-10.4-0.2-10.1-1.1c0.3-0.8-0.6-3.9,2.4-2.7c0.4,0.2,3.2,0.9,3.7,0.9c2.4-0.4,1.8,0.7,3.8,1.5c0.9-1-1.6-11.5-4.5-6.8
		c0.2,1.8,2,2.8-1.3,4.2c-0.6-0.1-3.1-1.4-3.2-1.9c0.8-1.7,1.8-4.6,2.6-5.8c1.1-1.3,5.8,0.2,4.3-3.5c-0.9-2.2-6.2-10.4-8.8-9.9
		C425,212.3,421.4,200.4,420.5,199.9z M422.8,183.8C423.4,184.5,422,183.2,422.8,183.8C422.8,183.9,422.7,183.8,422.8,183.8z
		 M309.5,247.7c-2.4,0.1,0.4,2.4-1.8,2.7c-2.6,0.4-0.8,3.9-0.1,4.7c1.2,1.4-1.1,6.1-0.8,8.7c0.4,3.5-0.2,1.8-3.1,2.6
		c-2.9,0.7-3.5-0.9-6.5,0.5c-7.1,3.4-2.3,3.5,1.2,6.3c-0.8,2.5,1.7,1.1-0.7,3.5c-1.9,1.9-0.9,3.6,1.3,4.4c1.4,0.5,1.2,2.5,3.3,2.2
		c1.9-0.3,4.7-0.1,6.6-0.1c1.3,0,3.5,0.3,4.9,0.4c1.1,0.5,2,0.1,2.7-1.1c1,0.8,2.2,1.1,3.5,1c2,0,4.3-1.2,6-2.3
		c1.3-0.8,0.6-5.1-0.4-6.1c-8.2-8.7,3.7-15,11.7-17.1c2.9-0.8,5.2-2.2,7.3-4.1c2.6-2.4,10.5-3.7,13.2-1.1c2,2,5.8,1.3,8.2,0.3
		c1.1-0.5,3.2-3.9,3.9-5.2c1.2-2.1,4.2-1.9,5.8-3.4c1.6-1.5,0.3-3.5,2-4.6c3.9-2.6,0.5-4.5-1.5-6.9c-3.7-4.5-8.8-6.6-14.2-3.2
		c0.2,1.1,5.7,4.9,1.9,5.9c-2.6,0.7-5.9-0.8-8.2,1.7c-2.1,1-3-0.9-4.9,0.9c-1.7,1.7-2.5,3.1-2.8,5.5c2.1,3,0.2,9.4-3.7,5.5
		c-1.8-1.8-1.3-7.1-1.4-9c-0.4-4.5,5.5-5.1,3.2-8.9c-1.1-1.8-0.9-3.1-3.2-4c-2.8-1.1-1.3,0.9-3.5,0.9c-5.5-1-4-3.7-5.1-7.9
		c-0.4,0-5.5,1.9-6.1,2.3c-0.7,0.9-1.6,1.7-2.6,2.3c-3.6,0.6-0.9-1.1-2.2-2.2c0.3,0.1-13.4,4.6-9.6,1.3c3.1-2.7,11.1-7.6,12.3-11.1
		c1.8-5.2,1.4-6.7,0.1-12.1c-1.9-1.6-2.8-3.9-5.5-2c-2.8,2-4.7,0.5-7.4,0.5c-4.5,3.5-7-5.1-11.8-3.4c-1.8,0.6-2.7-0.7-5.1,0.3
		c-2.9,1.2-4.7,1.6-6.2,4.4c-1.4,2.7-4.1-1.1-4.8,3.4c2.7,1.4,4.2,3.9,4.8,7c0.9,4.7-1.4,8.8,3.4,11.7c1.4,0.8,6.3,2.5,7.8,2.1
		c5.4-1.1,9.4,3.2,13.7,3.9c2.4,0.4,6.1,4.2,7.2,6.3c1.3,2.2,0.7,4.9,1,7.4c0.5,4.3,0.7,2.5,3.6,5.8c3.8,0,7.5,2.6,7.8,6.4
		c0.2,2.6-2.9,5-3.9,1.3c-0.5-1.7-3.6-5.5-6-4.1c-1.4-0.4-6.3-2.5-6.7-3.9c-2.4,0.7-3.8,0.2-6,0.7c-3.5,0.8-1.9-0.4-1.6-1.9
		C310,246.9,309.6,247.2,309.5,247.7C309.1,247.7,309.7,247.3,309.5,247.7z M371.9,88.4c-6.1,1.2-12.6,2.3-18.8,1.3
		c-2.2-0.3-1.2,1.6-3.3,0.3c-1-0.7-2.9-0.5-3.8,0.3c-0.9,0.8-0.4,1.9-1.5,2.5c-2.2,0.3-4.3-0.3-6.4-0.7c-2.9-0.6-2.6,2.6-4.2,4.4
		c0,3.7-0.3,6-1.6,8.5c-0.2,3.4,0.4,5.2,0.8,8.1c0.5,3.4-4.1,4.3-3.9,0.1c-0.4-1.3-2.3-1.7-1.2-3.2c0.8-1-0.6-3.4-1.5-4
		c-3.4,0-7.7-1-11-1.5c-3.3-0.5-11.2,0.6-14.3,1.7c-3,1-12.1,2.8-14.6,1.1c-1.3,0.6-5.5,1.8-6.9,1.3c-2.2-0.7-5.1,0.2-7.4,0.1
		c-2.1-0.1-3.8,2-5.6,1.1c-7.6-4-5.5,10.2-7,14.1c0.8,1.6,8.2-0.5,9.6-1.3c3.5-2,5.2-1.5,9-2.7c3.7-1.2,8.7,0.8,12.3,0.7
		c1.8,0,4.8-0.5,6.6,0.1c5.5,4.1,13-1,17.5,4.8c6,1.2,10.6-4.8,14.2-7.3c4.6-2.3,8-1.2,12.5-1.3c2.7-0.1,5.4,4.1,7.7,4.8
		c4.8,1.5,6.1-1.9,10,2.5c2.1,2.5,7.7,6,10.8,5.2c5.6-1.5-0.3-4.4,2.3-7.7c0.6-0.8-0.5-5.8-0.4-7.1c0.5-4.8,1.4-9.2,0.4-14.1
		C371.7,97.7,373.4,90.6,371.9,88.4C371.3,88.5,372.2,88.9,371.9,88.4z M228.7,137.2c-1.3-1.4-1.9-9.3-1.3-11.1
		c1.2-4.1,1-9.7,0.5-13.9c-0.4-3.2-1.5-6.9-1-10.2c0.6-3.3-1.5-8.2-0.2-11.2c0.8-1.9-0.5-6.4-0.4-8.8c0.2-3.2-9.4-0.1-11.4,0.2
		c-4.6,0.7-9.5-5.1-10.8,0c-0.5,2,0.5,7.7,2,8.3c-1.5,1.9-1.5,5.9-0.5,8.1c1.9,4.2,0.8,9.5,1.3,14c0.6,4.6-2.1,9.4-0.6,14.1
		c0.9,3,0.5,7.4,0.7,10.3c0.2,3.8,0.5,6.5,0.2,10.5c-0.3,4.5-2.3,8.1-2.5,12.5c-0.2,3.8-5.3,1.9-8.4,2.3c-3.1,0.4-6.3,1.9-9.4,2.6
		c-6.1,1.4-4.1,2-2.3,6.6c1.2,3,5.2,3.7,7.7,3.1c4.2-1,9.7,1.2,13.6-0.4c1.8-0.2,1.4,1.3,3.2,0.3c0.9-0.5,1.8-2.3,2.4-3.1
		c0-1.4,2.4-8.2,3.5-9.5c1.7-1.9,2.2-4.7,4.7-6.8c1.9-1.6,9.5-2.9,10.1-5c-1.8-2.2-3.8-1.7-2.7-5.9
		C228,141.8,227.8,139.2,228.7,137.2C228.3,136.7,228.5,137.7,228.7,137.2z M340.4,295c2.9-0.5,5.4-2.4,8.2-3.2
		c1.2-0.3,0-8.8-0.6-9.9c-2.6-4.8,9.5-8.8,12.5-7.5c3,1.3,5.8,2.9,8,0.4c0.5-3.1,2.1-3.9,3.3-6.7c1.1-2.7-3.4-2.9-4.9-5.3
		c-1.7-2.8-5.5-2.6-8.4-3.4c-2.3-1.7-4.3-5.2-7.6-4.2c-1.6,0.5-6.6,3.1-7.1,4.8c1.5,3.6,0.3,3.4-2.3,2.6c-4.4-0.6-6.8,1.7-10.7,3.1
		c-0.7,1.9-5,3.5-2.4,5.6c2.5-1.9,7.6-0.8,4.6,2.4c-3.9,4.2,4.6,11.2-3.4,14.3c1.4,1.3,1.1,6.7,4.6,5.5
		C334.5,293.5,339.9,294.8,340.4,295C341.7,294.7,339.9,294.8,340.4,295z M371,279.9c-0.6,2.1,0.9,3.6-2.5,1.9
		c-1.2-0.3-2.4-0.4-3.6-0.4c-3.1-0.8-1.2-2.3-5.1-3c-6.8-1.3-8.3,4.7-7.5,9.6c0.8,4.6,1.3,1.5,4.7,2.7c0,4.3-0.6,3.7-3.5,4
		c-2.9,0.4-5.5,1.6-6.6,4.5c3,2.9,5.7,4.2,8.7,7.5c1.9-1.4,1.1-6.2,4.8-1.5c0.3,5.7,2.5,0,4.8,0.9c2.8,3.1,3.6,0.3,6.9,1.8
		c2.5-0.6,8-2.4,8.8-4.8c1-2.8,0.6-7.4-1.5-9.4c-4,2.2-7.9-4.2,0.2-4.7c1.2-1.6,1.8-9.1-0.2-10C378.1,278.5,372.1,278.2,371,279.9
		C370.8,280.7,371.6,278.9,371,279.9z M160.3,183.1c1,1.4-1,3.3-0.1,4.4c-0.4,3.7,0.3,7.4,0.5,11.1c0.4,5.9-1.5,12.5,2.1,17.7
		c3.7-2.6,8.7-5.3,11-9.3c2-3.5,7.5-5,10.4-8.4c1.8-2.3,3.8-4.8,5.8-6.8c1.6-1.7,4.6-1.8,5.8-3.2c1.1-1.2,4.1-1.2,5.5-3.2
		c0.6-0.8,2.4-4.5,2.4-5.2c-2-1-9.3,1-11.6,1.2c-4.3,0.4-8.7-0.3-13,0.1c-3.5,0.3-6.1,0.9-9.7,0.8
		C167.5,182.3,161.2,181.2,160.3,183.1C160.8,183.8,160.6,182.4,160.3,183.1z M410.5,253.5c-1.6,4.5-9,12.8-7.4,17.3
		c0,1.3,0.4,2.4,1.3,3.4c2.1-0.4,2.5-0.1,3.2,2.1c1.3,4.3-0.3,7.9-2.9,11.3c2.6,1.5,17,0.3,18.6-3.2c1.9,0,3.3-1.2,4.6-2.3
		c1.7-1.4,0.3-2.5,1.5-3.6c-2.1-3.1-4.6-5.5-6.3-8.8c2.1-4.8,10.7-11,0.2-11c-3.7-3.5,1.1-4.6-0.4-8.2
		C418.3,249.1,414.4,251.4,410.5,253.5C409.6,255.9,412,252.7,410.5,253.5z M373.6,264.9c0.9-1.2,1.8-2.5,3.5-2.3
		c3.3,0.4,0.4,1.5,0.1,3.1c-1.2,5.6-3.2,6.8,3.7,8.8c2.7-5.5,12.6-8.8,17.6-12c2.4-1.5,6.6-6.7,6.1-9.7c-0.6-4-1.7-0.2-3.6-1.8
		c-2.5-2-1.6-0.7-1.9-3.3c-2.6-4.4-13.1-10.1-17.2-4.5c1.1,1.3,3.1,0.4,4.1,1.8c0,3.5-0.6,1.5-1.8,3.9c-3.5,0-5.2-1.7-8.7,0.9
		C369.3,254.4,365.9,259.9,373.6,264.9C375.8,261.9,372.8,264.4,373.6,264.9z M291.2,258.7c3.8-0.7,4.6,3.1,7.6-0.6
		c1.6-2,4-2.3,3.7-5.1c-0.2-2.2,0.2-2.8,1.3-4.9c0.1,0.4,0.3,0.7,0.7,1c2.1-2.3,1.2-4.2,5.1-4.1c1.6,0.1,2.7-0.8,4.4-1
		c1.4-0.2,3.6,0.7,4.9-0.1c-0.4-0.6-0.5-3.8-0.6-4.5c-0.3-2.5-2.4-4.4-4.4-5.9c-2.7-1.9-5.5-4-8.8-5.3c-0.7,2-3.1-0.1-2.2,3.2
		c1,1.7,0.6,2.7-1.4,2.9c-3.8,1.4-0.8-0.7-4.1-1.5c-2.1,0.7-20.2,5.9-11.5,9.1c-0.3,0.5-3.8,2.1-3.1,2.9c1.5,0.1,6.6,2.7,6.5,4.1
		c-1.8,4.4-9.1-2.4-10.1-2.1c-3.9,1.4-2,7.9,1.4,8.5C284,256.1,288.3,256.7,291.2,258.7C293,258.4,290.4,258.1,291.2,258.7z
		 M266.9,227.5c-3.2-2-5.5,1.3-8.8-0.8c1.1-2.6-0.8-2.6,2-4.8c3.4-2.6,3.4-10.2-1.5-8.7c-2.9,1.4-8,5.4-11.5,5.1
		c-1.3-0.2-2.5-0.8-3.5-1.7c-2-1.3-3.3-1.1-5.1-2.4c-2.4,0.4-3.6,0.2-5.7,1.4c-0.6,4.8-2.4,8.4,1,13.3c1.1,1.6,3.5,2.8,5.4,4.3
		c2.7,2.2,1.6,3.6,5.5,4.7c3.6,1,7.9,1.8,11,1c3.4-0.9,4.4-1.2,7.6-2.9C265.2,234.9,267.5,229.7,266.9,227.5
		C265.1,226.4,267.1,228.4,266.9,227.5z M413.9,140.2c1.8-2.2,0.5-9.9,0.4-12.9c-0.1-1.4,0.5-5.4,1-6.7c0.6-1.6-5-0.2-5.4-0.3
		c-2.1-1.8-7,0.2-9.4,1c-2,3.1-6.4,0.7-8.5,3.3c-2.2,2.8-4.5,9.5-3.5,13c1.4,5.5,7.1,6.5,10.2,9.9c3.8-0.2,6.4,6.4,9.8,7.7
		c1.7,0.6,3.8,1.5,5.8,1c0.7-1.6,0.3-5.1-0.6-6.6c1.6,0.1,2-1.2,3-2C410.9,147.8,415.2,143.1,413.9,140.2
		C414.2,139.8,414.2,140.9,413.9,140.2z M385.7,297.8c4.9,5.1,23.1,5.2,19.1-4.7c-1-2.3-3.8-3.9-6.7-3.1c-0.2,0.1-1.7-3.4,0.1-3.4
		c2.3,0,7-4.7,5.8-7.3c-2.9,1-2.9,0.9-3.8-2.8c-0.4-1.9-0.7-3.4-0.6-5.2c0-4.4-10.3,2-11.8,2.1c-0.5,1.4-2.6,5-3.8,5.8
		c0,0,0.6,6,0.3,7.1c-0.4,2.2-1.9,4-0.5,6C385.5,293.5,386.3,295.5,385.7,297.8C386.4,298.6,386.1,296.1,385.7,297.8z M290.2,102.8
		c1.7,0.9,21.2-0.4,22.5-2.3c0.6-2.1-5-6.1-6.2-7.1c-3-2.5-5-5.8-7.8-8.4c-3.7-3.4-4.4-5.6-8.3-3.5c-2.5,1.3-4.5,6.9-6,9.2
		c-1.8,2.8-4.2,4.8-6.1,7c-0.8,1-5.1,5.8-5.1,6.4C274.1,106.1,289,103.9,290.2,102.8C291.6,103.5,289.5,103.5,290.2,102.8z
		 M260.9,207.3c4.6,0.8,6.1,6.9,6,10.7c0,3.3,0,1.5,1.3,3.8c0.8,1.4,4,2.6,3.9,0c-0.1-1.4,5.3-0.5,6.5-1.6c1.8-1.7,4-1.7,5.3-4.2
		c1.2-2.4,1.5-4.2,0.3-6.2c-1.8-3-5.4,1.3-7.1-1.6c1.1-2.6,2.4-3.5,5-4.9c-0.6-1.7-0.1-3.7,0.7-5.2c-2.8-1.2-1.1-3.4-5.5-2.7
		c-1.9,0.3-5.8,0.8-4.7,3.2c1.6,4-8.5,1-10,2.8c-3.1-0.4-5.4,3.7-8.3,4.2C254.4,209.1,258.9,208.4,260.9,207.3
		C261.7,207.4,259.7,207.9,260.9,207.3z M181.7,160.4c3.3,1.3,9.7-2,13.1-2.3c4-0.5,3.2,0.7,4.8-2.6c1.2-2.5,1.4-5.4,1.5-8.5
		c0.2-4.1,0.5-6.5-0.2-10.3c-0.3-1.6,1-1.8,0.3-3.4c-1-2.5-4-1.9-6.9-2.1c-3.4-0.3-7.2,0.9-9.9,0.6c-1.7,0.9-5.5-1.2-6.6,0.4
		c1.6,1.7,0.7,5.1,1.5,6.8c0.3,0.5,0,2.3,0.3,3.1c1,2.6-0.6,2.7-1,4.5c0.8,1.5,1.5,1.6,1.5,4.4C180,152.9,180.5,158.9,181.7,160.4
		C182.3,160.6,181.6,160.3,181.7,160.4z M343.8,79.4c-2.9,0.3-3.3-3.9-2.9-5c0.8-0.1,5.7-9.7,5.3-10.9c-0.3-0.8,2.7-2.8,3.2-3
		c-1.8-5.4-1.8-3.2-4.2-0.3c-1.6,1.9-3,3.4-4.2,5.6c-0.8,1.3-1.6,2.6-2.5,3.8c0,1.7,1.7,1.7,0.6,3.7c-1.1,2.2-2.5,4.6-4,6.6
		c-0.9,1.3-0.4,4.4-1.4,6.3c3.4,3,9.2-0.9,13.2-0.9c4.4-0.1,19.4,2.4,22.7-1c-0.8-1.8-6-7.7-7.8-8.2c-3.9-5.4-3,1.3-5.2-0.4
		c1.1-3.2,2.8-5.1-1.4-7.5c-1.5,3.1-3.1,9.4-6.3,11.1c-1.5-1.5,1.8-6.7,1.9-9c0.9-1.9,2.3-3,2.5-5.6c-1-0.2-1.8-0.8-2.3-1.7
		c-0.9,1.7-3.2,10.1-5,10.6C345.7,73.5,344.8,78.3,343.8,79.4C342.1,79.6,344.6,78.5,343.8,79.4z M332.1,213.6
		c1.9,0.7,3.5,2.5,5.3,3.8c1.9,1.4,1.7,7.3,5.2,5.1c2.5-1.6,5.3,2.9,6.4,4.2c0.6,0.7,2.5,5.5,2.6,5.5c-0.1,0,3.5-4.3,3.7-4.6
		c2.2-2.8-2.2-2.8,1.3-6.7c6.4-7.2-15-5.5-7.7-13.7c1.7-2.6,2-3.9,2.8-7.3c-1.1-0.9-4.5-0.4-5.7,0.4c-0.8,0.7-1.7,0.9-2.9,0.4
		c-0.9,1.8-1,3.9-2.8,5.2c-3.5-0.2-2.1-4.1-2.3-6.1c-3.9-0.5-7.1,0.6-6,4.4C332.9,207.5,331.1,210.6,332.1,213.6
		C333,214,331.7,212.4,332.1,213.6z M215.1,53.6c6.2,2.7-7.6,3-8.7,3.1c-2.3,2.5-1.7,7.7-2.1,11.2c-1,7.8,1.9,6.7,8,9
		c3.2-0.3,11.8,2.7,10.9-3.4c-0.8-5.8,0.1-15.9-3.5-20.9c-1.2-1.7-1.1-4.6-0.3-6.4c-1.3-1.9-4,0.6-5.7,0.8c-3.5,0.3-3.2-1.8-5.9,1.2
		c-0.2,1.9-0.5,3.7-0.8,6C209.5,54.7,212.9,54.7,215.1,53.6C216.2,54.1,214.3,54,215.1,53.6z M154,192.8c-0.4-1.7,0-11-1.9-11.2
		c-9.7,2.5-3.6,8.9-3.8,15.4c-0.1,4.9-0.6,9.5-1.2,14.7c-0.3,2.7,2.5,3.1,0.6,6c-2.1,3.3,1.5,5.8,2.3,9c7.3-4.8,3.8-9,3.1-16.3
		c-0.2-2.1,0.7-7.1,0.1-9C152.8,200,153.1,194.3,154,192.8C153.8,192.2,153.8,193.1,154,192.8z M305.7,78c-0.8,3.2,3.3,5.5,4.5,8.1
		c1.6,3.8,2,6.6,5.4,9.6c0.6,0.5,1.2,2.6,1.3,3.4c1.6,1.3,7.6,3.5,9.5,3.3c2.3-2.4-0.3-4.7,0.7-7.5c0.6-1.6-6.1-5-7.4-4.6
		C314.8,91.9,307.9,75.4,305.7,78C305.4,79.5,306,77.7,305.7,78z M331.1,70.8c-1-0.2-4.9-0.4-4.1,1.7c0.5,1.4-3.4,3.2-4.5,2.5
		c0,0-9.4,2.7-10.7,3c2.8,1.3,2.9,2.7,5.2,4.5c1.3-2.6,2.7-7.9,4.9-1.7c0.4,1.2,3,3.8,0.3,4.8c-1.9,0.7-3.2-3.1-4.1-3.7
		c-1.9,1.7,1.7,6.6,3.5,7.1C324.1,82.9,329.7,77.4,331.1,70.8C329.5,70.6,330.8,72.2,331.1,70.8z M278.5,232
		c3.1,0.4,0.8,1.5,1.9,2.7c1.9-1.6,4.9-2.6,7-3.8c-1.3-1.1-6.3-1.8-3-3.9c3.7,1.1,2.5,0.9,4.5,3.5c0.6,0.2,6.5-1.6,6.6-1.6
		c0.4-0.8-6.9-4.1-8.5-5.9c-2.2-2.5-3.4,1.4-5.3,2c-3.5,1.1-0.2,2.1,0,3.4c-1.3,1.1-9.9,1.3-7.8,5.6
		C275.6,233.8,277.1,233.1,278.5,232C279.7,232.1,277.1,233.3,278.5,232z M407,112.5c-1.2-1.9-2.3-3.1-4.1-4.6
		c-1.8-1.6-3.2,0.2-4.9,1.1c-2.8,1.5-0.2,3-2.3,5.1c-3.6,3.8,1.1,5,3.7,3c2.3-1.7,8.5-0.3,9.8-2.5
		C408.7,113.8,407.9,113.1,407,112.5C406.7,112.1,407.9,113.1,407,112.5z M210,40.8c0,5.6,0.6,2.5,5.2,2.4c2.1,1,3.1,0.6,3.1-1.3
		c0-1.5-0.8-2-2.4-1.5C214.2,39.8,211.5,40,210,40.8C210,42.2,210.7,40.5,210,40.8z M212.9,31.5c-0.2,4.2-2.3,7.1,4.1,4.9
		C217.9,34,216.4,28.5,212.9,31.5C212.9,32.2,213.3,31.2,212.9,31.5z M276.3,243.6c4-0.9,2.4-1.8,1.4-3.4c0.4-1.4,3.2-3.8-0.2-4.1
		c-1.3-0.1-1.4,2.8-1.6,3.9c-0.4,1.9-1.2,1-2,2.7C274.3,244.8,273.3,247.8,276.3,243.6C278.3,243.1,275.7,244.4,276.3,243.6z
		 M438.1,261.3c2.3-2.5-0.8-2.3-1.6-4.4c-2.3-0.6-2.8,1.6-4.1,2.6C435,261,434.1,262,438.1,261.3
		C438.3,261.1,437.3,261.5,438.1,261.3z M214.3,27.5c2-0.5,3.5-9.6,1.4-10.5C214.8,17.9,213.1,26.8,214.3,27.5
		C215.8,27.1,213.5,27,214.3,27.5z M145.9,178.4c2.3-0.4,8.1-3.4,2.7-5.2C147.9,173.5,145.7,177.2,145.9,178.4
		C146.7,178.3,145.7,177.4,145.9,178.4z M258.6,256c-1-0.8-1.9-1.7-2.8-2.7c-0.2,2-1.3,3.6-2.6,5.1C255.5,258.3,257,257.1,258.6,256
		C257.7,255.1,256.9,257.1,258.6,256z M432.2,277.4c1-0.9-0.8-1.8-1.1-0.5C431.4,277.1,431.8,277.3,432.2,277.4
		C432.5,277.1,431.7,277.6,432.2,277.4z M216.1,14.9c-0.6,0.4-0.7,1-0.3,1.6C216.8,16.2,216.7,15.4,216.1,14.9
		C215.4,15.3,216.3,15,216.1,14.9z M303.8,228.5c-0.1-0.7-0.3-1.1-1-1C302.6,228.4,302.6,228.4,303.8,228.5z M220,35.5
		c0.2,0.5,0.5,0.6,1,0.3C220.9,35.2,220.5,34.2,220,35.5C220.2,35.9,220.1,35.2,220,35.5z M428,254.2c0.6,0.3,1,0.6,1.3-0.2
		C429,253.7,428.6,253.7,428,254.2z M431.2,212.9C429.6,213.7,432.9,212.8,431.2,212.9C431,213,431.4,212.9,431.2,212.9z
		 M420.9,187.2c0.4-0.1,0.6-0.2,0.6-0.6C421.1,186.5,420.8,186.6,420.9,187.2z M222,47.2C223.2,47,221.3,46.3,222,47.2
		C222.2,47.2,222,47.2,222,47.2z M232.9,137.9c-0.4-0.1-0.8-0.2-0.4,0.4C232.6,138.1,232.7,138,232.9,137.9z M434.3,294.4
		c-0.2-0.2-0.4-0.2-0.6,0C433.9,294.7,434.1,294.6,434.3,294.4z M439.6,259.7C440.4,258.9,438.7,259.3,439.6,259.7
		C439.7,259.5,439.4,259.6,439.6,259.7z M223.5,55.6C223.5,55.7,223.5,55.7,223.5,55.6L223.5,55.6z M392.8,112.7
		C392.8,112.5,392.8,112.5,392.8,112.7L392.8,112.7z M218.9,19.4C218.9,19.3,218.9,19.3,218.9,19.4L218.9,19.4z M343.2,75.1
		C343.4,75.1,343.4,75.1,343.2,75.1L343.2,75.1z M250.5,131C250.6,130.8,250.6,130.8,250.5,131L250.5,131z M409.8,291.8
		C409.8,291.7,409.8,291.7,409.8,291.8L409.8,291.8z"/>
	<path d="M227.6,257.6c-1.5,3.8-4.9,2.6-6.4,0.3c-1.9-2.8-4-3.5-7-1.6c-2,1.3-5.5-2.6-5.2,1.4c0.1,2.1-0.1,2.8-2.3,3.4
		c-2.4,0.6-0.7,2.3,0.9,2.3c2.3,0,1.9,1.8,1.4,3.7c1.3,0.5,2.5,0.3,3.6-0.6c1.7,1.1,1.2,3,2.5,3.8c3-1.7,4.8-4.8,8-6.4
		c3.3-1.7,14.5-3.7,15.8-6.1c1.9-3.6,6.9,1.1,8.7,2.5c2,1.6,1.9,4.9-1.1,4.8c-2.6-0.1-0.1-2.3-4.1-2.4c-2.3,0-4.3-0.1-6.3,0.9
		c-1.3,0.6-4.9,1.9-5.7,2.9c2.8,10.6-6.1-0.8-7.7,2.9c-0.6,1.3-2.4,1.8-3.2,3.2c-1.8,3.2,1.5,2.9,3.5,3c3,0.2,7.7,1.8,8.1,5.2
		c5.2,1.6,12.5-0.5,17-2.7c2.7-2.8-2.9-7.4-4.8-5.2c-3.2,3.7-8-1.9-3.1-5.7c4.2-3.3,7.2,1.5,10.5,3.5c4.2,2.5,1.2,8.4,5,8.3
		c2.7-0.1,1.8-7.8,5.6-2c0.7,6.2-4.5,6.8-7.7,3.3c-2.6,0.7-4.8,2.4-7.7,3.1c-4.7,1.1-3.1,4.2-4.1,8.2c-0.7,2.9-0.2,5.2-4.2,3.7
		c-0.7-2.4,1-9.4-0.2-10.2c-1.3,0.2-10.3-1.6-6.5,2.8c2.5,2.9,1.5,7.4-2.1,9.2c-3.3,1.6-5.4,3.8-9.3,3.7c-1.7,0-3.6-1.8-4.8,0.7
		c-0.3,0.7-2,2.2-0.2,2.5c2-0.9,0.9-2.4,3.9-1.5c2.5,0.8,4.3,0.8,6.6,1.3c1.3,1,2.1,2.4,0.4,3.4c-2.6,1.6,1.1,2.4,1.5,4.3
		c-2.2,3.9-3.3,0.1-5.6-0.6c-2.3,0.7-2.5,3.4-4.7,0.4c-2.4-3.4,1.8-2.7,2.6-4.1c0.1-1.3-3.8-1.4-4.7-2c-1.2,2.1,1.5,8.7-1.8,10.2
		c-2.3-1.6-7.9-1.8-6.2-5.9c0.5-1.3-0.5-7.9-0.9-7.8c-4.4,1.5-12.9-1-14.3-5.5c-0.9-1.4-1.1-2.9-0.7-4.5c0.9-2.1-1.1-3.1-1.1-5
		c0-3.3-0.2-6.4,2.8-8.8c4-3.2,9.7-4.7,14-6.5c5.7-2.4,0.3-5.7-2.7-3.8c-3.9,2.4-8.3,3.1-12.3,5.1c-3,1.5-7-3.8-3.6-3.9
		c2.3-0.1,13.7-4.8,13-7.4c-1.5-1.7-3.2,0.2-4.5-2.8c-1.5-3.4,0.6-3.6,1.4-6.6c1.8-6.8-6.3-3.1-6.5-6.4c-0.2-4.3-9.9-4.4-13.5-2.2
		c-2,1.3-4.9,2.3-6.1,4.6c1.5,4.5-3.7,6.5-3.6,3.4c0.1-2.1-1.3-5.1-0.2-6.9c1.5-2.3-0.2-2-1.7-3.8c-2.2-2.6,1.7-3.5,3.6-2.2
		c2.9,2.1,2.6-2.1,5.2-2.7c2.1-0.4,1.2-5.2,1.8-6.8c0.6-1.6,2.7-3.8,4-5.1c4.1-4.3,8-4,13.1-5.6c2.8-0.9,6.7-2.7,8.8-5
		c5.7-6.4,6.4,3.6,10,6c0.6,0.4-0.4,2.9,0.2,3.9c1.4,2.3,2.9,2.9,4.6,4.8c3.1,3.4,2.6,6.9,5.3,10.5c0.7,3-0.2,6.7,0.5,9.7
		c0.5,1.8-1.6,2.4-0.2,3.9c1.7,1.7,2.5-2.4,4.6-0.7c2.5,2.1,2.8,2.8,3.6-0.7c2.2-1.5,7.2-1.2,4.1,2.5c-1.1,1.3-0.5,5.2-2.5,5.5
		c-1.1-0.1-2.2-0.4-3.1-1c-4.1-1.7,0.3-0.1-1.5-2.2C227.1,256.3,227,256.9,227.6,257.6C227.2,258.6,227.1,256.5,227.6,257.6z
		 M224.8,254.6c0-0.7-0.1,0.8,0.7,1.1C225.6,255,225.4,254.7,224.8,254.6C224.8,254.4,225.3,254.7,224.8,254.6z M181.3,230.6
		c-0.6,2.9,1.7,5.5,4,6.5c3.3,1.5,1.8,0.3,2.5-2.1c-1.3-1.7,0.1-5.9,2.9-4.9c0.2,0.7-1.5,7.4-2.2,8.1c1,0.4,4,1.8,3.9,3
		c-0.1,0.8-1.6,3.4,0.9,1.8c2.6-1.6,6,0.7,6.9,2.7c1.4,1.4,3.8,2.9,4.7,4.2c-0.3-0.4,6.8,1.3,7.4,1.4c5.2-1.5,5.1-3.3,5.2-7.8
		c0.1-3.9-2.8-4.4-6.4-4.7c-2-0.2-1.6-3.7-0.5-4.5c3.5-2.2,2-4.5-1.8-4.9c-3.6-0.4-5.5,0-2.6-4.5c1.1-1.6,1.8-6.6-1-7.7
		c-2.3,0.4-4.2,2.6-6,2.5c-3.8-0.2,1.9,5.5-3.5,4.6C191.9,223.6,183.3,226.3,181.3,230.6C181.1,231.7,181.7,229.8,181.3,230.6z
		 M224.4,281.5c-2.1-2.9-7.1-1.3-10.3-3.9c-0.6-4.5-8.1-2.5-10.2-0.6c-1.8,1.6-4.6,2.1-6.6,3.5c-3.3,2.2-2.2,3.2-3.4,6.5
		c0.7,1.2,3.9,4.1,3.9,5.1c-0.8,1.9-2.9,3.9,1.1,4.6c3.1,0.5,9,0.5,11.7-1.8c0.8-0.7,3.6-2,4.7-2.4c2.8,0,3.1,2.6,5.9,2.3
		c3.3-0.5,4.1-1.7,5.7-4.2c0.2-2.9-2.2-1.7-3.3-2.7c-1.5-1.4-2.6-1.7-2.5-3.8C221.1,281.2,223.4,283,224.4,281.5
		C223.8,280.7,223.9,282.2,224.4,281.5z M214.4,271.5c-0.2-1.4-1.7-0.8-2-0.1C212.5,272.6,214.1,273.1,214.4,271.5
		C214.4,271.1,214.3,272,214.4,271.5z M192.9,278.4C192.4,279.9,194.5,278,192.9,278.4C192.8,278.7,193.2,278.3,192.9,278.4z"/>
	<path d="M181.4,265c4.8,6.5,1,10.8-0.9,17.1c-0.5,2.9-2.6,3.2-3.6,5.9c-7,2.4-3.6,6-5.5,11.5c1.5-0.1,6.1-1.2,7.4-0.4
		c2.2,1.3,0.4,2.9,0.6,3.9c0.2,0.8-1.6,3.7,0.1,3.9c1.4,0.1,0.8-2.4,2.7-1.8c4.6,1.3,3,2,5.9,5.3c-0.9,3.3-3.6,2.4-6.3,1.3
		c-2.6-1-3-1.9-5.4-2.9c-3.5-1.4-1.4-2.9-1.3-5.5c-1.3-0.5-5.3,2.7-6.4,3.1c-1.3-0.3-4.7-4.3-1.9-3.8c3.6,0.7-1.5-1.7-1.7-1.8
		c-0.1-2.1-1.5-5.4-0.9-7.3c1-3-3.1-13,5-8.4c4.7,3.6,9.3-5,8.9-8.5c-0.2-1.9,2.7-8-1.4-8c-2.5,0-5-1.5-7.1-2.8
		c-0.5-1.2-0.6-4.7-1-4.8c-2.3-0.3-3.1-0.3-5.7,0.1c-0.7,0.1-5.7,1.8-5.9,2.2c-1.1,2.6-1.9,2.4-1.5,5.2c1,0.3,6.4,1.8,5.4,3.8
		c0.3,0.5,4.7,1.4,1.8,2.7c-2.2,1-3.3-0.5-5.4-0.2c-2.9,0.4-2.3-0.8-5.5,0.7c-4.4,2-3.7,4.2-3.5,8.1c0.4,6.4,10.2,3.8,14,5.2
		c2.9,1.1,0.2,4.3-2.3,3.4c-1.8-0.7-6,0-8.2-0.2c-3.9-1.9-8.8-3.7-9.7-9.1c-1-6.2,1.6-7.3,5.4-11.3c1.5-1.6,1-3.8,2.4-5.2
		c-0.7-3.7-5.5,0-7.6-3.2c1.6-4.4,2-0.3,4.6-2.5c2.9-2.4,3.3,1.2,4.7,2.1c0.7-0.3,5.7-4.2,6-4.8c3.1-1.7,5.6-1.6,8.8-1.9
		c3.2-0.4,4.4,1.5,6.7,3.7C176,262.6,176.7,264.3,181.4,265C181.9,265.8,179.5,264.7,181.4,265z"/>
	<path d="M398.4,313c-0.4-3.7,5.5-2.6,7.3-3.7c-0.2-2.8,3.3-3.8,3.6-6.8c0.8-0.9,3.2-2.4,4.3-4c3.1-0.8,1.5,5.5,1.8,6.6
		c3.5,1.1,9-2.7,11.9,1c0.3-0.7,0.5-1.5,0.5-2.3c1-0.6,3.6,0.1,4.1,2c-2.6,5.7,1.4,1.7,3.2,1c3-1.2,7.2,3.2,2.5,3.7
		c-4.7,0.5-0.4,0.5-2.9,1.9c-1.5,1.4-5.4,3.1-6.9,0.6c1.3-0.9,1.6-2.1,0.9-3.6c-1.6,0.7-3,2.1-4.6,2.8c-1.1,0.5-6.5-0.3-4.4-2.4
		c1.2-1.3,1.3-0.5,2.9-0.5c2.5-2.4-2.4-2.2-3.6-1.6c-0.7,0.3-2.4,0.2-3-0.3c-2-1.9-2.8,1.5-5.5,0c-2.2,1.8,1.9,4.6,3.8,4
		c4.6-1.7,2.7,2.1,5.4,3.6c1.7-0.5,0.6-2,3-0.8c0.9,0.5,1.1,2.4-0.1,2.7c-2.3,0.6,5.9,6.4-2,6.6c-0.7,0-8-5.7-8-6.3
		c0-2-1.2-0.9-2.2-1.9c-1.2-1.8,1-2.4-2.5-2.9c1.1,3.4-1,6.2-4.6,5.5C399.5,317.4,402.7,313.5,398.4,313z M406.2,312.5
		c0.5,0.1,0.7,0.2,1-0.1C406.8,312.2,406.6,312.2,406.2,312.5z"/>
	<path d="M402.3,194.8c-0.6,2.6,0.1,5.4-4.3,6.1c-6.8-1.9,1.4-5,2.3-6.4c-0.1-0.9-1.6-0.4-1.5-1.7
		c1.9-3.2,4.4-2.3,7.3-2.4c0.2-0.8,0.3-1.5,0.1-2.3c-2.7,0.7-4.5,0.6-7-0.7c-1.2-0.6-2.1-2.6-3.4-1.9c-2.8,1.4-2-0.5-4.6-0.9
		c-0.8-2.3,3.6-1.5,4.5-1.7c-2.6-3,1.6-4.4,4.1-3.5c3.2,1.1,2.4,4.4,3.6,6.3c1.7-0.5,2-2.8,4.1-2.7c3,1.6-0.5,2.5-0.1,4.3
		c1.9,1.5,4,1.6,6.3,1.8c2.2,1.4-0.5,3.1-0.7,4.5c-0.1,1.3-3.9,1.8-5,1.7c-2.6-0.3-1.3-2.3-1.9-3.6C405,192.9,403.7,194,402.3,194.8
		C402.1,195.9,404,194.1,402.3,194.8z M398.4,182.9c0.1,1-0.2,2-0.9,2.8c0.7-0.3,2.6-2.3,2.2-3.2
		C399.3,182.6,398.9,182.7,398.4,182.9C398.7,183.8,399,182.3,398.4,182.9z"/>
	<path d="M410.1,223.1c-2.8-1-5.1-3.1-5.1-5.5c1-0.4,5.5-0.7,3.6-3.2c-1.1-1.4-0.5-5,1.8-6c1.5-0.7,3.3,1.1,4.9,0
		c0.1-1.2-4.1-1.2-5.2-1.8c-1.4-2.5,3.9-2.7,4.5-0.9c0.4,1.3,5.1-2.2,4,1.5c-0.4,0.8-0.9,1.4-1.5,2c-0.3,2.2,2.4,2,1.5,4.4
		c-0.3-0.1,4.1,0.2,4.3,0.1c3,3.1-2.8,3.6-4.7,2.3c-0.3-3.2-4-3.3-5-0.4c-1.1,3.3-2.2-0.3-3.2,2c-1,2.5,2.6,2.5,3.8,2.2
		c2.8-0.7,3.3,4,0.7,3.8c-0.8-0.2-1.2-0.7-1.3-1.5C412.1,222.1,411.1,222.4,410.1,223.1C409.4,222.8,411.3,222.8,410.1,223.1z"/>
	<path d="M301.9,337.6c0.1-1.2,2.5-1.8,0.7-3c-1.8-1.1-1.4-2.6,0.5-3.4c2.2-0.9,3.5-0.8,5.3,0.7
		c4.2,3.5-2.6,2.2-2.8,4.1c0.6,2.3,4.6,0.3,5.5-0.4c4.5,0.9,2.5,2.2,3.9,4.9c1.8,3.5-4.2,0.7-4.3,0.7
		C307.6,343.2,303.3,340.5,301.9,337.6C302,336.5,302.7,339.1,301.9,337.6z"/>
	<path d="M392.8,324.6c1.3-0.3,1.9-1.1,1.8-2.4c1.7-0.7,3-0.3,4.5-1.3c4.5-2.8,3.5,2.1,4.4,3.9c1.8,0,4.3-2.9,6.2-0.7
		c1.6,5.6-5.6,1.2-6.6,3.2c-1,1.9-2.9,1.1-4.1,0.2c-3-2.3-2.1,0.5-2.7,2.2c-1.3,3-3.3,0-4.1-1.1
		C393.5,326.1,392.6,327.1,392.8,324.6C394.4,324.5,392.7,325.6,392.8,324.6z"/>
	<path d="M470.4,283.9c-1.4-1-3.5-0.1-4.5-1.4c-2.9,1-3.8,3.1-5.9,4.2c-1.2-1-1.1-1.8,0.6-2.4c-0.9-0.7-2.5-0.6-3.6-0.7
		c-2.4-1.5-0.9-3.8,1.7-3.3c2.9,0.6,2.4-1,4.8-1.2c2.1-0.2,3.8,1,5.8,1c0.6-1.4-0.2-4.6,3.2-3.1c2.4,1,1.7-0.4,3,1.7
		C475.1,280.9,473.1,284.5,470.4,283.9C469.9,283.6,471.8,284.2,470.4,283.9z"/>
	<path d="M340.7,305.7c-0.3,1.7-1.6,1.8-3,2.1c1.9,3.6,6.7,5.8,3.6,9.8c-1.4-1-4.6-4.8-6-5c-3.5-0.7,2.1-3.4-0.1-5.7
		c0,0-4,1.2-3.4,1c-2.1-2.1,0.2-1.4,0.4-3C333,299.8,339.1,305,340.7,305.7C340.4,307.5,340,305.4,340.7,305.7z"/>
	<path d="M178.8,293.1c-3.5,3.8-7.7-1.1-3.7-1.6c3.7-4.1,13.1,0.3,7.4,2.5c-0.1,1.2,5.6,5.9,2.4,7.4
		C179.5,304,181.2,293.3,178.8,293.1C177.5,294.5,179.7,293.2,178.8,293.1z"/>
	<path d="M390.4,324c-0.8,0.7-4,2.2-3.9,3.4c-1.3,0.2-3-1-4.6-0.1c0,2.9-6.3,7.7-8.2,3.9c0-4.3,6.4-4.4,7.5-7.2
		C382.4,322,389.6,321.6,390.4,324C389.4,324.9,390,323,390.4,324z"/>
	<path d="M321.6,352.7c-5.3,0-2.5-4.8-6.3-5.5c-0.8-2.8,4.9-3.2,6.7-2.3c3.6,1.7-2.1,3.7,1.3,5.9
		C329.4,349.1,327.4,358.2,321.6,352.7C320.9,352.7,322.6,353.7,321.6,352.7z"/>
	<path d="M229,314.9c5.4,2,1.1,13.7-3,7c0,0-6.9-3.1-5-3.8c0.8-0.3,3.1-1.5,3.7-2C227.3,314.3,226.3,315.6,229,314.9
		C230.2,315.3,228.2,315.1,229,314.9z"/>
	<path d="M400.8,169.3c-0.8-0.5-3.9-4.3-1-3.5c2.3-1.5,2.7,0.7,5.1,0.5c3.3-0.2,1.2,1.4,3.6,2.3c2-0.7,5-0.2,2.9,2.5
		c-1.9,1.5-0.7,0.6-1.9,3.1c-1.6,1.7-1.9-1.4-2.9-0.4c-1.3,1.3-1.1-1.5-1.2-1.9C403.6,169.1,404.8,169.6,400.8,169.3
		C399.4,168.4,401.3,169.3,400.8,169.3z"/>
	<path d="M396.8,207.2c-1.9,7-7.3-2.5-2.6-1c2.9,0.9,3.5-4.3,6.7-4.1c2.6-3.3,2.5-0.2,5.9-0.7c1.6,1.3,2.5,4.3-0.8,3.6
		c-0.8-0.3-1.7-0.3-2.5,0.1c-0.4-0.7-0.8-1.3-1.3-1.8C400,205,400.9,207.5,396.8,207.2C396.5,208.3,398.4,207.3,396.8,207.2z"/>
	<path d="M138.6,259.4c-1.1-1.1-2.6-3.4,0.1-3.9c3.9-0.7-0.7-2.3,0.5-4.9c2.5-5.5,9.6,1.1,2.3,3.5c1.4,1,2.8,1,3.4,2.8
		C144.7,259.2,140.2,259.8,138.6,259.4C138.1,258.8,140.5,259.9,138.6,259.4z"/>
	<path d="M322.9,335.1c-5.2,1.5-4-9.2,0.2-9.2c2.2,0,3.9,2.5,3.9,4.4C326.9,334.3,323.8,332.2,322.9,335.1
		C320.6,335.7,323.3,333.7,322.9,335.1z"/>
	<path d="M97,313.5c0.6,0.2,1.1,0.4,1.7,0.6c0.1-0.8-0.1-1.6-0.5-2.3c0.4-1.8,3.9-1.5,5.2-1.2c6,1.1-0.2,5.7-3.6,4.3
		C97.3,324.1,90.4,315.2,97,313.5C97.6,313.7,96.1,313.7,97,313.5z"/>
	<path d="M466.1,329c0.7-0.3,1.1-0.8,1.3-1.5c1.1,2.6,2.9,2,2.9,4.9c0,4.5-4.6-1-4.9-1.3c0.2,0.2-5.3,2.3-7.1,1
		c-1.3-1-0.3-3.2,0.6-3.8C461.4,328.3,463.6,329,466.1,329C466.6,328.7,465.1,329,466.1,329z"/>
	<path d="M152.3,236.9c1.6-0.9,5.8-2.8,7-0.4c0.8,1.5-1,2.8,1,3.7c2.6,1.1,1.4,5.1-1.3,4c-3.5-1.5-0.9-1.8-1.4-4.4
		C154.1,238.5,151.1,242,152.3,236.9C154.4,235.7,152.2,237.4,152.3,236.9z"/>
	<path d="M74.9,274.3c0,2.1,3.9,4.6,0.3,5.8c-2.3,0.8-4.7-3.5-4.7-5.2c0-2-3.3-4.8,0.1-5.8
		C74.2,268.1,73.9,272.7,74.9,274.3C74.9,274.9,74.5,273.7,74.9,274.3z"/>
	<path d="M351.4,327.5c-0.5-1-0.7-2-0.6-3.1c-0.3-2.5-2.4-0.9-3.8-2.2c-3.9-3.4,3.1-2.8,5.2-0.5c1.5,0.3,4,0.2,4.7,1.7
		C355.9,327.7,355.6,327.3,351.4,327.5C350.2,326.1,352.6,327.4,351.4,327.5z"/>
	<path d="M0,279c1.8-1.3,3.8-3.5,5.9-4.3c0.8-0.3,7.1-0.7,4.9,2.2c-0.7,0.9-4.2,2.7-5.3,2.4c-2,1.3,0.7,1.8-2.5,2.4
		C1.2,282,0.6,280.4,0,279C0.6,278.6,1.4,282.3,0,279z"/>
	<path d="M413.9,230.9c0.7-2.9,5.2,0.1,6.8-2.1c2.3-3.1,2.5,3.8,2,4.8c-0.6,1.5-3.8,3.1-5.4,2.4
		c-1.7-1.6,0.9-1.3,0.3-2.7C417,232.8,413.9,232.3,413.9,230.9C414,230.4,413.9,232.3,413.9,230.9z"/>
	<path d="M88.8,296.3c0-3.1-2.4-2.4-1.4-5.5c1.9-0.7,4.5-3.6,6.7-1.8c2.7,2.1-0.9,3.4-2.1,4.3
		C93.4,296,90.5,299.2,88.8,296.3C88.8,295.6,89.3,297.1,88.8,296.3z"/>
	<path d="M126.8,291.1c1.3-4.5,11.7,2.7,10.2,5.1C135,299.6,127.8,292.7,126.8,291.1C127,290.3,127.6,292.5,126.8,291.1
		z"/>
	<path d="M267.4,257.8c-0.4,1.4,0.5,3.2,0.7,4.5c0.2,2-1.5,1.7-2.8,1.7c-1.6-0.8-0.7-2.2-1.1-3.5c-0.7-0.7-2,0.8-1.9-1
		c0.1-2.2,0.9-1.8,2.3-1.6c-0.3,0,3.8-4.7,4.1-5.2C272,255.7,269.7,255.7,267.4,257.8C267.1,258.8,268.3,257,267.4,257.8z"/>
	<path d="M157.3,253.4c-6-3.7,4.9-6.1,4.5-6.8c0.9,1.3,3.6,0.4,2.7,3.2C163,252,159.8,253.3,157.3,253.4
		C156.8,253.1,159.3,253.3,157.3,253.4z"/>
	<path d="M254.4,307.3c2.6,1,1.7,1.7,1.9,3.9c0.1,1.5-2.2,2.6-1.4,3.9C252.8,319.1,246.8,308.4,254.4,307.3
		C254.6,307.4,252.6,307.6,254.4,307.3z"/>
	<path d="M240.8,310.4c1.3-1.4,4.3-1.8,4.9,0.5c0.8,3.1-2.5,2-4.2,3.1C236.1,317.8,233.9,308.9,240.8,310.4
		C241.9,309.2,239.3,310.1,240.8,310.4z"/>
	<path d="M211.4,259.9c5.9,0,4.4-1.8,7.5,3.5C217.8,267.4,208.1,264.1,211.4,259.9C212.3,259.9,210.3,261.3,211.4,259.9
		z"/>
	<path d="M252.1,296.5c-2.5,0.5-2.1-1-3.2-2.2c-2.9,0.7-8.6-1.9-3.7-3.6c1.3-0.9,2.3-0.7,3.1,0.6
		c1.8,2.4,1.4,0.3,3.8,0.4C254.8,291.7,253.5,295.8,252.1,296.5C251.1,296.7,253.2,295.9,252.1,296.5z"/>
	<path d="M113.6,265.5c2.3-3.4,7.1,0.1,8.8,1.9C123.7,273.3,113.8,269,113.6,265.5C114,264.8,113.7,266.8,113.6,265.5z"
		/>
	<path d="M319.5,298.8c1.4,1.8,1.1,1.4,1.7,3.6c1.6,0.2,2.8,1.8,3.9,1.8c1,2.2-0.7,7.4-2.6,3.8
		c-1.7-3.1-1.5-5.5-5.2-6.7C315.5,299.5,318.4,298.8,319.5,298.8z"/>
	<path d="M98.5,283.6c-0.1-1.8-1.5-3.3,1.5-4.2c1.3,0.9,6.5,2.1,2.3,4.2c-2.2,1.1-0.2,3.1-2.5,4.6
		C96.4,288.9,96.5,285.1,98.5,283.6C98.5,282.7,98,284,98.5,283.6z"/>
	<path d="M164.8,304.4c1.3,3.6-8,7.2-9.5,3.7C156,305.6,163,302.1,164.8,304.4C165.1,305,164.5,304,164.8,304.4z"/>
	<path d="M446.3,329.1c2-2.7-4.1-2.1-1.6-6c4-1.1,4.9,2.4,3.3,4.7C453.5,331.4,447.4,335.7,446.3,329.1
		C446.5,328.7,446.4,329.9,446.3,329.1z"/>
	<path d="M297.9,328.3c-3,5.4-4.7-2.3-5-2.3c-1.6,0-7.2-3.2-3.1-3.9c3.2-0.5,3.9,0.5,4.3,3.3
		C296,326.9,297.4,324.6,297.9,328.3C297.1,329.7,297.8,327.7,297.9,328.3z"/>
	<path d="M381,217c1-1.3,8.5-2.6,9.6-0.4C388.3,221.2,382.7,221.9,381,217C381.7,216.1,381.4,218,381,217z"/>
	<path d="M306.8,140.2c1.2,0.2,2.2-0.1,3-0.9c-1.2-0.3-2.3-0.7-3.4-1.2c1.3-4.4,9.3,1.7,7.8,2.6
		C312.4,141.8,306.4,145.8,306.8,140.2C308,140.3,306.7,142.1,306.8,140.2z"/>
	<path d="M420.4,199.9c0.4,2.7-4.5,1.6-5.9,1.6c-1.8-2.5,2.9-2.9-1-5.3c1.9-4.8,2.3-3.9,4.6-0.1
		C418.2,198.3,416.9,199.6,420.4,199.9z"/>
	<path d="M352,350.4c0.5,0.8,3.2,1.3,1.4,2.7c-2.1,1.6-1.6,1.8-3,3.7c-1.5,2.2-6.4-1.6-3.6-3.6
		C349.1,351.6,348.9,350.6,352,350.4C352.5,351.1,351,350.5,352,350.4z"/>
	<path d="M350.6,318.4c0.5-2.3-1.2-3.3-0.2-5.6c0.7,0,5.7,0.1,4.5,2.1c-0.4,0.7,1.3,1.8,1.6,2.4
		C355.7,321.3,352.7,319,350.6,318.4C350.7,317.8,351.8,318.7,350.6,318.4z"/>
	<path d="M281.5,335.9c-0.3-1.6-2.4-7.5,2.5-4.3c1.5,1,1.1,4.4-0.8,4.3c0.4,0-3.1,3.3-3.7,3.8
		C276.3,337,278.5,335.9,281.5,335.9C281.3,334.7,280.4,335.9,281.5,335.9z"/>
	<path d="M126.7,264.5c0-3.7,6.4-5,7.4-1.4C135.2,266.9,128.3,267,126.7,264.5C126.7,263.9,127.3,265.4,126.7,264.5z"/>
	<path d="M123.5,283.8c0.8-1.3-0.6-3.3,1.8-3.7c2.5,0.7,2.2,2.9,3.4,4.7c1.2,1.8,1.6,3.3-1.5,2.9
		C123.4,287.3,126,285.1,123.5,283.8C124,283,125,284.6,123.5,283.8z"/>
	<path d="M271.8,343.4c-1.9-1.1-2.8-0.3-2.6-2.7c0.1-1.5,1.3-3.9,3.7-4.1C277.4,336.4,274.5,342.8,271.8,343.4
		C270.9,342.9,272.7,343.2,271.8,343.4z"/>
	<path d="M403.5,212.2c-6.2,4.5-4.9-6.3-0.6-3.8c1.8-0.7,3.5-2,4.6,1C407,212.9,404.5,209.6,403.5,212.2
		C402.6,212.9,403.7,211.6,403.5,212.2z"/>
	<path d="M429.7,325.4c-1.8-2.1,3.4-9.5,6.2-4.9c-0.6,1.5-1.8,2.8-2.2,4.3C432.9,328,431.3,324.9,429.7,325.4
		C428.8,324.4,430.8,325.1,429.7,325.4z"/>
	<path d="M358.8,325.8c0.7,0.3,6.7,0.3,3.6,2.5c-0.7,0.3-1.4,0.5-2.1,0.4c-0.6,0.9,0.3,2.8-1.5,2.6
		c-1.2-0.1-5.9,1.9-4.8-1.6c0.6-0.7,1.3-1,2.2-1C358.5,328.2,357.2,326.6,358.8,325.8C359.9,326.2,358.3,326,358.8,325.8z"/>
	<path d="M399.8,224.3c1.5,5.7-5.3,1.7-7.9,1.3c-1.5-0.2-1.7-2.3,0.4-2.5C394.1,223,398.3,223.2,399.8,224.3
		C400,225,398.8,223.6,399.8,224.3z"/>
	<path d="M139.8,271.5c1.6,2.3,1.8,2.7-1,4.1c-2.1-1.1-1.9-2.7-3.6-3.8C131.2,269.2,141.1,267.1,139.8,271.5
		C140.3,272.1,140.3,270,139.8,271.5z"/>
	<path d="M342.9,350.8c-3.6-0.7-6.3-7.1-0.8-7.2c2.8,0,4.7,2.7,1.2,3.8C341.8,347.9,343.6,349.8,342.9,350.8
		C341.9,350.6,343.4,350.1,342.9,350.8z"/>
	<path d="M271.9,313.7c0.7,4-7.9-0.2-9.4-1.1C261.8,307.8,270.3,312.7,271.9,313.7C272,314.4,269.5,312.2,271.9,313.7z"
		/>
	<path d="M387.5,316.9c1.9,1.5,1,3.4-1.2,3.9c-3.3,0.8-3.1-1.7-6-2.3c-1.4-0.3-0.5-1.9,0.1-2.4
		C382.8,316.7,385.1,316.5,387.5,316.9C388.4,317.6,387,316.8,387.5,316.9z"/>
	<path d="M80.4,268.8c-3.3-0.4-3.5-7.6,1.7-3.9c0.1,1.9,1.7,2,2.5,3.5C83.8,270.1,80.5,272.4,80.4,268.8
		C79.8,268.7,80.5,270,80.4,268.8z"/>
	<path d="M285.6,316c2.9,0.5,3.3-0.9,5.4,0.9c0.1,0.1,3.8,4.3,1.6,3.4C290.7,319.5,283.6,321,285.6,316
		C287.2,316.3,285,317.5,285.6,316z"/>
	<path d="M309.2,319c0.8,0,5,1.1,3.5,2.9c-1.6,1.9-4.8-0.8-6.2-1.2C300.7,319.3,306.3,314.5,309.2,319
		C310.9,319.1,308.8,318.5,309.2,319z"/>
	<path d="M104.5,272.5c3.5,1.1,4.6,4.7,0.5,5.7c-2.3,0.6-2.9,0.3-4.2-1.8C100.8,273.6,104.1,275.3,104.5,272.5
		C106.1,273,104.2,274.6,104.5,272.5z"/>
	<path d="M405.1,233.3c-1.7,5.9-5.3-0.9-4.4-1.4c2.1-1.2,1.8-3.1,4.8-2.9C407.5,230.7,407.6,232,405.1,233.3
		C404.9,233.8,406.1,232.8,405.1,233.3z"/>
	<path d="M481.3,331.2c1,1.1,2.1,2.2,3.3,3.2c2.6,1.8-1.5,2.6-2.4,3.5C477.6,336.2,478,333.9,481.3,331.2
		C482.5,332.3,480.3,332,481.3,331.2z"/>
	<path d="M458.5,339.3c-1.9,0.2-3.8-0.1-5.5-0.8c-0.1-1.2-0.7-1.9-1.9-2.1C453.9,333,461.4,336,458.5,339.3
		C456.5,339.5,459.1,338.6,458.5,339.3z"/>
	<path d="M409.9,336c2.1,0.5,2.5,4.8-0.1,3.6c-1.3-0.6-4.1-0.6-4.3,1.5c-0.2,2-2.9,2.3-2.8,0.1
		C402.8,338.2,407.5,337.2,409.9,336C411.4,336.4,408.5,336.7,409.9,336z"/>
	<path d="M416.3,174c0.1-0.4,0.2-0.7,0.2-1.1c-2-2,0.3,2.8-2.3-1.7c-1.4-2.3-3.5-4.4,0.8-4.9
		C417.5,167,419.4,174.6,416.3,174C416.1,173.6,417.3,174.2,416.3,174z"/>
	<path d="M206.3,319.7c2.3-2.7,10-3.7,6.6,1.2C211.4,320.8,206.5,323.4,206.3,319.7C208,317.8,206.4,320.7,206.3,319.7z
		"/>
	<path d="M129.3,253.5c0.7,1.1,1.7,1.5,3,1.3c-1.3,0.8-0.6,5.1-4.8,3.8C124.2,256.8,125,252.4,129.3,253.5
		C130.2,254.2,128.3,253.2,129.3,253.5z"/>
	<path d="M239.3,162.1c-6.2-1.8-2.6-2.1-0.7-5.7C244.4,156.1,240.5,159.6,239.3,162.1
		C237.9,161.7,240,160.6,239.3,162.1z"/>
	<path d="M102.8,294.7c1.5,0.7,6.7,1.6,2.1,3.8c-1.7,0.9-2.2,1.8-4.1,0.7C97.3,297.3,101.5,295.9,102.8,294.7
		C103.7,295.1,101.8,295.6,102.8,294.7z"/>
	<path d="M411.4,227.1c5.1,2.6-1,5.5-2.6,1.7C404.8,226.1,409,223,411.4,227.1C412.1,227.5,411,226.5,411.4,227.1z"/>
	<path d="M246.5,146.7c-2.5-1.2,0.9-3.1,3.1-1.5c3.1,2.2-1.8,7.2-4.6,4.2C245.8,148.6,246.3,147.7,246.5,146.7
		C245.7,146.3,246.6,148.1,246.5,146.7z"/>
	<path d="M367.8,353.8c0,2.2-5.4,6.1-6.4,2.9C360.5,353.8,365.9,350.7,367.8,353.8C367.8,354.3,367.1,352.6,367.8,353.8
		z"/>
	<path d="M383.8,345.5c-2.4,3.5-4.6,3.7-8.1,2.1C374.9,344.5,382,343.4,383.8,345.5
		C382.8,346.9,383.3,344.9,383.8,345.5z"/>
	<path d="M411.8,175.1c1.1,0.4,4.5,5.4,3.8,7c-4.1,1.7-2.4-3.2-5.3-4C405.4,176.9,411.6,175.3,411.8,175.1
		C412.5,175.3,411,175.9,411.8,175.1z"/>
	<path d="M430.4,222c-2.3,0.2-6.3,1.8-7.6-0.8C421.8,219.1,430.6,216,430.4,222C428.6,222.2,430.5,221.2,430.4,222z"/>
	<path d="M54.8,273.1c0-0.4-0.6-3.8,1.4-3.2c1.8,0.6,4.3-1.5,5.3,0.4C63.5,274.1,56.2,273.5,54.8,273.1
		C54.8,272.2,55.2,273.2,54.8,273.1z"/>
	<path d="M458.6,297c1.6,0,4.5,0.6,2.6,2.8c-1.4,1.6,0.2,2.4-1.2,3.9c-1.9,1-3.2-1.6-4-2.8
		C456.1,300.9,458.6,297,458.6,297C459.2,297,458.1,297.5,458.6,297z"/>
	<path d="M428.5,337c-1.3,3.5-5,3.2-5.4-0.8C422.7,331.6,427.6,334.5,428.5,337C428.1,338,427.8,335.2,428.5,337z"/>
	<path d="M75.3,320.9c-2.9-4.2,3.8-4.3,5.9-2.2C83.8,321.2,76.7,321.2,75.3,320.9C74.6,319.8,76.1,321.1,75.3,320.9z"/>
	<path d="M153.4,252.6c3,2.2-0.4,7.5-2.7,5.1c-0.2-1.6-2.5-2.1-1.3-3.6C150.8,252.1,151.5,253,153.4,252.6
		C154.4,253.3,152.8,252.7,153.4,252.6z"/>
	<path d="M265.1,346.2c-1.3,2.1-5.9,6.8-6.6,1.3C259.7,345.4,263.1,343.3,265.1,346.2
		C264.1,347.8,264.4,345.2,265.1,346.2z"/>
	<path d="M401.8,215.7c-0.2,0.6-0.2,1.2,0.1,1.7c-3.4,0-6.9-2.2-10.3-1.6C390.3,211.7,400.7,215.1,401.8,215.7
		C402,216.3,399.4,214.5,401.8,215.7z"/>
	<path d="M114.1,285.5c-2.2-2.1-4.4-4.7,0.1-4.6c1.4-0.3,2.5,0.1,3.3,1.2C119.8,285,115.7,284.8,114.1,285.5
		C113,284.5,115.5,284.9,114.1,285.5z"/>
	<path d="M250.3,340.5c0,5.7-7.2,1.8-7.6-1C246.3,339.2,247.1,339.2,250.3,340.5C250.3,341.1,249.2,340.1,250.3,340.5z"
		/>
	<path d="M327.1,360c-1.5-3.8,2-4,5.1-3.8C335.6,360.5,330.3,360,327.1,360C326.4,358.2,328.3,360,327.1,360z"/>
	<path d="M266.4,325.9c1.9,1.8,2.2,7.7-1.6,5.2C261.7,329.2,262.8,326.6,266.4,325.9C267.1,326.6,265,326.2,266.4,325.9
		z"/>
	<path d="M30.5,284.3c-3,0-3.6-3.4-1.3-5.2C33.9,275.4,31.9,282.6,30.5,284.3C29.9,284.3,31.1,283.6,30.5,284.3z"/>
	<path d="M140.7,296.3c2.1-2.1,8.2,0.1,5.6,2.7C144.1,301.1,140.1,299.4,140.7,296.3
		C141.8,295.2,140.3,298.1,140.7,296.3z"/>
	<path d="M476,322.4c1,3.5-4.8,3.5-5.6,0.6C469.1,318.8,474.3,321,476,322.4C476.4,323.8,475.1,321.7,476,322.4z"/>
	<path d="M236.4,326.3c0,3.6-4,3.5-5.6,0.6C228.7,323.2,235,324.3,236.4,326.3C236.4,327,235.4,324.9,236.4,326.3z"/>
	<path d="M34.8,295.1c-2.1-1.1-3.8-3.4-0.5-4.3c2-0.6,5.5,0.7,4.2,3.3C37.2,294.2,36,294.6,34.8,295.1
		C34.3,294.8,35.9,294.2,34.8,295.1z"/>
	<path d="M339.1,329.8c1.1,0.8,7.4,1.8,4.3,4.5C340.7,333.8,333.4,332.5,339.1,329.8
		C340.5,330.7,336.8,330.9,339.1,329.8z"/>
	<path d="M442.8,338.2c-2.1-1.2-3.7-7-0.3-5.5C445.2,333.9,448,338.7,442.8,338.2C441.9,337.6,444,338.3,442.8,338.2z"
		/>
	<path d="M137.5,243c2.1-2.9,3.2-0.8,5.5,0c-1.3,1.1-1.7,2.5-1.3,4.2C139.3,247.4,137.6,245.1,137.5,243
		C137.9,242.5,137.5,243.6,137.5,243z"/>
	<path d="M225.1,165.3c2.7,2.5,2.9,7.4-2.3,5.3C220.3,168,224.7,166.7,225.1,165.3C225.9,166.1,224.7,166.6,225.1,165.3
		z"/>
	<path d="M233.9,174.6c-1.8-0.4-1.2,0.9-2.9-0.1c-2.3-1.3,0.9-1.6,1.7-2.4c-3.7-4.1,1.3-4.5,1.5-3.5
		C234.5,170.3,234.5,173,233.9,174.6C233.1,174.4,234.3,173.6,233.9,174.6z"/>
	<path d="M245.1,331.1c-1.7,2.6-5.6,2.5-6.3-1C241.4,327.9,243.3,327.9,245.1,331.1
		C244.6,331.9,244.7,330.3,245.1,331.1z"/>
	<path d="M314.6,358.8c-2.4,0-5.2-6.7-3.1-7.2c1.6-0.4,3.2-0.3,4.1,1.3c0.3-0.5-2.6,4.4-2.6,4.4
		C312.9,357,315,359.1,314.6,358.8z"/>
	<path d="M241.7,336.1c-1.5,2.5-6.1,0.5-7.3-1.3C232.9,332.6,240.8,333.1,241.7,336.1
		C241.1,337.1,241.5,335.4,241.7,336.1z"/>
	<path d="M437.8,243.7c0.1,2.2-3.7,4.9-5.6,3C429.1,243.7,435.8,242.1,437.8,243.7C437.8,244,436.1,242.3,437.8,243.7z"
		/>
	<path d="M410.1,342.5c1.7-0.2,5-0.3,5.7,2.2C416.7,348.2,406.9,346.6,410.1,342.5C410.8,342.4,409.1,343.7,410.1,342.5
		z"/>
	<path d="M124.8,271.6c1.6,0.6,3.1,1.2,4.7,1.8C127.3,280.2,121.1,274.5,124.8,271.6C126.4,272.3,124.4,272,124.8,271.6
		z"/>
	<path d="M20.2,292.8c1.2-0.6,8.1-0.7,5.3,1.7C23.3,296.5,17.9,297.4,20.2,292.8C21.8,292,19.6,294.1,20.2,292.8z"/>
	<path d="M21.9,276.9c-0.4,2-2.3,3.4-4.2,3.3C14.2,279.8,16.9,273.3,21.9,276.9C21.6,278.5,20.6,275.9,21.9,276.9z"/>
	<path d="M336.5,318.6c0.6,3.2-3,4.5-5.4,2.8C327.8,319.1,335,318.1,336.5,318.6C336.7,319.5,335,318.1,336.5,318.6z"/>
	<path d="M194.3,308.3c0,3.8-5,3.8-5.2,0.4C188.8,305,193.3,307.2,194.3,308.3C194.3,308.8,193.6,307.5,194.3,308.3z"/>
	<path d="M354.2,137.6c-2.3-3.7,3.6-2.9,5.1-1.2C364,141.3,355.9,137.4,354.2,137.6
		C353.6,136.7,354.7,137.5,354.2,137.6z"/>
	<path d="M121.7,293.2C112.6,287.8,130.5,288.3,121.7,293.2C120.8,292.7,122.5,292.8,121.7,293.2z"/>
	<path d="M488.8,292.3c1.3,0.6,7.8,3.5,3.8,5.2C490.1,298.6,487,293.8,488.8,292.3C490.9,293.4,488.3,292.8,488.8,292.3
		z"/>
	<path d="M475.9,287.6c0.8-3.6,7.6-1.7,7.1,0.3C482.3,290.3,477,288.5,475.9,287.6C476,287.1,477.4,288.9,475.9,287.6z"
		/>
	<path d="M229.5,164.1c1.5-1.4,4.8-4.8,6.1-1.5C234.1,164,230.1,169,229.5,164.1C230.3,163.4,229.8,166.3,229.5,164.1z"
		/>
	<path d="M75.6,310c0.8,2.8,1,4-2.6,3.3c-1.9-0.2-2.6-1.2-1.9-3.2C72.1,308.2,74,310,75.6,310
		C75.8,311,74.3,310,75.6,310z"/>
	<path d="M449.8,310.1c-1.1,1.9-5.2,0.4-5.6-1.5C446,304.3,449.8,306.5,449.8,310.1
		C449.3,310.8,449.8,309.3,449.8,310.1z"/>
	<path d="M326.4,319c-0.9-1.1-3.9-5,1-3.5c1.1,0.4,3.3,0,3.4,1.5C330.8,318.9,327.6,319.3,326.4,319
		C325.8,318.2,328.1,319.4,326.4,319z"/>
	<path d="M117.3,304.9C121.8,300,125.4,315.3,117.3,304.9C118.2,304,118,305.7,117.3,304.9z"/>
	<path d="M438.6,340.4c0,3.3-4.8,1.6-5.7-0.5C434.4,335.2,436.3,338.7,438.6,340.4C438.6,341.2,437.6,339.7,438.6,340.4
		z"/>
	<path d="M453,313.9c-2.2,2.7-1.1,3.7-5.1,2.1C445.1,314.4,450.5,310.9,453,313.9C452.3,314.8,451.6,312.3,453,313.9z"
		/>
	<path d="M47.6,281.6c-4.2,0.2-5.1-2.2-2.9-4.5C46.7,276.9,50.5,279.6,47.6,281.6C46.4,281.7,48.2,281.2,47.6,281.6z"/>
	<path d="M237.5,301.1c0.5,3.2-3.5,2.7-4.7,0.9C229.2,296.8,235.2,300.3,237.5,301.1
		C237.7,302.1,235.8,300.5,237.5,301.1z"/>
	<path d="M328.7,147.5c4.1,4.3-3.3,2.6-5.2,2.3C322.4,146.3,327.2,147.7,328.7,147.5C329.1,148,327.1,147.8,328.7,147.5
		z"/>
	<path d="M495.8,297c1.7-0.1,4.9,2,4.1,3.9C498.8,303.5,492.6,299.9,495.8,297C497.8,296.8,494.4,298.3,495.8,297z"/>
	<path d="M245,302c-1.8,2.9-1.1,5.1-4.8,2.9C237.2,303,242.7,300.7,245,302C244.2,303.3,243.5,301.2,245,302z"/>
	<path d="M102.6,302.1c-1.4,1.5-3.3,3.8-5,1.3C95.2,299.9,101.3,299.3,102.6,302.1C100.4,304.6,102.3,301.4,102.6,302.1
		z"/>
	<path d="M112,307.2c-1.3-4.1,5.2-0.3,6.1,0.2C118,311.1,113.2,309.2,112,307.2C111.8,306.6,112.6,308.2,112,307.2z"/>
	<path d="M137.8,300.7c-1,3.3-6,1.4-5.2-1.5C133.8,294.7,136.5,300.4,137.8,300.7C137.6,301.3,136.5,300.4,137.8,300.7z
		"/>
	<path d="M50.9,288.4c-1.5-3.1,1.6-2.5,3.2-3.2C59.8,286.7,54.5,289,50.9,288.4C50.3,287.2,52.7,288.7,50.9,288.4z"/>
	<path d="M254.1,347.3C244.8,342.5,265.3,344,254.1,347.3C253,346.8,255.6,346.9,254.1,347.3z"/>
	<path d="M278.6,321.2c-0.8,2.4-6.6,4.1-5.8,1C273.7,318.5,276.7,320.7,278.6,321.2C278.3,322.3,277.8,321,278.6,321.2z
		"/>
	<path d="M230.2,299.5c0.3,3-2.5,2.4-2.8,4.3c-0.7-0.9-2.5-2-2.1-3.4C225.8,298.4,229.2,298.3,230.2,299.5
		C230.4,300.7,229.1,298.3,230.2,299.5z"/>
	<path d="M409.4,334.1c-3-2,0.5-4.1,2.8-4.4C415.9,332.6,411.9,333.4,409.4,334.1C408.4,333.5,410.4,333.8,409.4,334.1z
		"/>
	<path d="M245.6,326.7c-3.3-2-0.8-4.7,2.3-3.6C251,325.8,248.8,326.7,245.6,326.7C244.7,326.2,246.3,326.7,245.6,326.7z
		"/>
	<path d="M372.7,142.5c1.5,3-0.8,3.5-3.1,2.6C365.3,143.3,369.7,141.5,372.7,142.5C373.2,143.6,371.4,142,372.7,142.5z"
		/>
	<path d="M398.8,171.8c-1.8,0.6-5.9,3.7-5.5-0.9C393.7,166.5,397.3,170.6,398.8,171.8
		C398.1,172.1,398,171.1,398.8,171.8z"/>
	<path d="M392.4,192.2c-1.4,0.4-2.4,0-3-1.3c-2.1-3,2-2,3.2-3.7C394.2,189.2,392.7,190.4,392.4,192.2
		C391.8,192.2,392.5,191.6,392.4,192.2z"/>
	<path d="M342.5,136.1c-2.8-0.9-1.6-4.6,0.6-5C346.7,132.7,345.4,135,342.5,136.1C342,135.9,343.6,135.7,342.5,136.1z"
		/>
	<path d="M42.9,289.3c-3.8,0-1.6-1.8-4.3-3.3C41.4,283.5,45.9,286.4,42.9,289.3C42,289.3,43.3,288.9,42.9,289.3z"/>
	<path d="M144.5,307.8c-1.5,1-6.1,2.5-5.1-1.1C140.2,303.9,144.3,305.1,144.5,307.8
		C141.6,309.6,144.4,306.4,144.5,307.8z"/>
	<path d="M240,322.1c2.1,2,4.8,2.4,0.5,4.2c-1.2,0.4-2,0-2.5-1.1C236.8,322.8,238,323.2,240,322.1
		C241,323.1,239,322.7,240,322.1z"/>
	<path d="M398.5,335.3c0,0,9.6-2.2,6,1.1C403.2,337.6,397.8,338.3,398.5,335.3C399.5,335.2,398.3,336.1,398.5,335.3z"/>
	<path d="M60.7,277c1.8,0.8,2.1,4.9-0.5,4.5c-1.2-0.2-2.4-2-3-2.8C59.2,276.5,59,278.4,60.7,277
		C61.4,277.3,60,277.6,60.7,277z"/>
	<path d="M38.5,267.3c0.1,1.5,2.3,2,0.3,3.5c-5.1,1.1-3-2.2-3.3-4.5C36.5,266.5,37.6,266.8,38.5,267.3
		C38.5,267.7,37.7,266.7,38.5,267.3z"/>
	<path d="M253.4,300.6c-1.2,2.4-3.4,0.1-4.5-0.8C247.9,296.6,253.4,296.2,253.4,300.6
		C252.9,301.6,253.4,299.6,253.4,300.6z"/>
	<path d="M111.2,310.2c1-2.4,5.6,0.3,3.9,3.6C113,315.2,111.6,311.6,111.2,310.2C111.5,309.7,111.6,311.8,111.2,310.2z"
		/>
	<path d="M259.6,324.9c-1.4,1.6-4.5,0.1-4.9-1.6C255.2,319.3,259.6,322,259.6,324.9
		C258.6,326.2,259.6,322.9,259.6,324.9z"/>
	<path d="M405.7,222.4c0,2.5-3.5,4-5.1,1.6C398.5,220.9,404.4,221.1,405.7,222.4C405.7,222.8,404.6,221.2,405.7,222.4z"
		/>
	<path d="M262.9,333.7c2.4,1.1,2.4,2.2,1.1,4.4C260.2,339,259.7,335.3,262.9,333.7C265.4,334.9,262.4,334,262.9,333.7z"
		/>
	<path d="M333.5,133.5c1.8,1.9,0.8,3.6-1.7,3.6C327.6,137.3,329.5,132.6,333.5,133.5
		C333.7,133.7,331.7,133.1,333.5,133.5z"/>
	<path d="M150.6,297.7c2.9-0.5,4.9,2.3,2.9,4.5C151.2,302.7,148.6,299.6,150.6,297.7
		C152.2,297.5,149.8,298.5,150.6,297.7z"/>
	<path d="M400.4,234.3c-0.1,3.4-4,2.9-5.8,1.4C394.5,233.3,398.8,232.7,400.4,234.3
		C400.3,236.2,399.5,233.4,400.4,234.3z"/>
	<path d="M494.1,319.1c-0.8-0.3-5.5-3.5-1.6-4.2C495.3,314.4,497.6,318.3,494.1,319.1
		C493.3,318.8,495.1,318.9,494.1,319.1z"/>
	<path d="M251,155.7c-1.3-2.2,0.1-3.4,2.5-3.2C257.2,154.1,254.9,157,251,155.7C250.6,154.9,252,156,251,155.7z"/>
	<path d="M251.1,286.5c3.5-2.4,4.3,2.8,2.1,3.6C249.5,291.7,251.5,288.1,251.1,286.5
		C251.7,286.1,251.4,287.5,251.1,286.5z"/>
	<path d="M244.2,154.2c2.2,0.3,3.7-0.1,3.8,2.6C245.6,160.7,242.5,156.7,244.2,154.2
		C245.3,154.3,243.8,154.8,244.2,154.2z"/>
	<path d="M364.3,151.6c-1.7-3.7,4.3-2.5,6.1-2C370,152.5,366.3,151.9,364.3,151.6C364.1,151.1,365.9,151.8,364.3,151.6z
		"/>
	<path d="M371.5,336c2.2,1.5,0.6,3.8-0.9,5.1C367.2,343.2,369,337.1,371.5,336C373.5,337.4,369.7,336.8,371.5,336z"/>
	<path d="M387.5,332.8c-3.4-1.8-1.5-3.1,1.3-3C395.9,330.2,387.7,332.4,387.5,332.8
		C386.9,332.5,388.2,331.5,387.5,332.8z"/>
	<path d="M361.9,141c-3-3.4,2.5-1.8,3.8-1.1c1.4,0.8,1.4,1.6,0,2.4C364.9,142.8,362.7,141.3,361.9,141
		C361.1,140,363,141.5,361.9,141z"/>
	<path d="M360.2,149.9c-1.5,0-4.7,0.1-4.7-1.7C355.5,145,363.5,146.8,360.2,149.9C359.3,149.9,360.8,149.4,360.2,149.9z
		"/>
	<path d="M254.2,146.6c0.8-2.7,5.8-1.8,4.8,1.1C258.2,150.1,254.9,148.4,254.2,146.6
		C254.5,145.6,254.6,147.6,254.2,146.6z"/>
	<path d="M25.5,282.9c-0.8,1-0.6,2,0.6,3c-0.2,1.5-2.9,1.6-3.5,0.4C21.6,284.3,23.1,280.5,25.5,282.9
		C25.3,283.4,24.3,281.7,25.5,282.9z"/>
	<path d="M256.7,137.3c2.4-0.2,3.8,0.5,3.6,3.1C258.2,142.2,254.2,139.9,256.7,137.3C259.6,137.1,256,138.1,256.7,137.3
		z"/>
	<path d="M235.7,246.2c0-2.3,2.4-2.6,4.4-1.8C243.3,245.7,238.1,248.1,235.7,246.2C235.7,244.4,237.1,247.3,235.7,246.2
		z"/>
	<path d="M383.7,152.5c-2.7-1.8-4.5-2.3-2.4-5.2C383.4,147.2,386.1,151.5,383.7,152.5
		C382.4,151.6,384.7,152.1,383.7,152.5z"/>
	<path d="M393.1,333c0.9,0.7,1.2,1.6,1,2.7c-0.7,2-3.5,0.3-4.6,0.1C387.8,335.3,391.7,332.6,393.1,333
		C393.7,333.3,392.4,332.8,393.1,333z"/>
	<path d="M435.3,306c-0.8-0.7-1.7-1.3-2.5-2c1-2.1,4.6-1.9,5.7-0.1C439.8,306.1,436,305.5,435.3,306
		C434.3,305.3,436,305.5,435.3,306z"/>
	<path d="M322.8,136.4c1.2,0.3,4.4,1.7,2.1,3.1C321.6,141.6,318.5,137.2,322.8,136.4C323.8,136.7,322,136.6,322.8,136.4
		z"/>
	<path d="M227.2,247.4c1.8-1.5,4.5-0.5,4.2,1.8C231,252,226.7,249.9,227.2,247.4C228.7,246.2,226.9,248.9,227.2,247.4z"
		/>
	<path d="M416.6,184.8c0.8,3.3-4.7,2.5-5.4,0.1C411.9,183.2,415.6,183.4,416.6,184.8
		C416.7,185.3,415.6,183.3,416.6,184.8z"/>
	<path d="M319.6,298.9c-1.1-1.5-2.1-5,1.2-4.6C324.2,294.7,321.5,298.6,319.6,298.9z"/>
	<path d="M413.4,225.6c1.6-2.4,5.5-2.4,5.4,1C417.9,228.3,414.3,226.7,413.4,225.6C413.8,225,414.6,227,413.4,225.6z"/>
	<path d="M83.2,305.4c1.6,0,6.3,1,3.1,3.7C83.8,309.9,82.1,307.3,83.2,305.4C84.2,305.4,82.7,306.3,83.2,305.4z"/>
	<path d="M362.4,341.4c-1.4,2.1-6.4,0.8-5.9-2.1C357.4,339.5,362.9,339,362.4,341.4C362,342,362.5,341,362.4,341.4z"/>
	<path d="M23.8,275.5C34.1,280.7,18.6,279.2,23.8,275.5C24.5,275.8,23,276.1,23.8,275.5z"/>
	<path d="M363.8,336.6c-2.5-0.1-6-0.4-2.2-2.9C363.4,333.6,366.7,334.6,363.8,336.6
		C362.6,336.6,364.9,335.9,363.8,336.6z"/>
	<path d="M79.1,297c2.3,2.7-0.4,2.8-2.5,3.9C73.5,299.1,77.3,297,79.1,297C79.5,297.5,77.5,297,79.1,297z"/>
	<path d="M330.7,309C332.1,317.4,321.4,303.5,330.7,309C330.8,309.9,330.2,308.7,330.7,309z"/>
	<path d="M104.6,320.8c-1,0.5-1.9,1-2.9,1.6c-0.2-0.9-1.7-3.3-0.8-4C102.7,316.9,104.3,318.6,104.6,320.8
		C103.7,321.3,104.3,318.6,104.6,320.8z"/>
	<path d="M354.2,140.7c-1,1-5,1-5.6-0.6C347.6,137.5,353.8,138.2,354.2,140.7C353.3,141.6,354.1,140.1,354.2,140.7z"/>
	<path d="M43.4,273.6c2.5,1.9-1.3,3.3-3,3.1C36.4,276.2,42.4,273.7,43.4,273.6C43.8,274,40.5,273.9,43.4,273.6z"/>
	<path d="M386.9,154.7c2-3.5,2.2-0.5,5-0.1C390,156.2,388.2,157.5,386.9,154.7C387.3,154,387.7,156.4,386.9,154.7z"/>
	<path d="M390.3,200.9C399.5,196.1,389.4,209.5,390.3,200.9C390.7,200.6,390.2,202.1,390.3,200.9z"/>
	<path d="M423.6,234.2C429,227.9,427.2,238.1,423.6,234.2C424.1,233.6,424,234.6,423.6,234.2z"/>
	<path d="M62,305.9C55.7,301.8,68.5,301.3,62,305.9C61.3,305.4,62.8,305.3,62,305.9z"/>
	<path d="M389.8,229.2C389.8,237.1,382.6,223.9,389.8,229.2C389.8,229.8,389.3,228.8,389.8,229.2z"/>
	<path d="M190.8,312.5c1.9-1.1,4-0.5,4.3,2.1C194.4,317.4,190.8,314.3,190.8,312.5C191.2,312.3,190.8,314.5,190.8,312.5
		z"/>
	<path d="M370.8,331.4C363.9,325.2,377.8,327.7,370.8,331.4C370.1,330.7,372.1,330.7,370.8,331.4z"/>
	<path d="M477.4,310.6C481,306.8,486.2,314,477.4,310.6C478,309.9,478.7,311.1,477.4,310.6z"/>
	<path d="M405.7,199.1c0.7-1.5,1.9-3.1,3.6-1.2C411.5,200.2,407.3,202,405.7,199.1C406,198.5,406.1,199.8,405.7,199.1z"
		/>
	<path d="M442.2,320.5C441.1,316.3,451.7,321.3,442.2,320.5C441.9,319.6,442.9,320.5,442.2,320.5z"/>
	<path d="M382.9,334.8c-0.7,1.6-4.5,1.8-4.9-0.1C379,333.3,382.3,332.4,382.9,334.8
		C382.5,335.6,382.6,333.6,382.9,334.8z"/>
	<path d="M470.6,292C465.4,296.6,467.4,284.9,470.6,292C469.4,293,469.8,290.1,470.6,292z"/>
	<path d="M404.6,348.5c-0.5-3.4,3.9-1.3,2.9,1.8C406,350.5,405.8,349,404.6,348.5C404.5,347.6,405.7,348.9,404.6,348.5z
		"/>
	<path d="M396.6,164.9C393.9,170.6,392.1,158.5,396.6,164.9C396.2,165.8,396,164.1,396.6,164.9z"/>
	<path d="M492.1,324.5c1.7,1.3,0.7,1.6-1,2C487.2,327.4,489.1,324.7,492.1,324.5C492.6,324.8,491.3,324.5,492.1,324.5z"
		/>
	<path d="M339.5,148.6c-1.6-2.4,1.6-2.2,3-2.2C343,148.3,341.1,149,339.5,148.6C338.7,147.5,340.1,148.8,339.5,148.6z"
		/>
	<path d="M246.9,160.5c-0.6,1.5-3.4,1.7-4.3,0.7C243.1,160.4,246,158.4,246.9,160.5
		C246.4,161.8,246.4,159.2,246.9,160.5z"/>
	<path d="M463.1,316.2c1.4-0.7,1.6,0.4,2.1,1.2C463.7,319.9,461.5,318.9,463.1,316.2C463.5,316,462.1,317.8,463.1,316.2
		z"/>
	<path d="M488.2,300.1C491.6,302.2,485.4,304.2,488.2,300.1C489.1,300.6,487.9,300.5,488.2,300.1z"/>
	<path d="M477.1,301.6c1.4,2.4-1.5,2-2.8,0.8C474.9,301.2,475.7,301.5,477.1,301.6C477.3,302,474.8,301.4,477.1,301.6z"
		/>
	<path d="M229.4,305.3C234.7,306.3,226.1,309.6,229.4,305.3C230.9,305.6,229,305.8,229.4,305.3z"/>
	<path d="M364.3,359.7c-1.6,0.4-3.2,0.2-4.8,0C361.1,359.7,362.7,359.7,364.3,359.7z"/>
	<path d="M487.9,326.8c-0.8-0.5-0.8-0.5-0.9-1.4C488,325.3,488,325.3,487.9,326.8z"/>
	<path d="M96.7,328.9c0.9-0.2,1.9-0.6,2.9,0.4C98.5,329.6,97.7,328.7,96.7,328.9z"/>
	<path d="M240.8,339.9c-0.7,0.4-1.3,0.3-1.8,0.2C239.9,339.4,239.9,339.4,240.8,339.9z"/>
	<path d="M450.1,242.2c-0.8-0.8-0.8-1.6-0.1-2.5C450.2,240.5,450.3,241.3,450.1,242.2
		C449.8,241.5,450.2,241.1,450.1,242.2z"/>
	<path d="M314.5,358.9c0.7,0,1.5,0,2.2,0C314.6,359.4,316.5,359,314.5,358.9z"/>
	<path d="M86.9,326.3c-0.7,0.1-1.5,0-2.2-0.2C86.6,325.9,85.3,326.1,86.9,326.3z"/>
	<path d="M241.1,346.9c-0.7,0.1-1-0.3-1.5-0.5C240.3,346,240.7,346.4,241.1,346.9z"/>
	<path d="M117.7,248.8C117.4,250,118,248,117.7,248.8C117.7,249,117.8,248.6,117.7,248.8z"/>
	<path d="M329.8,127.9c-0.3-0.3-0.3-0.5,0-0.8C330.1,127.4,330.1,127.6,329.8,127.9z"/>
	<path d="M175.5,215.7c0.2-0.2,0.3-0.2,0.5,0C175.8,215.9,175.7,215.9,175.5,215.7z"/>
	<path d="M405.1,197.7c0.3,0.2,0.2,0.3,0.1,0.5C405,198.1,405,197.9,405.1,197.7z"/>
	<path d="M162.1,173.7c-0.2,0.2-0.3,0.2-0.5,0C161.8,173.6,162,173.5,162.1,173.7z"/>
	<path d="M222.4,11.8c-0.2-0.2-0.3-0.3-0.1-0.6C222.6,11.3,222.5,11.5,222.4,11.8z"/>
	<path d="M238.8,345.8C238.7,345.8,238.3,344.3,238.8,345.8C238.4,345.7,238.8,345.8,238.8,345.8z"/>
	<path d="M118,247.9C118,247.8,118,247.8,118,247.9L118,247.9z"/>
	<path d="M307.1,142.3C307,142.7,306.8,142,307.1,142.3C307.1,142.4,307.1,142.3,307.1,142.3z"/>
	<path d="M86.8,326.4C87.6,326.7,86.8,326.4,86.8,326.4C86.9,326.4,86.8,326.4,86.8,326.4z"/>
	<path d="M193.6,305.5C193.8,305.6,193.8,305.6,193.6,305.5L193.6,305.5z"/>
	<path d="M238.8,345.9C239.2,346,239.1,346.1,238.8,345.9C238.9,345.9,238.8,345.9,238.8,345.9z"/>
	<path d="M14.4,265C14.4,265.1,14.4,265.1,14.4,265L14.4,265z"/>
	<path d="M318.2,356.4C318.3,356.4,318.3,356.4,318.2,356.4L318.2,356.4z"/>
	<path d="M365,359.4C364.9,359.5,364.9,359.5,365,359.4L365,359.4z"/>
	<path d="M357.9,359.8C358.1,359.8,358.1,359.8,357.9,359.8L357.9,359.8z"/>
	<path d="M279.3,115.7c0.5-2.2,1.7-2.1,3.4-2.7c2.8-1,1.4,0.8,3.1,1.6C286.7,119.2,281.2,118.6,279.3,115.7
		C279.6,114.6,280,116.7,279.3,115.7z"/>
	<path d="M340.3,105c-2.3-3.6,2-5.4,5-3.6c0.7,1.9-0.8,1.7,0.1,3.7C344.8,107.1,341.3,105.2,340.3,105
		C340,104.6,340.9,105.1,340.3,105z"/>
	<path d="M350.1,105.3c0-3.2,2.1-4.1,5.2-4C356.8,105.3,354,108.6,350.1,105.3C350.1,104.5,352.5,107.3,350.1,105.3z"/>
	<path d="M291.4,114.6c-0.3-2.5,3-5.4,5.4-3.1C300.1,114.5,293.9,116.4,291.4,114.6
		C291.3,113.8,294.1,116.5,291.4,114.6z"/>
	<path d="M272.3,116.9c-1.5,0.1-3,0.3-4.6,0.4c-2.5-1.6-0.8-3.2,0.9-3.9C271.2,112.5,275.6,114.1,272.3,116.9
		C270.8,117.1,273.3,116.1,272.3,116.9z"/>
	<path d="M306.1,116.2c-0.8-3.8,3.7-3.7,5.9-2.3C312.5,117.9,308.8,118,306.1,116.2C306,115.6,307.7,117.3,306.1,116.2z
		"/>
	<path d="M364.7,103.7c-1.9-1.4-5.3-0.7-4.5-3.8C364,97.3,367.4,99.8,364.7,103.7C363.2,102.6,366.4,101.2,364.7,103.7z
		"/>
	<path d="M218.6,93.1c0.8,3.3-3.7,3.8-5.7,2.7c-1.4-0.7-1.8-2.2-0.8-3.4C213.9,90.2,216.7,91.8,218.6,93.1
		C218.7,93.7,217,92,218.6,93.1z"/>
	<path d="M218.6,111.2c-2.9,0-7.4-2.1-2.9-4.4C218.6,105.3,221.1,109.1,218.6,111.2C217.6,111.2,220,110,218.6,111.2z"
		/>
	<path d="M367.2,264.6C367.4,264.7,367.4,264.7,367.2,264.6L367.2,264.6z"/>
	<path d="M175.8,192.1c2.7-1.9,7.9-0.8,5.3,3.6C178.2,200.4,175.8,194.1,175.8,192.1
		C176.5,191.6,175.8,193.1,175.8,192.1z"/>
	<path d="M166.4,193c2.1,0.8,5.7,2.8,2,4.8C164.5,199.9,162.7,194.9,166.4,193C167.3,193.4,164.1,194.2,166.4,193z"/>
	<path d="M173.3,197C172.8,197.6,172.8,196.5,173.3,197C173.1,197.2,173.3,197,173.3,197z"/>
	<path d="M400.9,144.7c-3.1-3.6,4-6.9,5.5-3.4C408.2,145.6,403.3,145.4,400.9,144.7C400,143.7,401.9,145,400.9,144.7z"
		/>
	<path d="M403.1,127.2c1.4,1.1,4.4,1.9,3.2,3.9c-1.3,2.2-3,1.5-4.8,0.9C395.8,129.9,401.4,128.6,403.1,127.2
		C404.4,128.2,402.1,128,403.1,127.2z"/>
	<path d="M390.9,130.8C391.2,131.2,390.6,130.9,390.9,130.8C390.9,130.9,390.7,130.9,390.9,130.8z"/>
	<path d="M184.4,158.5c-2.8-2.7-0.2-9-2-12.5c-0.6-1.2-0.6-5.6-1-7.2c-0.8-3.3,1.9-5.4,3.6-1.9
		C186,138.9,187.1,159.2,184.4,158.5C183.3,157.5,185.1,158.7,184.4,158.5z"/>
	<path d="M192.4,149.8c-2.8,4.9-3.3-3.3-3.6-4.1c-0.9-3-0.6-7.4-0.4-10.5c0.3-5.2,4.2-1.8,3.9,2
		C192.1,140.4,190.7,147.1,192.4,149.8C191.7,151,192.2,149.5,192.4,149.8z"/>
	<path d="M198.6,134.9c1,1.2,1.5,8.4-1,7.6C197,141.3,197.4,135.8,198.6,134.9C199,135.4,197.9,135.5,198.6,134.9z"/>
	<path d="M197.3,143.8c0.5-0.2,0.9,0,1.2,0.5c-0.3,0.6-0.7,0.7-1.3,0.5C197.3,144.4,197.3,144.1,197.3,143.8
		C197.8,143.7,197,144.1,197.3,143.8z"/>
	<path d="M346.1,82.4C345.9,82.4,345.9,82.4,346.1,82.4L346.1,82.4z"/>
	<path d="M215.2,62.7c-1.8,3.3-1.9,2.5-5,3.8c-0.8,0.4-4.9-1.6-5.1-2.4C207.1,63.4,214.3,61.3,215.2,62.7
		C214.8,63.6,214.9,62.2,215.2,62.7z"/>
	<path d="M213.8,70c2.9,1.7-4.1,1.6-5.3,0.9C210.2,70.1,212,69.8,213.8,70C214.3,70.3,212,69.7,213.8,70z"/>
	<path d="M206.4,70.5c-0.7-0.5-0.6-0.9-0.1-1.3C206.9,69.5,206.8,69.9,206.4,70.5z"/>
	<path d="M150.5,192.1c-0.5,0.2-0.7,0.1-0.6-0.4C150.3,191.6,150.4,191.8,150.5,192.1z"/>
	<path d="M150.9,215.3C150.8,215.5,150.8,215.5,150.9,215.3L150.9,215.3z"/>
	<path d="M327.2,77.8C326.9,78,327,77.6,327.2,77.8C327.2,77.8,327.2,77.8,327.2,77.8z"/>
	<path d="M190.8,228.5c0.4,0.5,0.4,0.8-0.1,1.1C190.3,229.3,190.4,229,190.8,228.5z"/>
</g>
</svg>
