<?xml version="1.0" encoding="utf-8"?>
<!DOCTYPE svg PUBLIC "-//W3C//DTD SVG 1.1//EN" "http://www.w3.org/Graphics/SVG/1.1/DTD/svg11.dtd">
<svg version="1.1" id="DeerDivider" xmlns="http://www.w3.org/2000/svg" width="1000" height="100" viewBox="0 0 1000 100">
<g>
	<path d="M998.4,81.9c-3.4-1.5-3.1-5.1-4.5-7.7c-2.7,2.2-1.4,6.9-5.8,8.3c-0.6-4.3-1.1-8.2-1.6-12.4
		c-2.2-0.2-4.6-0.4-7-0.5c-1.6,0-1.9,1.3-2.2,2.5c-0.5,2.6-1.2,5.3-1.4,7.9c-0.2,1.9-1.3,2.1-3.1,2.7c-0.2-4.6-0.4-8.9-0.6-13.9
		c-3.3,3.4-4.8,7.4-6.9,11c-1.9,0-1.9-1.1-1.6-2.5c1.1-4.1,2.3-8.3,3.4-12.4c0.1-0.2,0.1-0.5,0.1-0.7c-1.4-4.8,0.3-9.3,1.4-13.9
		c-4.2-2.7-9.8-2.6-12.8-7.7c5-3.8,10.9-2.9,16.3-5c-0.9-3.9-4.9-5.2-7.3-8c-2.4-2.7-5-5.2-7.6-7.8c1.3-1.5,1.8-1.6,3.1-0.2
		c1.3,1.5,2.5,3,3.7,4.4c4.7-1.4,5.2-2.6,3.4-7.8c1.8,0.6,1.8,0.6,3.5,2.4c1-0.7,2.1-1.4,3.5-2.3c0.4,1.3,0.7,2.2-0.6,3.1
		c-1.9,1.4-3.5,3-5.3,4.6c-1.8,1.6-1.9,2.3,0,4.2c1.7,1.8,3.4,3.6,5.2,5.2c0.8,0.7,2.1,1.4,3.2,1.4c2.6-0.2,5.2-0.9,8-1.4
		c0.2-4.5-1.3-8.5-2.9-12.5c3.4-0.7,2.5,2.6,4.1,3.6c1.4-0.1,2.9-0.2,4.8-0.3c-1.2,2.4-4.6,1.8-4.5,4.4c0.1,1.4,0.7,2.8,1.2,4.6
		c3.5-0.6,6.8-1.1,10.1-1.6c0.2,1.8-0.5,2.3-1.8,2.6c-3.7,0.6-7.4,1.3-11.2,1.9c-2.5,0.4-5,0.8-7.7,1.3c1.3,4.7,2.5,9.1,3.8,14
		c1.3,0.9,3.3,0.7,5.2,0.6c4.3-0.2,7.8,1.7,11,4.3c1.9,1.5,3.7,3.3,2.5,6.3c-0.2,0.4,0.4,1.1,0.4,1.7c0,1.4-0.1,2.9-0.2,4.3
		c-0.1,2.1-0.7,4.3-0.1,6.1C1000.4,79.1,999.4,80.3,998.4,81.9z"/>
	<path d="M31.4,19.4c3.6-1.4,7.2-2.9,11-4.4c-0.9-4-1.6-7.6-2.7-11c-0.7-2-0.3-2.9,1.8-4c0.5,1.6,1,3,1.5,4.6
		c2.3,1.5,4.7-1,7.1-0.4c-0.3,3.3-3.6,2.5-5.3,4.3c0.9,2.1,1.8,4.2,2.8,6.4c1.8,0,3.6,0,5.7,0c0.9-2.6,1.8-5.3,2.7-8
		c0.3,0.1,0.6,0.2,0.8,0.2c-0.5,2.4-0.9,4.8-1.5,7.7c3.1,0,5.7,0,8.4,0c-0.9,3.1-2.3,3.9-5.6,3.2c-1.4-0.3-2.9-0.6-4.3-0.6
		c-1.5,0-3,0.5-5.2,0.9c3.7,3.4,6.9,6.4,10.2,9.5c-1.9,2.1-4.1,2.7-6.2,2.5c-3-0.4-6-1.1-8.9-2.2c-1.9-0.7-3.1-0.4-4.1,1.1
		c-2.5,3.7-5.8,6.5-9.9,8.4c0,2.4,0,4.6,0,7.1c-1,0.2-1.8,0.5-2.8,0.7c-0.2-2.3-0.3-4.3-0.5-6.5c-2.3-0.1-2.9,1.6-4,2.7
		c-0.9,0.9-1.5,2-2.4,2.7c-0.4,0.3-1.3,0-2.5-0.1c1.9-2.7,3.4-4.8,4.8-6.8c-3.7-1.6-7-3.1-10.5-4.6c-0.6,2.6-1.1,5.1-1.7,7.6
		c-1.4-0.4-2.1-0.7-1.8-2.1c0.5-2.3,0.9-4.6,1.1-6.9c0.1-0.9-0.5-1.8-0.9-3.1c-1.8,1.5-3.3,2.7-4.8,3.9c-0.5,0.4-0.9,1-1.4,1.2
		c-0.7,0.2-1.8,0.4-2.2,0c-0.8-0.8,0-1.4,0.8-2c1.4-1,2.7-2.2,4-3.2c1.7-1.3,2.2-3,1.8-4.9c-1.3-5.5,3.9-9.7,8.9-9.7
		C21.8,13.5,25.8,14.8,31.4,19.4z"/>
	<path d="M84.8,73c0.2-2.4,0.4-4.3,0.6-6c-2.7-0.6-3.2,4-6.2,2.1c0.1-3,3.4-3.8,4.4-6.5c-2.9-1.5-5.9-3-9.1-4.6
		c-0.9,2.8-1.7,5.4-2.6,8.1c-0.8,0-1.6-0.1-2.8-0.1c0.8-3.3,3.3-6,2-9.6c-2.4,0.2-4.4,1.4-6.1,3.3c-1.3,1.4-2.2,1.1-3.3-0.8
		c2.6-1.8,5.2-3.6,7.9-5.5c-0.5-1.1-0.9-2-1.2-2.9c-1.6-4.1,1-8.2,5.3-7.7c3.6,0.4,7.1,1.7,10.6,2.8c2.2,0.7,4.3,1.7,6,2.4
		c3.4-1.7,6.5-3.2,10-4.9c-0.7-3.7-3.8-7.5-2-12c2.1-0.3,1.5,2,2.9,2.9c1-0.3,2.4-0.8,3.8-1c0.6-0.1,1.2,0.4,1.8,0.7
		c-0.3,0.6-0.5,1.3-1,1.7c-0.5,0.4-1.3,0.5-2,0.8c-2.3,0.9-2.4,1.4-1.5,3.9c0.8,2.4,2.2,3.3,4.7,3.1c2-0.2,4.1,0,6.1,0
		c0.6-2.4,1.1-4.4,1.8-7.1c1.3,1.8,2,2.6,1.3,4.4c-0.6,1.5-0.4,2.9,2.4,3c2,0,4,0.3,6.2,0.5c-0.8,2.2-2.3,2.2-3.7,2.2
		c-2.8,0-5.7,0-8.5,0c-1.1,0-2.1,0.1-3.8,0.3c2,3.8,6.5,4.9,7.1,9.1c-1.3,1.9-3,2.1-5.1,1.5c-2.2-0.6-4.5-1.2-6.7-1.7
		c-3.1-0.7-3.5-0.5-4.8,2.4c-1.5,3.3-3.7,5.5-7.5,5.6c-1.5,0-2.2,0.8-2.5,2.2c-0.3,1.5-0.6,2.9-0.9,4.3C87.7,71.3,87,72.5,84.8,73z"
		/>
	<path d="M212.6,99.8c-2.3-0.9-1.1-3-1.8-4.3c-0.7-1.4-1-3-1.5-4.6c-2.5,0.2-3.7,1.9-4.8,3.7c-1,1.6-1.8,3.3-3,5.4
		c-2.8-4.1,2.6-5.6,1.5-8.9c-2-0.1-4.2-0.4-6.3-0.4c-0.6,0-1.5,0.8-1.8,1.5c-0.9,1.8-1.6,3.8-2.6,6c-1,0.3-1.8-0.1-1.4-1.7
		c0.6-2.2,1.4-4.4,2.1-6.8c-1.5-0.7-2.5,0.1-3.3,1c-1.3,1.3-2.6,2.7-4,3.9c-0.5,0.4-1.3,0.5-2,0.7c-0.1-0.2-0.2-0.5-0.4-0.7
		c2-2.1,4-4.3,6.1-6.5c-0.8-1.1-1.3-1.8-1.7-2.5c-1.8-3-0.9-5.9,2.3-7.2c1.7-0.7,3.5-1.1,5.3-1.2c3.1-0.1,6.2-0.1,9.2,0.2
		c1.5,0.1,2.3-0.4,3.1-1.5c1.5-1.9,2.9-3.9,4.5-6c-3.9-3.2-8.9-5-11.2-9.8c-0.4-0.8-0.8-1.7-1.3-2.9c2.8,0.6,3.5,2.9,5.3,4.3
		c1.2-0.9,2.4-1.9,3.6-2.8c1.8,0.7,1.2,1.6,0.5,2.6c-1.7,2.4-1.7,2.4,0.7,4.1c1.7,1.2,3.4,2.5,5.2,3.5c1.1,0.6,2.5,0.9,3.8,0.1
		c1.4-0.9,3-1.6,4.6-2.4c0.1-3.1-2.1-5.3-3-7.9c2-0.5,2-0.5,3.4,1.8c0.8,1.3,1.4,2.7,2.2,4.3c2.1-1.1,3.5-3.2,6.2-2.8
		c-0.1,1.7-0.8,2.6-2.1,3.2c-2.1,1-4.1,2.1-6.1,3.3c-0.9,0.5-1.6,1.4-2.7,2.3c3,2.1,6.2,2.2,9.2,3c1.9,0.5,3.2,1.5,4.4,3.1
		c0.9,1.4,0.6,2.4-0.5,3.2c-1.8,1.2-3.8,2.1-5.9,1.3c-3.1-1.1-6.1-0.6-9,0.2c-0.8,0.2-1.8,1.1-1.9,1.8c-0.3,2.9-2,4.6-4.3,6
		c-0.3,0.2-0.5,0.5-0.8,0.8C213.1,93.4,214.3,96.5,212.6,99.8z"/>
	<path d="M583.8,40.2c2.8,1.1,5.6,2.2,8.3,3.3c-0.1,2.4-0.6,3.3-2.8,3.9c-2.8,0.8-5.7,1.5-9,2.4c0,1.3-0.1,2.6,0,3.9
		c0.5,3.9-0.7,6.8-4.7,8.2c0.1,3,1.8,5.8,0.6,8.7c-2.2-0.4-2.2-0.4-2.8-8.6c-0.9,0.9-1.7,1.4-2.1,2.1c-1,1.7-1.8,3.5-2.8,5.2
		c-0.5,0.8-1,1.8-2.6,1c0.8-2.2,1.7-4.4,2.7-6.9c-2.9-0.2-5.5-0.3-8.5-0.5c-0.5,3.2-0.9,6.1-1.4,9.1c-2.3-1.9-2.4-3-1.3-10.7
		c-1.7,0.3-2.3,1.6-3.1,2.7c-1.3,1.9-2.6,3.9-4,5.7c-0.4,0.5-1.1,0.7-2.2,0.6c1.8-3.2,3.7-6.4,5.6-9.8c-0.7-0.6-1.3-1.1-1.9-1.7
		c-2-1.9-2.1-3.6-0.4-5.8c3-3.9,7.2-4.9,11.8-4.6c2.1,0.1,4.1,0.3,5.9,0.4c2.1-2.8,4-5.4,6-8c-0.9-1.8-3-2.2-4.5-3.3
		c-1.3-0.9-2.5-1.9-3.6-3.1c-0.4-0.5-0.3-1.5-0.6-3c1.6,1.1,2.5,1.7,3.5,2.4c2.2-1.3,4.3-2.6,6.7-4c0.5,3.3-3.4,3.2-3.7,5.7
		c3.7,4.8,7.9,3.8,12.6,1.1c0-1.8,0-3.7,0-5.6c0.2-0.1,0.3-0.1,0.5-0.2c0.8,1.7,1.7,3.3,2.6,5.1c1.9-0.5,3.6-1,5.5-1.5
		c0,2.1-1.3,2.6-2.8,2.9c-2.6,0.6-5.2,1.4-7.7,2C583.8,39.6,583.8,39.9,583.8,40.2z"/>
	<path d="M877.6,54c2.1-1.3,4-2.4,6.5-4c-0.1,1.7-0.2,2.8-0.2,3.8c-4.7,0.9-7.9,3.7-11.6,6.3c3.2,2.7,8.1,0.8,10.7,4.5
		c-0.4,2.2-2.1,2.7-4,3c-2,0.3-4,0.8-6.3,1.3c0,2.4,0.2,4.5-0.1,6.5c-0.3,2.2,0.1,4.8-2.8,5.9c-0.4,0.1-0.5,1.5-0.4,2.2
		c0.3,2,0.7,4,1.2,6.5c-4-1-2.1-5.2-5-6.8c-0.9,1.8-1.9,3.4-2.6,5.2c-0.6,1.7-0.3,3.9-3.2,4.7c0.6-3.1,1.1-5.9,1.6-9
		c-3.9,0.2-7.7,0.4-11.5,0.6c-0.9,3.1,0.9,5.6,1.3,8.8c-0.7-0.4-1.6-0.6-1.7-1.1c-0.9-2.5-1.5-5.1-2.6-8.5c-1.9,3.1-3.3,5.4-4.7,7.7
		c-1.8-1.8-1.8-1.8,2.2-7.4c-0.9-0.7-1.8-1.4-2.7-2.1c-2.6-2-2.8-4.9-0.2-6.8c1.8-1.3,4.1-2.4,6.3-2.9c4.6-1.1,9.3-1.8,13.9-2.7
		c2-2.9,4-5.7,6.1-8.8c-3.3-2.5-8-3.6-11-7.6c2.3-1,3.1,1,4.8,1.4c0.8-1.3,0.3-4.1,3.6-3.6c-0.7,1.5-1.3,2.9-2,4.5
		c2.2,1.2,4.4,2.4,6.7,3.6c1.2-0.9,2.3-1.8,3.5-2.6c2.2-1.5,2.4-2,1.2-4.5c-0.5-1.1-1-2.2-1.9-4.1c1.2,0.6,1.9,0.7,2.2,1.1
		C875.8,50.6,876.6,52.2,877.6,54z"/>
	<path d="M507,39.2c1.9,1.3,3.3,2.3,4.4,3.1c1.8-1.1,3.3-2.1,4.9-3c0.2,0.2,0.4,0.5,0.6,0.7c-0.5,0.5-0.8,1.2-1.4,1.6
		c-1.2,0.8-1.1,2-0.6,3c0.7,1.7,4.7,3,6.4,2.3c0.3-0.1,0.6-0.4,1-0.5c1.9-0.9,3.7-1.8,5.8-2.9c-0.3-1.9-0.5-3.7-0.8-5.9
		c2.7,0.7,2.4,3.2,3.8,4.5c1.3-0.4,2.6-0.9,4.3-1.5c-0.1,2.1-1.4,2.8-2.8,3.4c-2.7,1.1-5.4,2.3-8.1,3.5c-0.5,0.2-1,0.6-1.8,1.1
		c3.3,2.2,7.7,1.8,9.9,5.6c-2.7,2.7-6.1,3.4-9.5,4.1c-3.2,0.7-3.3,0.7-3.8,3.9c-0.3,1.9-0.5,4-1.4,5.6c-1.2,2.2-0.7,3.9,0.2,5.9
		c0.6,1.5,1,3.2,1.2,4.9c0.1,0.5-0.9,1.1-1.5,1.8c-1.8-2.9-1.2-6.4-4.2-8.7c-1.1,2-2.1,3.7-2.9,5.5c-0.7,1.7-0.5,3.9-3.1,4.5
		c-1-1.3-1.2-2.5-0.5-4c0.6-1.3,1-2.7,1.6-4.4c-1.8,0-3.1,0-4.7,0c0,2.7,0,5.4,0,8.1c-2.9,0.3-2.3-1.8-2.5-3.1
		c-0.2-1.5-0.3-3-0.5-4.9c-0.8-0.6-1.8-0.5-2.7,0.8c-1.2,2-2.5,3.9-3.8,5.9c-1.2-0.1-1.8-0.6-1.2-1.9c0.9-1.9,1.9-3.7,3-5.8
		c-0.7-0.8-1.4-1.6-2.2-2.3c-2.1-2.2-2.1-4.4,0.2-6.3c3.1-2.6,6.9-3.8,10.8-4c2.7-0.1,4.2-0.9,5.3-3.4c1.4-3,3.4-5.6,5.4-8.8
		c-1.8-1.1-3.5-2.2-5.2-3.3C508.8,43.3,506.9,42.3,507,39.2z"/>
	<path d="M351.5,49.1c-0.6-2.3-1-4.1-1.5-6.1c3.4-0.3,2.3,3.6,4.7,4.4c1.2-0.7,2.6-1.4,4-2.2c0.2,0.2,0.4,0.5,0.6,0.7
		c-0.7,0.9-1.2,2-2.1,2.5c-2.3,1.4-4.7,2.5-7,3.8c-1.1,0.7-2.1,1.6-3.4,2.6c3.2,2.8,7.6,1.4,10.7,4.1c-2.1,5.2-6.9,4.2-11.2,5.6
		c-0.2,0.9-1,2.2-0.9,3.4c0.2,2.9-1.2,4.7-3.6,5.9c-0.4,3.3,3,5.8,1.6,9.4c-2.5-2.1-2.6-5.3-4.6-8.1c-1.3,1.9-2.5,3.8-3.6,5.6
		c-0.2,0.3-0.1,0.9-0.3,1c-0.7,0.4-1.4,0.6-2.1,0.8c0-0.6-0.3-1.3-0.1-1.9c0.5-1.2,1.2-2.4,1.9-3.7c-3.4,0-6.8,0-10.2,0
		c-1,2.8,1.9,5.6,0.2,8.9c-2-2.9-1.8-6.1-3-9.1c-3.2,1.9-3.5,6.3-6.5,8.4c-0.2-0.2-0.5-0.3-0.7-0.5c1.6-2.8,3.1-5.7,4.8-8.7
		c-0.8-0.6-1.6-1.1-2.4-1.7c-2.5-1.9-2.5-4.9-0.1-6.9c2.6-2.2,5.8-2.5,8.9-3c2.5-0.4,5.1-0.5,7.6,0.3c0.6,0.2,1.9,0,2.3-0.5
		c2.2-2.6,4.2-5.4,6.3-8.3c-2.8-3.6-7.9-4.2-10.8-7.8c0.2-0.3,0.3-0.6,0.5-0.8c1.4,0.5,2.8,1,4.5,1.6c1.4-1,1.4-4.3,4.7-3.8
		c-0.4,0.8-0.7,1.5-1,2.2c-1.2,2.4-1,3.2,1.1,4.5c2.1,1.3,4.1,1.9,6.3-0.2C348.1,50.5,349.9,50,351.5,49.1z"/>
	<path d="M144.5,93.2c-0.4-4,0.8-7.7-0.9-11.8c-1.4,1.4-2.5,2.5-3.6,3.6c-0.9,0.8-1.8,1.8-2.8,2.4
		c-1,0.6-2.2,0.6-2.4-0.7c2.1-2.3,4-4.4,6.3-6.8c-2-1-3.7-1.9-5.5-2.7c-1-0.4-1.8,0-2.2,1.1c-0.5,1.6-1.1,3.3-1.8,4.8
		c-0.5,1.1-1.5,1.7-2.6,0.3c1.1-2.9,2.2-5.8,3.4-9.1c-4.3-0.9-6.9,3.6-11.1,3.1c2-3.3,5.9-3.2,8.1-5.5c-1.9-5.4,0.3-6.6,4.9-6.5
		c1.6,0,3.3,0.6,4.9,1.2c1.3,0.4,2.4,1.2,3.7,1.7c2,0.7,3.8,0.5,5.4-1c1.8-1.7,3.6-3.3,5.8-5.2c-0.9-1.5-1.9-3.1-2.8-4.8
		c-1.1-2.3-2.2-4.7-3.1-7.1c-0.3-0.7,0.3-1.7,1.1-2.6c0.7,1.3,1.4,2.6,2.1,4c2.2-0.4,4-1.9,6.2-0.7c-0.7,2.7-4.4,1.1-5.2,3.8
		c0.3,0.6,0.6,1.4,1,2.1c3.2,5.7,3.8,6,10.9,4.7c0-2.1,0-4.2,0-6.7c3.6,1.4,1.2,4.7,2.9,6.7c1.7,0.1,3.6,0.2,5.9,0.3
		c-0.9,1.4-1.4,1.9-2.9,1.9c-3.3-0.1-6.7,0.2-10,0.4c-0.1,0.3-0.2,0.5-0.3,0.8c2.5,2.5,5.1,5,7.6,7.4c-1.9,2.7-3.7,4.2-6.7,3.2
		c-1.3-0.4-2.7-0.4-4-0.5c-1.7-0.1-3.3-0.1-3.9,2.4c-0.2,1-1.9,1.8-3,2.3c-1.9,0.8-2.7,1.9-2.5,3.9c0.2,2,0.2,4,0,5.9
		C147.2,91.1,147.3,93.2,144.5,93.2z"/>
	<path d="M690.1,59.5c1.9-2.1,3.6-4,5.4-5.9c-1.6-3.5-6.1-4.4-8-7.7c0.2-0.2,0.4-0.5,0.6-0.7c1.4,0.8,2.8,1.6,4.3,2.5
		c2-2,3.6-4.7,7.7-3.5c-2.1,1.6-3.9,3-6,4.6c0.8,0.8,1.4,1.4,1.9,2.1c1.5,2,3.2,3.1,5.6,1.3c0.1-0.1,0.2-0.1,0.3-0.1
		c5.4-1.5,5.4-1.5,3.8-7.1c1.6-0.3,1.6-0.3,3.8,5.5c1.7-0.4,3.4-1.5,5.3-1c0.1,0.3,0.1,0.5,0.2,0.8c-4.2,1.3-8.3,2.6-12.5,3.9
		c0,0.3,0,0.5,0,0.8c1.8,0.7,3.5,1.6,5.3,2.1c2,0.6,3.5,1.6,4.2,3.8c-1.8,2.3-4,2.9-6.7,2.4c-1.3-0.3-2.7-0.2-4-0.2
		c-1.3,0-1.9,0.6-2.5,1.8c-1.1,2.3-2.6,4.4-3.8,6.7c-0.4,0.9-0.6,2.1-0.4,3c0.3,1.5,1.3,2.9,1.6,4.5c0.3,1.2,1.2,2.9-1.2,3.9
		c-0.6-1.7-1.2-3.3-1.7-4.8c-0.2-0.6-0.2-1.3-0.5-1.8c-0.6-1.3-0.5-3.4-2.3-3.3c-1,0-2,1.5-2.9,2.4c-0.8,0.8-1.5,1.7-2.1,2.6
		c-1,1.4-1.8,0.7-3-0.2c1.3-1.5,2.4-2.8,3.8-4.5c-2.5-0.5-4.7-1-6.8-1.4c-1.5,2.9,0.3,6.8-3.3,9.2c0.2-3.6,0.3-6.8,0.4-10.1
		c-5-0.7-6.6,4.8-11.1,5.3c1.1-2.3,2.7-3.5,4.3-4.7c1.8-1.4,2.8-2.8,1.7-5.3c-1.2-2.9,0.8-6.1,4.1-6.7c4.4-0.9,8.7,0.3,13,0.2
		C689.3,59.5,689.6,59.5,690.1,59.5z"/>
	<path d="M442.1,74.5c-1.8,2.7,0.8,6.1-2.3,8.3c-2.5-2.3-0.9-5-1-8c-2,2-3.6,3.9-4.7,6.1c-0.7,1.5-1.4,1.4-2.8,0.6
		c1.8-2.9,3.5-5.7,5.1-8.4c-4.7-4.3-3-7.4,1.8-8.5c3.8-0.9,7.6-1.8,11.4-2.5c1.2-0.2,2-0.6,2.6-1.7c1.1-2.2,2.3-4.3,3.6-6.7
		c-2.4-2.8-6.9-3.5-8.6-7.6c1.5,0.6,2.9,1.1,4.4,1.7c3.4-3.8,3.4-3.8,6.2-4.5c0.4,3.1-3.9,3.1-3.5,6c3,3.2,4.7,3.4,8.7,1.4
		c1.6-0.8,3.3-1.5,4.8-2.2c0.4-2.2-2.5-3.2-1.3-5.4c2.6,0,2,3.4,4.3,3.7c1-0.5,2.3-1.2,3.6-1.8c0.2,0.2,0.4,0.3,0.6,0.5
		c-0.3,0.6-0.5,1.5-1,1.8c-2.1,1.2-4.3,2.2-6.5,3.4c-0.9,0.5-1.8,1.1-3.4,2.1c3.6,1.4,6.5,2.5,9.5,3.6c-1.4,3.4-4,4.6-6.8,5.3
		c-0.7,0.2-1.4,0.3-2.2,0.3c-2.1,0.2-3.1,1.4-3,3.4c0.1,2.5-0.7,4.3-3.1,5.3c-1.5,0.6-1.5,1.8-1.1,3.1c0.5,1.4,1.1,2.7,1.5,4.1
		c0.4,1.2,0.4,2.6,0.7,4.1c-3-0.5-2.1-3.1-3.1-4.4c-0.9-1.3-1.4-3-2.3-4.8c-2,2.7-3.6,5.4-4.6,8.4c-0.3,0.8-0.5,1.7-1,2.2
		c-0.4,0.4-1.2,0.4-1.9,0.6c-0.1-0.7-0.4-1.4-0.2-2c1-2.7,2.1-5.4,3.3-8.5C446.9,73.9,444.5,74.2,442.1,74.5z"/>
	<path d="M272.3,55c-0.7,0.8-1.4,1.7-2.4,2.9c3.2,1.7,6.2,3.5,9.3,4.9c0.9,0.4,2.4,0,3.4-0.4c1.1-0.4,2-1.3,3.3-2.2
		c-0.9-0.7-1.7-1.2-2.3-1.9c-0.4-0.6-0.6-1.4-0.8-2.1c0.2-0.2,0.4-0.4,0.7-0.6c0.8,0.6,1.8,1,2.5,1.7c1.4,1.7,2.9,1.6,4.6,0.7
		c1.5-0.8,2.9-1.7,4.6-2.6c0.6,2.1-0.4,2.8-1.9,3.6c-2.8,1.4-5.5,3-8.9,4.9c3.2,1.5,5.8,2.8,8.8,4.2c-2.9,4.7-8.1,3.2-11.6,5.3
		c-0.8,3.2-1.6,6.3-2.7,10.3c0.5,1.9,3.7,3.7,3.7,7.7c-3.2-2-4.5-4.9-6.8-7.5c-0.9,1.6-1.9,3-2.6,4.5c-0.7,1.5,0.1,3.4-1.3,5.1
		c-1.9-2.6-0.8-4.8-0.3-7.4c-2.5,0.3-4.8,0.6-7.6,0.9c0,3.1,0,5.9,0,9.6c-3.7-3.1-0.7-7.5-3.3-10.3c-2.7,2.4-3.4,5.7-5,9.1
		c-1.8-3.9,2.3-6.3,1.6-9.6c-1.2-0.6-2.6-1.2-4.1-1.9c0-3,0.9-5.5,3.6-7c4.5-2.5,9.2-3.9,13.9-4c2.6-2.6,4.9-4.9,7.3-7.4
		c-0.5-0.4-1.1-0.9-1.8-1.3c-3.5-2.2-7-4.3-10.6-6.4c-1.3-0.7-2.7-1.3-3.9-2.1c-1.1-0.7-2.4-1.4-1.6-3.6c1.9,1.1,3.8,1.9,5.3,3.2
		c1.8,1.4,3.2,1.6,4.8-0.1c0.3-0.3,0.8-0.5,1.2-0.7C271.8,54.5,272,54.8,272.3,55z"/>
	<path d="M803.1,65.7c-2.6-2.7-5.9-4.3-9.1-6.1c-2.2-1.3-2.2-1.2-3.4-4.1c2.3-1,2.8,2,4.7,2.1c1.1-1,2.3-2.1,3.7-3.4
		c1.1,2.3-1.3,3.3-1.1,5.5c2.2,1.5,4.7,3.2,7.3,5c2.3-2.1,4.4-4,6.8-6.2c-1.7-1.4-3.3-2.7-5.1-4.1c1.9-0.9,1.9-0.9,6.6,2.1
		c2.5,0.3,3.1-3.6,6.2-2.8c-0.6,2-1.6,3.1-3.5,4.1c-2.9,1.6-5.2,4.4-8.1,7c3.9,1.7,8.3,0.1,11.2,3.2c-0.5,1.4-0.9,2.4-2.5,2.9
		c-2.9,0.9-5.5,2.5-8.5,4c0.4,4.1,0.2,8-4.7,9.9c1.1,2.5,1.9,4.7,2.9,6.7c0.8,1.5,1.4,2.8,0.3,5c-2.6-3.4-4-7.1-5.7-10.8
		c-2,2.1-2.7,4.7-3.8,7.1c-0.6,1.4-0.6,1.5-2.8,1.3c0.8-2.3,1.7-4.5,2.6-7.1c-2.6-0.2-5.2-0.5-7.7-0.7c-1,2.6-1.2,5-0.7,7.5
		c0.3,1.2,0.6,2.5-1.5,2.7c-1.5-3.6-0.7-7.2-0.1-11c-2.9,0.6-3.8,3.3-5.8,4.4c-1.8,1-1,5-5.1,4.1c2-4,5.6-6.2,7.3-9.6
		c-0.6-1.2-1.6-2.3-1.6-3.4c0-0.9,0.9-1.9,1.6-2.7c1.5-1.8,3.6-2.5,5.8-2.8c2.4-0.4,4.8-0.6,7.2-1.1c1-0.2,2.2-0.7,2.7-1.5
		C800.7,70.4,801.8,68,803.1,65.7z"/>
	<path d="M637.1,43.4c-2.7-1.6-5.6-3.4-8.9-5.5c2.4-1.5,3.3,1.2,5.2,0.4c0.8-1.4,1.8-3.2,4.3-3.2
		c0.5,1.4-0.5,1.7-1.2,2.4c-1.7,1.7-1.5,2.3,0.3,3.8c2.2,1.7,4.2,2,6.6,0.4c1.3-0.9,2.8-1.5,4.4-2.4c-0.3-1.6-0.6-3.3-0.9-5.2
		c2.5,0.7,2.4,2.8,3.4,4.6c1.9-0.6,3.9-1.3,5.9-2c0.7,1.2,0.2,1.6-0.8,1.9c-3.8,1.4-7.5,2.8-11.2,4.3c-0.7,0.3-1.3,1-2.3,1.8
		c3.4,1.2,6.4,2.3,9.6,3.4c-0.8,1.9-1.8,2.7-3.4,2.8c-1.3,0.1-2.7,0.9-3.9,0.6c-4.9-0.9-6,2.5-7.2,5.9c-0.3,0.9-0.4,2.1-1,2.8
		c-2,2.2-0.9,4,0.4,5.9c1,1.4,2,2.8,3,4.2c0.6,0.9,0.8,1.7-0.4,2.8c-2.2-3-4.4-5.9-7-9.4c-0.8,1.3-1.3,2-1.7,2.8
		c-0.8,2.3-1.5,4.7-2.4,6.9c-0.2,0.6-0.9,1-1.7,1.8c-1.2-3.8,1.3-6.4,1.4-9.6c-2.9,0-5.9,0-9.3,0c0,1-0.1,2.3-0.2,3.5
		c-0.1,1.1,0.5,2.7-2,2.8c-0.4-2.6-0.7-5.2-1.1-7.7c-1.8-1.1-2.6,0.4-3.5,1.3c-0.9,1-1.6,2.2-2.4,3.3c-0.7,1-1.5,2-3.5,1.3
		c0.8-3.4,5-4.5,5.6-8c-0.1-0.2-0.2-0.6-0.5-0.9c-2.9-2.8-2.5-5.4,1.4-6.7c2.7-0.9,5.7-1.1,8.6-1.5c1.7-0.2,3.4,0,5.2,0
		c1.8,0,3.1-0.6,4.3-2.2C632.4,48.2,634.8,45.9,637.1,43.4z"/>
	<path d="M745.5,57.5c1.6-0.4,2.2-2.8,4.4-1.6c-0.9,1.3-1.6,2.5-2.6,3.9c2.3,1.7,4.5,3.3,6.6,4.9
		c1.4-0.9,2.5-1.7,3.7-2.4c2.7-1.7,2.7-1.6,1.8-4.5c-0.3-1-0.4-2.1-0.7-3.4c3,0.5,1.7,3.8,4.4,4.5c0.8-0.4,2.3-1,3.9-1.7
		c0.8,2.2-0.7,2.8-2,3.4c-1.8,0.8-3.6,1.6-5.3,2.5c-1,0.6-1.7,1.5-2.5,2.3c3.7,1.7,7,3.2,10.4,4.7c-0.9,2.3-2.1,3.1-4.1,3.1
		c-1.9,0.1-3.9,0.4-5.8,0.6c-1.9,0.2-3.2,1.3-3.7,3.2c-0.8,2.8-2.2,4.9-5.3,6c1.2,3,2.3,5.8,3.4,8.6c-0.2,0.2-0.3,0.4-0.5,0.5
		c-0.6-0.4-1.4-0.6-1.7-1.1c-1.4-2.6-2.7-5.2-4-7.9c-1.9-0.5-3.1,0.6-3.9,2.3c-0.6,1.2-0.8,2.6-1.4,3.8c-0.5,1-0.4,2.6-2.6,2.5
		c0.3-1.4,0.5-2.8,1-4.1c0.5-1.3,1.3-2.5,2-3.9c-2.5-0.5-4.7-0.9-6.9-1.3c-1.7,1.8-0.8,4.9-3.6,6.5c0.3-2.7,0.6-5.1,0.9-7.7
		c-4.5,0-6.3,4.2-9.5,5.6c-0.2-0.3-0.4-0.6-0.6-0.8c2.2-2,4.3-3.9,6.5-5.9c-0.4-0.5-0.6-0.8-0.8-1.1c-0.8-1-2.3-2-2.2-3
		c0.1-1.8,1.2-3.5,3.3-4c1.8-0.4,3.6-0.8,5.4-0.8c3.4,0,6.9-0.5,10.2,0.9c1.3,0.5,2.6,0,3.6-1.2c1.4-1.7,2.9-3.3,4.4-5
		c-2.7-3.8-8.4-4.4-9.9-9.4c0.2-0.3,0.4-0.5,0.6-0.8C743.3,56.2,744.4,56.8,745.5,57.5z"/>
	<path d="M392,65.3c1.9-3.3,3.7-6.5,5.3-9.3c-3.8-3.1-8.1-5-10.7-9c0.2-0.3,0.4-0.5,0.6-0.8c1.4,0.9,2.8,1.7,4.1,2.6
		c2.1-0.4,2.9-3.5,5.8-2.5c-1.1,1.3-2.1,2.5-3.5,4c2.1,1.5,4,3.1,6.2,4.2c0.9,0.5,2.4,0.1,3.5-0.3c1.6-0.5,3.1-1.3,4.7-2
		c-0.9-1.7-1.7-3.4-2.6-5.1c0.2-0.2,0.4-0.3,0.6-0.5c0.7,0.7,1.3,1.4,2,2.1c1.9,2.3,2,2.3,4.9,1.2c0.5-0.2,1.1-0.1,2.4-0.3
		c-2.1,4.1-6.6,3.2-9.2,6.1c2.8,1.4,5.5,2.7,8.3,4.1c-0.4,2.2-1.1,3.3-3.4,3.4c-2.4,0.1-4.8,0.8-7.1,1.5c-2.8,0.8-3.5,1.6-3.4,4.4
		c0,1.9-0.2,3.6-1.3,5.2c-0.4,0.6-0.3,1.8-0.1,2.8c0.2,1.4,0.6,2.8,0.9,4.7c-3.7-1-2.5-4.7-4.6-6.3c-3.3,1.8-2.5,6.3-5.4,8.9
		c-1.3-3.1,1.2-5.2,1.2-7.9c-2.5,0-4.9,0-7.5,0c-0.3,1.8-0.5,3.4-0.7,5.3c-1.5-0.5-2-1.4-1.8-2.6c0.1-1,0.5-2,0.7-3.1
		c-2-1-3.3-0.7-4.4,0.9c-0.7,1.1-1.6,2.2-2.5,3.1c-0.3,0.3-1,0.2-2.3,0.3c1.6-2.2,2.7-3.8,3.7-5.1c-0.9-1.6-2.1-2.8-2.4-4.2
		c-0.5-3,1.2-4.9,4.9-5.8c3.8-1,7.7-1.7,11.6-0.3C390.7,65.3,391.2,65.2,392,65.3z"/>
	<path d="M925.3,50c-4.2-2.5-8.7-5.1-13.3-7.7c0.3-1.4,1-1.5,2.1-0.9c1.8,1,3.7,1.8,5.4,2.6c1.5-1.1,0.3-3.6,3.2-4
		c-0.7,1.8-1.3,3.3-1.9,4.9c1.9,1.1,3.7,2.3,5.7,3.2c3.2,1.6,7.4-1.3,7.2-4.8c0-0.6,0-1.2,0-1.9c0-0.2,0.2-0.4,0.4-0.8
		c0.8,1.3,1.5,2.6,2.3,4c1.3-0.5,2.5-1.1,3.9-1.6c0.7,1.9-0.5,2.4-1.6,2.9c-1.9,0.9-3.8,1.7-5.7,2.7c-1.1,0.6-2.1,1.4-3.5,2.4
		c4.1,1.7,7.6,3.2,11.2,4.6c-0.7,2.5-2.2,2.9-4,3c-2.8,0.2-5.5,0.5-8.4,0.7c-1.1,4-2.2,7.8-3.3,11.8c0.9,2.2,1.9,4.6,2.9,7.2
		c-3.6-0.2-3.1-4.1-5.8-5.7c-0.7,3.1-1.4,5.9-2.1,8.9c-2.4-0.9-1.2-2.5-1-3.9c0.2-1.4,0.3-2.9,0.5-4.8c-2.7,0.2-5.2,0.4-7.6,0.5
		c-1.7,3.3,1.3,6.5-0.1,10c-3.2-2.4-1.7-6.3-3.9-9.1c-0.9,2.1-1.7,3.9-2.6,5.7c-0.2,0.5-1.2,0.5-1.8,0.8c-0.1-0.6-0.5-1.4-0.3-1.9
		c1.1-2.4,2.4-4.8,3.7-7.3c-0.8-0.3-1.7-0.5-2.4-0.9c-2.2-1-2.8-3-1.1-4.7c1.2-1.2,2.7-2.2,4.3-2.8c3.5-1.1,7-1.9,10.3-2.8
		C920.5,57.1,922.8,53.7,925.3,50z"/>
</g>
</svg>
