<?xml version="1.0" encoding="utf-8"?>
<!DOCTYPE svg PUBLIC "-//W3C//DTD SVG 1.1//EN" "http://www.w3.org/Graphics/SVG/1.1/DTD/svg11.dtd">
<svg version="1.1" id="FoxAuthor" xmlns="http://www.w3.org/2000/svg" width="1000" height="540" viewBox="0 0 1000 540">
<g>
	<path d="M524.7,514.1c5.9,3,11.6,6.4,17.7,9.1c12.8,5.5,19.1,2.5,23-10.8c2.5-8.7,4.5-17.5,7.1-26.1
		c1-3.4,3.1-6.5,4.8-10c5.8-1,11.7,0.4,17.2-2.9c8.7-5.3,18.3-9.1,27.5-13.6c17.7-8.7,36.4-12.5,56.1-10.9
		c9.6,0.8,19.2,1.6,28.8,2.9c15.2,2,30.1,1.6,44.6-3.8c2.3-0.8,4.6-1.8,6.9-2c28.5-2.4,52.5-16.7,77.2-29.3
		c4.2-2.2,7.9-5.4,11.8-8.3c13.6-10.3,20-23.3,17.1-40.8c-1.6-10-1.2-20.4-1.4-30.7c0-2.1,0.9-4.3,1.4-6.7c1.7,0.9,3.4,1.3,3.5,1.9
		c0.8,8.4,1.4,16.7,2.2,26c4.7-5.3,5.3-10.9,4.8-16.7c-1.5-16.7-2.4-33.5-10.1-49.2c-7.6-15.4-9.8-32.1-9-49.3
		c0.6-12.7,4.9-23.4,15-31.6c2.3-1.8,4.4-4,6.3-6.3c3-3.6,3.3-7.7,1.6-11.9c-3-7.4-7.3-13.7-14.1-18.3c-1.9-1.3-2.6-4.4-4.8-8.6
		c13.4,1.3,24.5,2.5,36.5,3.7c-3.3-11-16.8-8-19.9-16.8c2.3-5.1,6.4-3.3,9.7-3.9c3.5-0.5,7.1-0.9,11-1.4
		c-5.5-7.2-11.5-11.3-20.6-16.9c-8.4-5.1-17.7-2.5-27.7-5c4-5.3,9.8-4.3,14-6.5c4.7-2.5,9.8-4.3,15-6.5c-0.5-2-0.5-4.1-1.5-5.2
		c-1.1-1.2-3.1-2.1-4.7-2.2c-35.2-3.4-69.9-3.7-102.5,13.2c-16.2,8.4-26.4,17.4-36.6,34.4c5.7,10.2,15.3,16.3,25,22.3
		c7.2,4.4,14.5,8.5,21.7,13.1c6.2,3.9,11.1,9,13.7,17.1c-2.2,0.2-4.5,1.1-5.1,0.4c-8.7-8.6-19.3-14.5-30-20
		c-13.1-6.7-24.1-15.6-33.8-26.7c-14.7-16.8-30-33.1-45.4-49.2c-13.2-13.8-22-30.1-28.1-48c-3.3-9.6-6.3-19.3-10.2-31.6
		c-3.6,8.2-6.1,14-8.6,19.7c-2.7,6-5.6,12-8.4,18c-1.6,3.2-2.8,6.8-5,9.6c-1.8,2.4-4.7,3.8-8.6,0.5c3-5.4,6.2-11,9-16.8
		c3-5.9,5.8-12,8.2-18.1c2.4-6.2,4.5-12.5,6.4-18.8c1.9-6,2.2-12.8,8.4-18.7c2,3.3,3.6,5,4.2,7c2.4,7.4,4.4,15,6.7,22.5
		c2.6,8.7,4.7,17.5,7.9,25.9c6.5,16.9,14.4,33,27.7,46.1c12.4,12.2,23.9,25.3,35.2,37.3c5.9,0.1,6.9-4.1,9.2-6.6
		c26.9-29,60.5-42.8,99.6-44.5c18.2-0.8,36.1,1.7,54,3.7c14.7,1.6,27.5,8.5,40.5,15c24.6,12.3,42.9,30.9,55.7,55
		c2.5,4.8,4.9,9.8,6.3,14.9c4.1,14.8,1.9,28.7-8,40.9c-2.7,3.3-5.3,6.6-8.2,9.7c-12.7,13.7-17.3,30-15.5,48.3
		c0.3,2.8,0.1,5.6,0.1,10.2c-14-6.1-26.7-11.3-39-17.1c-7.7-3.7-10.5-11.5-12.4-19.1c-1.6-6.4-2.2-13.1-3-19.6
		c-0.3-2.4,0.1-4.8-0.1-7.2c-0.6-5.5-1.5-11.6-7.6-13.2c-7-1.9-14.3-2-20.2,3.9c-5.3,5.3-8.7,11.6-8.9,19.2
		c-0.4,15.6-0.9,31.2,6.2,46c7.9,16.5,12,34.1,11.9,52.5c-0.1,8.4-1.5,16.7-2.6,25.1c-0.4,3.6-2.1,7.1-2.2,10.6
		c-0.6,24.8-16.5,38.9-35.4,50.8c-8.1,5.1-16.4,10-24.8,14.6c-6.3,3.5-12.7,7.2-19.5,9.4c-14.9,4.7-30,8.8-45.2,12.4
		c-14.2,3.4-28.5,3.2-43.1,2.1c-18-1.4-36.2-2.4-54.2-0.9c-22.8,1.9-42.8,12.1-60,27.1c-10.8,9.5-21,19.3-26.4,33.7
		c-4.3,11.5-14.9,15.5-26.9,11.5c-6.1-2-11.7-5.9-17.3-9.3c-4.1-2.5-2.3-6.3-1.2-9.7C525.1,513.8,524.7,514.1,524.7,514.1z
		 M944,274.7c1.2-4.1,2-6.4,2.5-8.6c3.1-13.1,8.2-25,17.4-35.2c4.8-5.3,7.6-12.3,12-18c6.7-8.6,6.5-17.8,3.6-27.4
		c-1.2-4-2.7-8-4.5-11.8c-16.2-34.6-45.1-53.7-80.3-65c-1-0.3-2.3,0.4-3.9,0.7c0.2,1.6,0.2,3.3,0.6,4.8c2.2,8.7,2.2,8.6-6.4,9.7
		c-1,0.1-2,0.6-4.7,1.4c7.3,4.7,14.1,8.2,20.7,12c4.6,2.7,9.2,5.7,13.4,9.1c3,2.4,1.7,7.2-2.2,8.5c-1.7,0.6-3.6,0.6-5.3,1.1
		c-1.9,0.5-5.1-0.5-3.9,4.5c4.1,1.1,8.8,1.9,13.2,3.6c1.9,0.7,4.2,3.1,4.3,4.9c0.1,1.5-2.4,4.2-4.2,4.6c-5.8,1.5-11.8,2.4-17.8,3.2
		c-5.7,0.7-11.4,1-17.5,1.5c3.7,9.4,6.9,17.7,9.9,25.3c5.4,3.2,11.3,5.4,15.4,9.4c6.9,6.8,7.6,15.3,5.5,25.1
		c-3.2,15.1,4.4,27.3,18.5,32.8C934.2,272.2,938.3,273.1,944,274.7z"/>
	<path d="M228.4,466.8c-5.5,0-10.2,0-15.7,0c-4.6-6.6-9.4-13.4-14.9-21.2c-5.7,1.5-11.7,2.2-17,4.6
		c-7.5,3.4-12.9,0.8-17.9-4.1c-2.6-2.5-4.5-5.7-6.8-8.4c-2.7-3.2-5.6-6.2-9.1-10c-6.8,11.8-16.6,18.1-29.1,20.7
		c-8.2-2-12.6-8.4-16.9-15.1c-19.8-31-40.9-61.1-63.9-89.8c-9.4-11.8-19.1-23.2-28.5-35c-4.1-5.1-7.9-10.6-8.6-18.7
		c2.6-2.5,5.3-5.5,8.5-8.1c14.8-12.3,30-24,42.6-39c11.5-13.7,24.1-26.9,39.4-36.9c8.3,1.8,11.6,9,17.4,14.3
		c6.8-6.8,13.5-13.5,20.2-20.3c9.8-0.2,10,11.2,18.4,14.7c2.8-3.1,6.1-6.4,8.9-10c2.8-3.6,6-5.8,10.6-5.8c13.9-0.3,27.7-1,41.3,2.7
		c6.8,1.9,11.8,5.1,15.6,11.2c7.1,11.2,14.9,21.9,22.2,33c9.4,14.3,21.1,26.3,33.7,37.6c9.4,8.5,18.8,16.9,28.2,25.4
		c2.2,2,4.6,4,6.6,6.2c8.1,8.7,8.4,14.9,1.1,23.9c-5.3,6.6-11,12.8-16.2,19.3c-25.6,32.1-49,65.7-66.2,103.2
		C231.5,462.7,230.2,464,228.4,466.8z M308.6,325.7c-5.8-6.3-10.3-11.9-15.6-16.7c-10.3-9.2-21-18.1-31.6-27
		c-11.1-9.4-22.6-18.5-29.7-31.4c-5.9-10.7-13.4-19.8-20.8-29.4c-7.2-9.3-14.7-13.5-26.3-10c-2.6,0.8-5.9-0.1-8.7-0.8
		c-7.3-1.8-12.9,0.5-17.6,6.1c-3.5,4.1-7.4,7.9-11,12c-8.3,9.5-16.6,19.1-24.9,28.5c-10.8,12.1-21.6,24-33,36.6
		c17.1,18.1,33.5,35.7,50.1,53c13.3,13.9,26.7,27.6,37.1,44.1c10.6,16.8,22.6,32.6,33.9,48.9c2.3,3.4,3.5,7.6,5.6,11.1
		c1.4,2.4,3.6,4.3,6.5,7.6c10.7-25.4,21.4-48.9,37.1-69.7C275.2,368.2,291.3,348,308.6,325.7z M11.4,290.9c1.3,3.7,1.6,6.2,2.9,8.1
		c3,4.5,6.2,8.9,9.6,13.1C35.2,326.2,46.7,340,58,354.2c8.2,10.3,16.4,20.8,24.1,31.6c8.7,12.3,16.7,25,25.2,37.5
		c3,4.5,5.8,9.3,11.6,10.8c14-3.8,14-3.8,23.1-12.8c-12.7-15.9-25.7-31.6-38.2-47.8c-14.1-18.2-31.3-33.3-47.1-49.9
		c-8-8.4-15.2-17-18.1-28.7c20.7-21.6,41.5-43.2,62.8-65.4c-3.1-4.3-5.7-8-8.1-11.4c-12.8,2.3-19.6,11.1-26.7,19.1
		C50,256.3,33.2,275.1,11.4,290.9z M50.7,297.7c2.9,4.6,4.4,8,6.8,10.5c9.1,9.6,18.9,18.6,27.8,28.3c11.3,12.4,22.1,25.3,32.9,38.2
		c5.4,6.4,10.3,13.3,15.7,19.7c8.2,9.6,16.5,19.1,25,28.5c4,4.4,8.1,8.8,12.7,12.7c3.4,2.9,8.4,2,11.4-1.2c3-3.2,2.3-6.7,0.2-9.9
		c-5.7-8.5-11.3-17.1-17.7-25.1c-16.1-20.2-32.7-40.1-49-60.2c-9.1-11.3-19.3-21.4-30.9-30.3c-3.7-2.8-7-6.2-10.7-9.5
		c5.6-16.8,18-27.7,28.5-39.8c11-12.6,22.4-24.8,33.5-36.9c-2.7-5.8-2.7-5.8-8.6-9.3C103,241,77.4,268.8,50.7,297.7z"/>
	<path d="M449.4,329c-1.4,1.1-2.8,3.3-4.2,3.3c-8.5-0.3-13.3,5.7-17.8,11c-12.9,15.3-24,31.3-22.5,53
		c0.9,13.4,5.6,23.2,19.2,27.4c2.9,0.9,5.7,2.1,8.4,3.1c7.4,17.1,24.7,21.8,37.3,31.6c5-1,9.1-1.9,13.7-2.8
		c7.5-10.6,17.4-19.1,31.2-17.4c9.4,1.2,19.5,4.5,25.3,16c-3.2,0-5.1,0.5-6.4-0.1c-3.9-1.7-7.6-3.7-11.3-5.7
		c-9.1-5-17.5-3.7-24.9,3.3c-1.5,1.4-2.9,4.3-2.5,6.1c0.4,1.8,2.9,3.6,4.9,4.3c2.6,0.8,5.6,0.4,10.8,0.7c-3.1,3.4-4.4,5.3-6.1,6.5
		c-3.9,2.7-8.6,4.5-12.1,7.6c-4.6,4.2-7.1,9.9-5.3,16.3c2.1,7.2,7.6,10.8,14.6,11.8c4.1,0.6,8.4,0,12.6,0.2
		c4.7,0.2,9.4,0.5,15.8,0.9c-2.3,3.5-3.8,5.7-5.3,7.9c0,0,0.4-0.3,0.4-0.3c-7.2,0.2-14.4,0.7-21.6,0.5
		c-20.2-0.5-29.3-12.6-24.5-32.5c0.7-2.9,2-5.6,3.2-8.9c-23-8.8-42-23.6-61.6-38.4c-6.9,4.3-13.4,8.5-20,12.6
		c-10.6,6.5-21.8,6.3-33,1.8c-6.9-2.8-12.6-7.3-14.6-15c-0.5-1.8,0.4-4.1,0.6-5.7c4.5-0.9,5,2,6.6,3.6c2.5,2.6,4.8,5.7,7.8,7.4
		c7.5,4.1,15.4,6.1,24.3,3c9.2-3.1,10.4-10.7,12.8-19.4c-9.2-12-9.7-26.9-8.7-41.8c-11.2-7.7-22-10.5-34.5-5.2
		c-7.7,3.3-11.9,7.7-10.4,16.4c0.4,2.2-0.2,4.5-0.4,6.7c-5.6,0.5-5.9-3.9-8-6.5c-2.9-3.6-8.1-3.5-11-0.3
		c-9.5,10.6-6.8,26.2,5.8,33.2c2.4,1.4,4.9,2.6,8.9,4.7c-3.2,1.6-4.6,3.1-5.9,2.9c-10.2-1.3-19.5-5.3-22.1-15.8
		c-2.9-11.7,0.2-22.8,9.2-31.5c2.1-2,5.1-4.5,7.6-4.5c6.9,0.2,10.7-4.9,15.7-7.8c11.2-6.4,22.6-11.8,35.9-6.9
		c6.2,2.3,10.7-0.5,14.3-4.8c5.8-6.9,12.3-13.6,16.4-21.5c3.4-6.7,5.3-14.9,5.1-22.4c-0.1-12.1,3-22.7,9.9-32.2
		c8-11,19.2-18.3,31.6-23.5c6.2-2.6,12.9-2.8,18.9,1.6c1.9,1.4,4.2,2.3,7.1,3.8c10.8-8.2,22.4-15.5,31.7-25.8c1.9-2.2,3.3-5,4.5-7.7
		c2.7-6.2,0.4-10.6-6.2-12c-3.3-0.7-6.8-1.1-11.2-1.7c1.5-2.8,2.1-5.4,2.9-5.4c7.7-0.4,15.5-1.3,23.1-0.3c7.4,1,10.1,8.8,6.1,15.5
		c-6.4,11-13.8,21.3-24,29.1c-4.8,3.7-9.7,7.3-14,11.4c-2.5,2.3-4.8,5.5-5.9,8.7c-2.1,6.8-4.3,13.8-4.6,20.8
		c-0.5,8.6-4.3,13.4-12.1,15.8c-1.7,0.5-3.3,1.3-4.8,1.9c-0.9,1.1-2,1.9-2.3,2.9c-4.3,12.4-6.6,13.9-17.7,10.6
		c-2.3-0.7-4.6-1.3-6.9-2c0-2.3,0-4.5,0-3.4c4.4-8.7,9.9,1.3,13.6-4.7c-2.6-1.9-4.7-3.5-7.1-5.3c4.5-6.2,10.3-5.5,15.5-6.5
		c4-0.8,8.5-1.1,9.9-5.8c0.6-7.3-8.5-12.2-5.4-18.5c5.3-4.4,8.2,3.9,12.6-0.4c-1-8.1-7.5-11.7-11.4-16c-12.2-2.1-19.5,5-27.2,10.5
		c-8,5.8-13.9,13.4-16.9,22.9c-3.4,10.7-0.1,18.3,10,24.1C444.9,327.3,447.2,328,449.4,329z"/>
	<path d="M616,355.5c-4.2,1.9-8.3,3.7-12.2,5.5c0,1.8-0.4,3.2,0.1,4c2.8,4.6,5.5,9.4,8.9,13.4c3.4,3.9,8.1,4.8,13.2,2.8
		c5.7-2.2,10.9-5.1,14.2-10.6c2.5-4.1,5.2-8.1,7.4-12.4c8.3-16,21.8-27.2,35.4-38.1c9.6-7.7,21.5-10.8,33.9-10.5
		c7.5,0.2,14.2-1.3,20.5-5.6c5.4-3.7,8.9-8.1,8-14.9c-0.8-5.9-1.9-11.8-3.1-17.7c-1.7-8.7-5.8-17.1-3.9-26.3c4-1.3,3.8,1.6,4.4,3.6
		c2.2,7.5,4.5,15,6.4,22.6c1.5,5.8,3.1,11.7,3.8,17.6c1.1,9.2-2.5,16.8-10.5,21.4c-5.2,2.9-10.9,5-16.7,6.6
		c-4.6,1.3-9.5,1.3-14.3,1.9c-13.5,1.8-25.6,6.4-35,16.8c-5.2,5.8-11.2,11-16.2,17c-4.5,5.5-8,11.8-12.3,18.3
		c5.4,7.6,10.2,14.5,15.1,21.2c1.8,2.4,4,4.5,5.8,6.9c4,5.7,3.3,9.9-2.6,13.6c-10.2,6.2-20.6,12.1-31.3,18.4
		c-14.8-8.9-12.9-28.4-25.7-39.7c-9.1,11.8-16.9,23.9-26.7,34c-9.9,10.2-21.6,18.8-33.9,25.7c-3.3-3.4-1.7-5.2,0.3-6.8
		c7.9-6.6,15.9-13,23.7-19.6c9.3-7.9,16.4-17.3,21.6-28.6c3.5-7.6,3.7-15.2,2.7-22.9c-0.8-6-3-11.6-8.9-14.9
		c-11-6.2-14.4-15.9-10.9-27.7c1.7-5.9-0.1-10.6-2.6-15.5c-3.9-7.5-7.6-15-11.8-22.4c-8.1-14-10-29.4-10.2-45.2c0-1,1.2-1.9,1.8-2.9
		c1.1,0,2.5-0.4,3.3,0.1c8.7,6.4,17.6,12.7,25.8,19.6c2.4,2.1,3.5,6.2,4.4,9.5c2,7.3,5.9,13.1,12.4,17.8c7.2-2.4,14.4-6.2,22.5-3.4
		c3.9,1.3,6.4,3.3,4.3,9c-10-0.3-22.8-5-27.1,10.2c3.4,5.2,11.9,1.8,12.8,10.2c-5,1.4-10.1,2.6-15.2,4.1c-6.3,2-9.8,6.5-10.7,13.2
		c-1.1,8.8,2.5,14,11.2,15.3c5.8,0.8,11.6,1.1,17.4,1.5C615.7,353,615.8,354.3,616,355.5z M579.7,296.1c0.7,0.7,1.4,1.5,2.1,2.2
		c-0.8-0.6-1.6-1.3-2.3-1.9c-0.5-3.6,0.7-8-6.9-12C576.2,290.3,577.9,293.2,579.7,296.1z M641.2,408.6c0.8,1.3,1.6,2.7,2.5,4
		c0.2,0.3,1,0.2,1.5,0.3c0-0.9,0.4-2.5,0.1-2.7c-1.3-0.7-2.9-0.9-4.4-1.3c1.3-7.7-1.6-13.8-6.8-19.9
		C631.1,395.6,631.1,395.6,641.2,408.6z M642.1,379.7c2.4,15.3,4.3,19.8,10.9,25.6c3.5,3,6.5,2.4,8.3-2.6
		C657.3,394.6,651.2,388.3,642.1,379.7z M576.8,271.5c-2.6-7.3-7.6-8.9-13.1-10.1c-4.2,5.3-2.8,9.9,0.7,15
		C568.4,274.8,572,273.4,576.8,271.5z M630.1,405.5c-0.9,0.6-1.7,1.2-2.6,1.8c0.9,2.2,1.5,4.6,2.9,6.3c1.6,1.9,2.5,5.7,7.4,3.8
		C635,413.3,632.5,409.4,630.1,405.5z M590.2,299.8c1-0.5,1.9-1,2.8-1.4c-0.7-1.5-1.1-3.2-2.1-4.5c-1.2-1.8-2.8-3.3-4.2-4.9
		c-0.6,0.5-1.3,0.9-1.9,1.3C586.7,293.4,588.4,296.6,590.2,299.8z M589,310.7c-0.7,0.7-1.8,1.4-2,2.3c-0.3,0.9,0.3,2,0.5,3
		c0.8-0.7,2-1.4,2.2-2.2C590,312.9,589.3,311.7,589,310.7z"/>
	<path d="M553.1,144.5c-10.5-0.9-20-1.8-30.8-2.7c-8.2,4.8-17.5,10.4-27,15.5c-6.3,3.4-12.8,7-19.6,8.9
		c-8.8,2.4-16.3,7-24.2,11.1c-8.1,4.3-10.4,11.1-12.3,18.7c-0.7,2.8,0.1,6-0.2,9c-0.5,5.2-3.8,8.2-8.4,6.9
		c-8.1-2.3-16.2-4.5-23.9-7.9c-7.2-3.2-9-9.3-5.7-16.6c5.2-11.6,14.9-17.6,27.1-17.6c17.4,0.1,32.7-7.1,48.5-12.4
		c13.1-4.4,24.9-12,35.5-21c0.4-0.4,0.6-1.1,1.1-2c-0.6-4.3-2.1-9-1.7-13.6c2.2-25,18.7-36.8,37.3-40.6c4.9-1,10.7,0.8,15.7,2.4
		c5.6,1.8,10.8,4.9,15.7,7.3c7.6-1.6,14.6-3.6,21.6-4.3c4.7-0.5,9.7,0.1,14.3,1.3c11.3,2.9,16.9,10.9,16.5,22.6
		c-0.4,12.2-5.5,22.5-14.7,29.8c-7.9,6.3-16.8,11.7-26,16c-13.3,6.1-25.8,4.2-35.8-7.5C555.1,146.1,553.6,145,553.1,144.5z
		 M570.1,102.8c-6.5,1.6-8.8,6.5-10.2,11.8c-1.7,6.5-1.3,13,1.5,19.3c4.3,10,12.7,15.2,22.9,12.4c13.6-3.7,25.2-11.1,33.9-22.3
		c4.6-5.9,7.4-13,3.7-20.1c-4.1-7.9-12.1-8.7-20.3-8.4c-9.5,0.4-17.2,4.3-23.5,11C575,105.1,572.4,103.9,570.1,102.8z M565.8,92.4
		c-15.1-5.4-26.4-1.9-36,7.9c-5.8,5.8-9.1,13.1-7.1,21.2c2.1,8.8,9.7,11.5,17.9,12.5c2.3,0.3,4.6,0,6.8,0
		C552.4,108.7,552.4,108.7,565.8,92.4z"/>
	<path d="M713.8,278.6c-4.1,3.3-8.3,6.7-12.4,10c-6,4.9-11.8,10.1-17.8,14.9c-6.1,4.8-12.2,9.7-18.7,13.8
		c-6.9,4.4-13.7,3.6-19.9-1.8c-2.7-2.3-5.2-5-7.5-7.8c-1.9-2.2-3.2-4.9-5.2-7.8c3.3-4.1,6.6-7.4,9.1-11.4
		c7.9-12.9,9.3-25.8-0.2-38.7c-3.2-4.4-6.3-8.8-9.2-13.3c-2.2-3.4-4-7.1-5.7-10.1c2.2-3.8,5-3.8,6.4-1.9
		c6.8,9.1,13.3,18.5,19.7,27.9c3.1,4.7,3.9,10.1,3.1,15.6c-1.3,9.5-2.9,19-4.5,28.4c-0.2,1.2-1.1,2.3-1.1,3.4
		c0.2,2.9-0.1,6.3,1.4,8.4c2.4,3.3,6.8,3.1,9.9,1.2c11.4-7.1,21.6-15.6,23.5-30.2c0.8-5.9,0.7-12,0.8-18c0-2.9-0.4-5.7-0.6-8.6
		c5.1-1.2,6,2.1,6.7,4.6c2,7.5,3.6,15.1,5.6,23.5c6-1,11.2-1.8,16.3-2.7L713.8,278.6z"/>
	<path d="M565.1,203.5c-21.3-2.1-36.9,1.8-52.6,5.5c-14.5,3.4-29.5,5.4-44.2,7.7c-4.1,0.7-8.4,0.4-12.6,0.2
		c-1.6-0.1-3.2-1.2-6.5-2.5c3.1-2.2,5-4.7,7.3-5c8.2-1.4,16.7-1.5,24.9-3c16.5-3,32.8-7,49.3-10c8.8-1.5,17.8-2,26.7-2.1
		C559.1,194.3,560.8,198.1,565.1,203.5z"/>
	<path d="M591,38.6c-7.6,12.5-8.1,27.3-21.1,33.8c-3.6-2.7-2-5-0.7-6.8c10.9-14.4,16.3-30.7,17.3-48.7
		c0.2-4,0.3-8.7,6.5-9.7c5.5,16.1,11,32.4,16.4,48.6c-2.2,2.7-4.5,1.4-5.9-0.5C599.4,50.2,595.6,44.9,591,38.6z"/>
	<path d="M193.5,526.6c-3.6,1.9-5.2,3.5-6.5,3.3c-2.2-0.3-4.2-2.2-6.4-2.5c-3.5-0.4-7.4,0.6-8.1-4.4
		c-0.1-0.5,0.2-1.2,0.5-1.6c2.5-3.1,5.9-3.6,11.2-1C186.8,521.7,189.1,523.6,193.5,526.6z"/>
	<path d="M681.2,472.9c2.1,3.4,4.1,5.4,4.6,7.7c0.5,2.6-1.8,4-4.4,3.8c-3.3-0.2-5.6-2.2-5.1-5.5
		C676.7,477.2,678.8,475.7,681.2,472.9z"/>
	<path d="M642.7,489.1c3.4-2.2,5.3-4.5,6.9-4.3c1.8,0.3,3.3,2.8,4.9,4.3c-1.7,1.4-3.2,3.7-5.1,3.9
		C647.9,493.3,646,491.2,642.7,489.1z"/>
	<path d="M825.7,452.8c-1.2-2.7-2.2-4.2-2.6-5.8c-0.6-2.6,2.4-6.1,5.4-5.6c1.8,0.3,3.2,2.6,4.8,4
		C831.4,447.2,829.5,449,825.7,452.8z"/>
	<path d="M597.8,499.4c2.6,3.2,4.7,4.7,5,6.5c0.4,2.7-2,4.3-4.6,3.9c-1.4-0.2-3.5-2-3.5-3
		C594.8,504.9,596.2,503.1,597.8,499.4z"/>
	<path d="M226.8,493.5c1.8,2.5,3.5,4.1,4.1,6c0.8,2.3-2.2,5.3-4.1,4.2c-1.7-1-3.1-3.3-3.6-5.3
		C223,497.4,225,495.8,226.8,493.5z"/>
	<path d="M260.2,484.2c2.2,3.1,3.4,4.8,4.6,6.5c-1.8,1.2-3.4,2.8-5.3,3.3c-0.8,0.2-3.3-2.3-3.1-3.3
		C256.6,488.9,258.3,487.3,260.2,484.2z"/>
	<path d="M945.4,478.5c-2-2.6-3.6-3.7-3.8-5.1c-0.7-3.4,1.7-6.3,4.8-5.7c1.4,0.3,3.6,2.5,3.4,3.2
		C949,473.2,947.4,475.3,945.4,478.5z"/>
	<path d="M1000,442.5c-3.5,2.6-5.3,4.5-7.5,5.5c-0.7,0.3-3-1.4-3.6-2.7c-1.2-2.6,1-6.3,3.9-6.2
		C994.6,439.2,996.4,440.8,1000,442.5z"/>
	<path d="M857.1,432.3c2.5,3,3.9,4.7,5.2,6.3c-1.7,1.3-3.3,3.1-5.2,3.7c-0.9,0.3-3.6-2-3.5-3
		C853.7,437.4,855.3,435.7,857.1,432.3z"/>
	<path d="M890.7,426.1c1.5,2.3,3.1,3.9,3.6,5.8c0.2,0.8-1.5,3.1-2.7,3.3c-3.2,0.6-5.9-2.3-5-5.1
		C887,428.8,888.7,428,890.7,426.1z"/>
	<path d="M897.1,401.9c-2.7,2.4-4.1,4.9-5.6,4.8c-1.7,0-3.3-2.2-4.9-3.4c1.2-1.6,2.2-4.1,3.8-4.5
		C891.8,398.3,893.8,400.3,897.1,401.9z"/>
	<path d="M968.9,385c-3.1,2-4.7,3.7-6.6,3.9c-1,0.1-3-2-3.4-3.4c-0.6-2.4,0.1-5.3,3.2-5.1
		C964.1,380.6,965.8,382.8,968.9,385z"/>
	<path d="M893.2,374c1.9,2.1,3.9,3.3,4.5,5.1c0.8,2.5-1.3,4.6-3.7,4.1c-1.6-0.3-3.1-2.6-3.8-4.4
		C889.8,377.9,891.7,376.3,893.2,374z"/>
	<path d="M920.3,385.4c-2.1,1.8-3.5,3.2-5.2,4.1c-0.3,0.1-2.5-2-2.7-3.2c-0.3-2.2,0.2-4.9,3.3-4.5
		C917,382,918.1,383.7,920.3,385.4z"/>
	<path d="M936,377.8c2.5,3.5,4.6,5.3,4.5,6.9c-0.1,1.5-2.5,2.9-3.9,4.4c-1.1-1.2-2.9-2.3-3-3.6
		C933.5,383.6,934.7,381.7,936,377.8z"/>
	<path d="M915.7,411.4c-1.8,2.1-2.8,4.2-3.7,4.1c-1.9-0.2-4.7-0.9-5.4-2.3c-1.1-2,0-4.7,2.9-4.6
		C911.3,408.7,913,410.1,915.7,411.4z"/>
	<path d="M876.3,415.9c-2.6,1.7-4.1,3.3-5.9,3.6c-1,0.2-2.3-1.9-3.5-2.9c1.4-1.4,2.7-3.3,4.4-4.1
		C871.9,412.1,873.7,414,876.3,415.9z"/>
	<path d="M990.8,416.4c-1.7,1.4-2.9,2.5-4.1,3.5c-1.2-1.6-2.4-3.3-3.6-4.9c1.4-0.8,2.9-2.3,4.2-2.1
		C988.3,413,989.3,414.9,990.8,416.4z"/>
	<path d="M905.3,437.3c-1.7-2.6-3.4-3.9-3.4-5.2c0-2.4,1.3-4.8,4.2-4.1c1.3,0.3,3.2,2.5,3,3.4
		C908.7,433.3,907,434.8,905.3,437.3z"/>
	<path d="M924.2,442c1.9-1.8,3.2-3.5,4.9-4.3c0.6-0.3,3.4,2.2,3.2,2.7c-0.7,1.8-2.2,3.4-3.4,5
		C927.7,444.6,926.5,443.7,924.2,442z"/>
	<path d="M456.6,467.9c-2.3,1.4-3.8,2.9-5.6,3.1c-0.8,0.1-2.7-2-2.8-3.3c-0.2-2.4,1.2-4.4,3.9-3.8
		C453.5,464.1,454.5,465.8,456.6,467.9z"/>
	<path d="M918.1,475.5c-3.5,1.6-5.2,3-7.1,3.2c-2.6,0.2-4.5-1.9-3.5-4.3c0.7-1.6,3.1-3.4,4.9-3.5
		C913.7,470.7,915.3,473.1,918.1,475.5z"/>
	<path d="M706.8,475.2c1,2.9,2.1,4.8,2,6.7c0,0.8-2.5,1.6-3.9,2.4c-1-1.8-2.4-3.6-2.9-5.5
		C702,478.2,704.4,477,706.8,475.2z"/>
	<path d="M743.2,478c-3.1,1.1-4.9,2.3-6.7,2.2c-0.9-0.1-1.7-2.4-2.5-3.7c1.8-0.9,3.4-2.3,5.3-2.6
		C740.1,473.7,741.2,475.8,743.2,478z"/>
	<path d="M818.7,481.9c-4-0.3-6.5-0.3-8.9-0.9c-0.3-0.1-0.5-4,0-4.2c1.9-0.7,4.2-1,6.1-0.5
		C816.8,476.5,817.2,478.8,818.7,481.9z"/>
	<path d="M631.6,487c-2.1,1.6-3.8,3.5-4.4,3.2c-1.8-0.9-3.2-2.6-4.7-4c1.5-1.3,3-3.7,4.4-3.6
		C628.4,482.7,629.8,485.1,631.6,487z"/>
	<path d="M760.2,490.1c-1.8,2-3.3,3.5-4.7,5.1c-1.5-1.5-3-2.9-4.5-4.4c1.5-1.4,2.9-3.3,4.7-4.1
		C756.4,486.4,758.1,488.5,760.2,490.1z"/>
	<path d="M286.6,491.9c-2.3,2-3.7,3.8-5.5,4.6c-2.2,1-5.6-1.9-4.5-3.7c1.1-1.8,3.1-3.4,5-4.2
		C282.4,488.4,284.1,490.3,286.6,491.9z"/>
	<path d="M196.1,492.8c2.1,1.7,3.7,3.1,5.4,4.5c-1.2,1.1-2.7,3.3-3.7,3.1c-2-0.3-3.7-2-5.6-3.1
		C193.3,496.1,194.4,494.8,196.1,492.8z"/>
	<path d="M157,505.4c-2.2,2-3.8,4-4.3,3.7c-1.8-0.9-3.7-2.2-4.8-4c-0.5-0.8,1.1-2.8,1.7-4.2
		C151.8,502.3,153.9,503.6,157,505.4z"/>
	<path d="M284.9,510.1c1.8,2.1,4,3.9,3.7,4.4c-0.8,1.7-2.4,3.3-4.1,4.1c-0.6,0.3-3.5-2.2-3.3-2.8
		C281.7,513.9,283.3,512.3,284.9,510.1z"/>
	<path d="M219.2,514.1c-1.7,1.4-3,3.2-4,3.1c-1.2-0.2-2.9-2.1-2.9-3.3c0-1.1,1.9-3.1,3-3.1
		C216.4,510.6,217.6,512.6,219.2,514.1z"/>
	<path d="M855.2,490.5c-1.9,1-3.4,2.5-4.7,2.3c-1.2-0.2-2.9-1.9-3.2-3.2c-0.5-2.2,2.8-4.5,4.7-3.4
		C853.3,486.8,853.9,488.6,855.2,490.5z"/>
	<path d="M429.3,452.7c-2.2,1.7-3.8,3.7-4.5,3.4c-1.8-0.7-4.2-2.2-4.6-3.8c-0.5-2.2,1.3-4.6,4.1-3.8
		C426,448.9,427.2,450.9,429.3,452.7z"/>
	<path d="M885.3,457.4c-0.8-2.3-2-3.9-1.7-5.1c0.4-1.2,2.3-1.9,3.5-2.8c0.7,1.3,2.3,2.8,2,4
		C888.9,454.8,887.1,455.7,885.3,457.4z"/>
	<path d="M683.3,496.8c2.5,4.1,4.1,5.7,4.4,7.6c0.1,1-2,2.9-3.3,3.2c-1,0.2-3.4-1.5-3.4-2.5
		C680.8,503.2,681.9,501.3,683.3,496.8z"/>
	<path d="M914.7,358.4c-2.2,2-3.3,3.7-4.6,3.9c-2.8,0.5-4.6-1.4-4.4-4c0.1-1.3,2.2-3.5,3-3.3
		C910.6,355.3,912.2,356.8,914.7,358.4z"/>
	<path d="M315.2,498.5c-1.5,1.6-2.7,3-2.8,3c-1.6-1.3-3.1-2.7-4.6-4.1c1-1,2.7-3.1,3-2.9
		C312.3,495.5,313.7,497.1,315.2,498.5z"/>
	<path d="M664.2,471.9c-1.2,1.8-1.8,3.6-3.1,4.4c-2.1,1.4-5.1-0.4-4.8-3c0.1-1.2,1.7-3,2.9-3.2
		C660.7,469.8,662.3,471.1,664.2,471.9z"/>
	<path d="M932.7,411.4c-1.7,2.1-2.3,3.8-3.5,4.4c-2.8,1.3-5.8-1.1-5.3-4.2c0.2-1.2,2-3.1,2.9-3
		C928.6,408.8,930.3,410.1,932.7,411.4z"/>
	<path d="M258.7,523.9c-2,0.9-3.6,2.4-4.7,2c-1.1-0.4-2.7-2.8-2.3-3.6c0.5-1.3,2.5-2.6,3.9-2.6
		C256.4,519.7,257.3,522,258.7,523.9z"/>
	<path d="M776.5,466.9c-3.1,1.3-5,2.6-6.9,2.6c-0.9,0-2.7-2.5-2.6-3.7c0.1-3,2.7-3.7,5.1-3
		C773.4,463.1,774.3,464.7,776.5,466.9z"/>
	<path d="M317.1,517.8c-1.9,1.1-3.2,1.9-4.5,2.7c-0.8-1.4-2.3-2.9-2.2-4.2c0.1-1,2.2-1.9,3.4-2.8
		C314.8,514.8,315.8,516.1,317.1,517.8z"/>
	<path d="M931.4,357.8c-2.1,1.4-3.2,2.5-4.5,2.8c-0.7,0.1-2.4-1.4-2.3-1.8c0.4-1.4,1.3-2.6,2-3.8
		C927.9,355.7,929.2,356.5,931.4,357.8z"/>
	<path d="M963.6,410.2c-2.1,1.5-3.4,3.1-4.7,3.1c-1.1-0.1-2.2-1.9-2.9-3.3c-0.2-0.3,1.5-2.3,2.2-2.2
		C959.8,408,961.2,409,963.6,410.2z"/>
	<path d="M960.1,440.8c-2.4,1.2-4.2,2.7-4.9,2.3c-1.1-0.6-1.7-2.5-2.1-4c-0.1-0.2,1.9-1.6,2.6-1.4
		C957,438.1,958,439.3,960.1,440.8z"/>
	<path d="M852,458.9c-1.7,1.7-2.5,3.1-3.8,3.6c-0.6,0.3-2.8-0.9-2.8-1.3c0.1-1.5,0.8-2.9,1.3-4.4
		C848.2,457.4,849.6,458,852,458.9z"/>
	<path d="M800.1,458.1c1.7,1.7,3.6,2.8,3.6,3.8c-0.1,1.3-1.6,3.2-2.8,3.5c-0.8,0.2-3.1-1.5-3.3-2.6
		C797.3,461.7,798.8,460.2,800.1,458.1z"/>
	<path d="M870.5,465.7c0.5,2.5,1.5,4.5,0.9,5.3c-0.7,1-2.8,1.1-4.3,1.5c-0.3-1.1-1.3-2.5-0.9-3.1
		C867,468.2,868.4,467.4,870.5,465.7z"/>
	<path d="M820.5,511.3c-0.8-2.4-2-4-1.6-5c0.4-0.9,2.4-1.4,3.8-1.5c0.4,0,1.6,2,1.3,2.7
		C823.5,508.6,822.2,509.5,820.5,511.3z"/>
	<path d="M713.5,278.2c0.7-0.7,1.5-1.5,2.2-2.2c2,2.9-0.6,2.2-1.9,2.6C713.8,278.6,713.5,278.2,713.5,278.2z"/>
	<path d="M196.5,288.8c10.8,11.6,4.1,25.8,8.2,40.8c3.1-7.5,4.7-12.6,7.2-17.2c3.1-5.8,6.5-11.4,10.3-16.8
		c1.9-2.7,8.3-1.4,8.9,2c1.3,7,1.8,14.2,2.6,21.5c3.5,0.3,3.7-3.4,5.5-5.5c1.5-1.8,3.3-3.2,5.5-5.4c9.6,11-1.8,20.9-0.5,32.4
		c2.7-2.2,4.3-3.6,5.9-4.9c1.8-1.4,3.7-2.7,5.8-4.2c2.7,3.2,4.5,6.8,7.3,8.3c2.7,1.4,8.2-1.5,8.1,3.8c0,2.9-3.4,5.8-5.6,8.5
		c-7.8,9.9-15.8,19.8-23.7,29.6c-3,3.7-6.1,7.5-9.6,10.6c-1.3,1.1-4.1,0.6-7.9,1c2.6-5.9,4.5-10.1,6.4-14.3
		c-2.7-1.1-4.8-1.9-6.8-2.7c-3.4-7.8,5.1-13.1,4.3-20.8c-3.1,2.5-5.8,4.6-9.5,7.7c-1.1-2.8-2.9-4.9-2.5-6.5c1.8-8.2,4-16.4,6.2-24.5
		c1.7-6.4,3-12.8,2.5-19.1c-4.9-1.9-5.9,1.4-6.9,3.9c-3.6,9.6-6.9,19.3-10.6,28.8c-1,2.7-2.8,5.5-5,7.2c-1,0.8-5.5-0.4-5.7-1.4
		c-1.1-4-1.5-8.2-1.4-12.4c0.1-10,0.7-20.1-0.5-31.6c-6.3,4.4-6.2,10.3-8.4,14.9c-2.8,6-4.5,12.4-7.4,18.4c-1.1,2.2-4.1,3.5-6.9,5.6
		c-6.8-10.9-5.4-22-6-32.6c-0.5-10.2-0.1-20.4-0.1-30.1c-4.8-2.9-6.4,0.3-7.7,2.7c-4.2,8-8.1,16.1-12.2,24.2c-1.1,2.1-2,4.3-3.4,6.2
		c-0.4,0.6-2.1,0.3-3.2,0.2c-0.4-0.1-1-0.9-1.1-1.4c-0.1-1.8-0.5-3.7,0-5.3c5.4-16.1,13-31.1,22.9-44.8c0.6-0.8,2.1-0.9,4.2-1.8
		c1.7,2.6,4.6,5.3,5.1,8.3c1.5,8.3,2.4,16.7,2.7,25c0.3,9.4-0.6,18.9,1.7,32.1c4-9.9,6.4-16.5,9.2-22.9
		C187.2,300.5,188.2,293.4,196.5,288.8z"/>
	<path d="M574.7,121.2c6.6-1.5,11.5,3,12.3,8.7c0.5,4.1-3.2,8.8-7.2,8.8c-5-0.1-8.4-3.3-8.4-7.8
		C571.4,127.3,573.8,123.6,574.7,121.2z"/>
	<path d="M535,111.4c5.2-1.1,9.1,2.4,9.7,6.9c0.4,3.2-2.5,7-5.7,6.9c-4,0-6.6-2.6-6.6-6.1
		C532.4,116.2,534.3,113.3,535,111.4z"/>
</g>
</svg>
