<?xml version="1.0" encoding="utf-8"?>
<!DOCTYPE svg PUBLIC "-//W3C//DTD SVG 1.1//EN" "http://www.w3.org/Graphics/SVG/1.1/DTD/svg11.dtd">
<svg version="1.1" id="Products" xmlns="http://www.w3.org/2000/svg" width="1000" height="1000" viewBox="0 0 1000 1000">
<style type="text/css">
<![CDATA[
	.bodies{fill:hsl(355, 23%, 48%);}
	.bodiez{fill:hsl(202, 29%, 54%);}
	.faces{fill:white;}

	.st3{fill:hsl(226, 17%, 20%);}
	.st7{fill:hsl(348, 35%, 49%);}
	
	.st1{fill:#E6E7E8;}
	.st2{fill:#BCBEC0;}
	.st5{fill:#939598;}
	.st6{fill:#FFFFFF;}
]]>
</style>
<path class="faces" d="M633.6,15.6c-27.4,0.2-22.4-0.7-41.3,17.6c-2.2,2.1-3.8,5-5.3,7.7c-8.6,15.9-10.4,33.5-12,51.2
	c-0.3,3.1,0.6,6.4,1.1,9.5c2,12.5,10.9,20.5,18.5,29.1c4,4.5,9.7,8.3,15.3,10.4c17.6,6.6,35.6,9.8,54.7,6.9
	c15.1-2.2,27.6-7.9,38.2-19.2c5.4-5.8,11.4-10.9,17.1-16.4c6.5-6.2,12.2-13.2,16.2-21.5c4.3-8.9,4.4-17.6-1.9-25.7
	c-6.2-8-12.2-16.1-18.8-23.6c-3.4-3.8-7.9-6.9-12.4-9.4c-10-5.6-20.6-9.7-32-11.6C658.4,18.7,646.1,13.8,633.6,15.6z"/>
<path class="faces" d="M258.2,521.6c-4.1,0.2-8.3,0.2-12.4,0.6c-20.6,1.9-39.6,7.4-54.9,23.2c-11.1,11.4-14.4,22.6-9.1,38
	c1.9,5.6,4.7,10.8,6.9,16.3c4.9,12.5,13.4,21.5,24.3,28.5c10.5,6.8,20.6,14.3,31.2,21c9.5,6,19.9,9.7,31.1,7.9
	c8.1-1.3,16.1-3.8,24.1-6.1c8.9-2.6,15.2-8.6,20.6-16.3c6.9-9.8,10.4-21,13.7-32.4c0.7-2.4,0.6-5.4,0-7.9c-4-16.2-8-32.3-16.8-46.7
	c-3.5-5.6-7.3-10.4-12.6-14C290.2,524.1,274.6,521.4,258.2,521.6z"/>
<path class="bodies" d="M252.5,764.8c-2.5-0.8-5-1.6-7.5-2.4c-11.8-4-23.4-8.5-35.1-13c-3.5-1.3-6.6-3.4-7.2-7.7
	c-0.6-4.7,2.8-6.5,6-8.5c14.5,5,26.8,15.6,43.2,18.9c0.9-9.7,1.7-18.6,2.6-27.5c1-9.6,1.8-19.3,3-28.9c1.4-10.3-0.7-19.3-8.4-26.4
	c-4.6-4.3-9.3-8.4-14-12.6c-0.8-0.7-2-1-2.6-1.8c-10.1-12.5-23.6-20.8-35.8-30.8c-6.3-5.2-9.6-12.6-13.3-19.7
	c-2.7-5.2-5.1-10.5-8.2-17c-5.2,4.3-9.6,7.7-13.8,11.5c-21.5,19.5-43.2,38.7-64.2,58.8C78.3,676,58.2,693.1,41.6,714
	c-10,12.6-18.5,26-22.7,41.9c-1,3.6-2.3,7.4-2.1,11c1,17.1,2,34.1,10.3,49.8c11.1,21.1,26,38.9,41.8,55.9
	c8.4,9.1,19.2,14.9,31.2,17.2c14.2,2.8,28.7,4.4,42.8,7.4c16.5,3.5,32.8,3.7,49.4,0.7c12.7-2.3,25.8-2.7,38.6-4.4
	c13.7-1.8,24.1-15.3,22.8-29.4c-0.6-6.4-2-12.8-2.9-19.2c-1.9-13.8-1.2-53.5,1.1-71.2L252.5,764.8z"/>
<path class="bodiez" d="M742.5,97.4c-0.8,0.5-2,0.7-2.5,1.5c-9.4,15.9-24.1,26.5-36.6,39.2c-11.9,12.1-26.8,17.9-43.7,17.4
	c-0.9,0-1.8,0.8-3.1,1.4c-4.1,4.5-4.2,10.4-4.2,16.4c0,5.3,0.9,11.2-0.8,15.9c-2.3,6.4-2.1,12.6-2.5,19c-0.3,4.3,0.3,8.7-0.6,12.9
	c-4.9,21.7-1.7,42.7,4.2,63.6c3.6,12.6,11.4,20.4,24.1,21.6c6.6,0.6,13.4,0.1,20-0.7c8.2-1,16.5-2,24.5-4.2
	c19.5-5.3,38.8-11.1,58.1-17c2.4-0.7,4.5-2.6,6.9-3.8c7.9-3.9,15.5-8.5,24.3-10.3c9.7-2,16.2-9.2,22.5-16.3
	c4.9-5.5,6.6-12.1,5.6-19.4c-0.6-4.2-1.1-8.8-3-12.5c-6.7-13.3-13.1-27-21.1-39.4c-19.9-30.9-45.2-57-69.5-84.1
	C744.6,98,743.4,97.8,742.5,97.4z"/>
<path class="st7" d="M598.5,376.3c0.3-8.2,0.4-16.2,1.1-24.1c0.7-8,2.1-15.9,2.8-23.9c0.5-6.4,1-12.9,0.4-19.3
	c-1.5-16-13.9-25.8-29.1-23.6c-11,1.6-20.6,10.9-23.2,23c-1,4.6-1.4,9.3-2.2,14.7c-4.6,0.5-8.7,0.5-12.6,1.3
	c-10.9,2.1-21,5.8-28.4,15c-6.7,8.3-7,25.3,0.1,32.8c9.9,10.4,21.8,16.7,36.3,12.6C561.6,379.6,579.9,377.8,598.5,376.3z"/>
<path class="st5" d="M459.4,488.4c-0.8,0.7-1.6,1.4-2.5,2.1c-6.5,5.1-13.8,9.2-18,17.5c3.1,1.2,5.5,2.5,8,2.9
	c5.1,0.7,10.3,1.2,15.5,1.1c14.1-0.4,27.9,2.3,41.7,4.6c7.2,1.2,14.3,3,21.5,3.7c11.7,1,23.4,3.2,35.8,0.7c1.2-13.3,6-25.3,1.8-38.6
	c-2.2-7.1,2.1-10.6,9.6-10.9c12.9-0.5,25.9-0.8,38.7-1.8c8.1-0.6,16.2-2.3,24.6-3.6c0.8-8.9,1.5-16.6,2.2-25.3
	c-7-0.3-13.1-0.9-19.3-0.8c-25.9,0.3-51.7,3.5-77.6,0.4c-3.7-0.4-8.1,1.6-11.5,3.7c-11.2,6.8-21.9,14.4-33,21.2
	c-4.7,2.8-9.1,6.5-14,8.9L459.4,488.4z"/>
<path class="st2" d="M641.6,626.9c0.7-11.8,1.6-23.6,2.7-35.3c1.8-19.3,3.9-38.5,5.5-57.8c0.7-7.5-0.9-9.2-7.3-12.4
	c-6.5-3.2-13.1-6.4-19.4-10c-16.3-9.3-32.4-18.8-48.6-28.3c-0.4-0.2-1,0-2,0c-3.6,6-3.5,13.2-3.9,20c-1.5,30.1-7.5,59.6-11.6,89.4
	c-1.5,11-1.1,22-2.6,33.5c3.7,0.3,6.3,0.1,8.8,0.7c22.3,4.9,44.9,8.2,67.5,10.7c3.3,0.4,6.6,0.8,9.9,1.4L641.6,626.9z"/>
<path class="st2" d="M409,757.8c-1.7,7.4-2.1,7.1-3.4,9.1c-2.4,3.6-8.4,3.6-9.4,9.6c8.4,0.8,14.9-2.4,21.5-5.6
	c3.2-1.6,6.8-2.5,10.2,1.8c-1,1.8-1.7,3.8-3,5.3c-1.3,1.5-4.5,2.2-4.7,3.6c-2.3,14.2-12.5,11.5-21.5,10.9c-2.5-0.2-5.2-1-7.4-2.3
	c-14.3-8.4-29.7-7.9-45.3-6.7c-4.1,0.3-8.3,0-12.5,0.1c-3,0.1-5.9,0.6-8.9,0.9c-1.3,4.4-2.7,8-3.3,11.6c-1.2,6.9-1.7,13.9-3.1,20.7
	c-5.1,24.2-9.9,48.4-18.3,71.8c-3.4,9.5-5.9,19.5-1.5,30.4c4.9,1.2,9.9,2.5,14.9,3.5c27.5,5.3,55,10.5,82.6,15.6
	c9.7,1.8,19.5,2.8,29.2,4.6c8.1,1.5,16.3,3.3,24.2,5.5c14,3.9,27.5,9.8,42.3,10.3c3,0.1,6.1,1.3,8.9,2.6c20.6,9.7,43.4,10.1,65,15.7
	c2.4,0.6,5.4-1.4,8.5-2.2c-3.1-12-6.3-22.7-8.5-33.7c-5.6-27.3-10.5-54.8-16.2-82.1c-4.5-21.6-7.4-43.4-8.2-65.5
	c-0.7-19.9-1.9-39.7-2.8-59.5c-0.3-7-1-13.9-4.5-20.7c-5-1.4-9.9-3.1-15-4c-26.5-4.6-52.6-12.3-79.7-13.6c-6.1-0.3-12.3-2.3-18.2-4
	c-21.6-6.4-44-7.3-66-10.6c-8.3-1.3-11.1,1.2-13.2,9.9c-1.4,5.7-1.9,11.7-3.2,17.5c-4.4,19.9-4.7,40.7-11.8,60
	c-0.8,2.1,0.4,4.9,0.8,8.3c12.7,0.1,24.6,0.5,36.4,0.2c5.8-0.2,10.8-3.2,15.3-7.2c2.3-2,4.7-4.2,7.5-5.1
	C393.4,761.8,400.4,760.1,409,757.8z"/>
<path class="st2" d="M655.9,374.5c-1.3,2.7-3.4,5.8-4.2,9.2c-1.4,6.3-1.7,12.7-2.7,19.1c-2.8,18-1.1,36.5-5.6,54.3
	c-0.6,2.2,0.8,4.9,1.4,7.6c28.4-3.1,56-6.2,83.9-9.2c1.9-8.2,3.2-15.7,1.6-23c-2.5-11.7-2-23.5-2.1-35.3c0-4.8-0.4-9.5-0.6-13.4
	c-4.7-5.4-10.1-4.8-15.2-5.2C694.4,377.2,676.4,375.9,655.9,374.5z"/>
<path class="st1" d="M395.1,474.8c8.1,7.4,16,14.9,23.9,22.5c3.3,3.2,5.7,7.8,12.3,8.2c4-3.4,8.8-7.3,13.5-11.4
	c3.9-3.5,8-6.7,12.5-8.9l23.9-15.1c14.1-10,28.4-19.8,42.6-29.8c2.7-1.9,4.8-4.8,7.6-7.6c-26-20.5-51-40.2-75.8-59.8
	c-9.9,0-17.3,5.2-25.1,9.3c-18.9,10-38.2,19-58.1,26.8c-9.6,3.8-19.1,7.9-28.6,11.9c1.7,7.8,7.3,11.8,12,16.4L395.1,474.8z"/>
<path class="st1" d="M545.4,706.9c14.2-5.9,28.5-12.2,43-18c22.2-8.8,44.6-17.2,66.8-26c6.1-2.4,12.5-4.5,18.4-11.2
	c-19.9-3.8-37.9-8.5-56.2-10.1c-12.4-1.1-24.6-3.4-36.9-4.9c-9.3-1.1-18.4-2.9-27.7-4.2c-10.8-1.5-21.5-3-32.3-4.2
	c-10.3-1.2-20.5-2.1-30.8-3c-2-0.2-4.1,0.2-6.2,0.6c-20.8,4.5-41.4,9.4-61,18.3c-9,4.1-18.5,6.9-27.8,10.1
	c-12.8,4.4-25.6,8.5-38.4,13c-2.6,0.9-4.7,3-8.6,5.6C415,684.4,480.2,695.7,545.4,706.9z"/>
<path class="st1" d="M584.4,477.4c1.8,6.4,6.5,8.3,10.4,10.1c19.5,8.9,36.5,22.5,56,31.5c7.4,3.4,14.3,5.6,22.3,5
	c29-2.2,58-4.2,86.9-6.6c23.2-2,46.4-4.7,69.7-6.7c27.4-2.3,54.7-6.4,82.3-5.7c2.6,0.1,5.2-0.1,7.8-0.5c3.4-0.7,6.8-1.7,10.7-2.8
	c-4.3-4.9-9.3-6.1-14.2-7.6c-12.4-3.8-25.1-7-37.2-11.7c-18-6.9-35.9-14-53.2-22.5c-14.9-7.3-29.8-8-45.5-5.3
	c-1.5,0.3-3.1,0.6-4.6,0.7c-20.6,2.4-40.9,7-61.7,7.7c-14.5,0.5-28.9,2.4-43.4,4.2c-26.3,3.2-52.3,7.9-78.8,8.8
	C589.5,476.2,587.1,476.9,584.4,477.4z"/>
<path class="st1" d="M790.9,348.6c-10.2-4.6-18.4,2.4-28.7,2.7c1.7,6,3.2,11,4.4,16.1c0.5,2.4-0.8,4-4.6,3.9
	c-3.1-5.8-6.5-12.2-9.7-18.2c-1.6-0.4-2.7-1-3.6-0.8c-25.3,5.1-50.5,10.3-76,15.6c10.7,6,22.2,4.1,33.4,3.5
	c6.4-0.4,12.3,0.3,18.4,1.8c13.6,3.3,27.2,6.4,41,9c5,0.9,10.4,0.8,15.4-0.3c12.8-2.7,25.7-3.1,38.7-3.1c9.4,0,18.5-1.5,27.6-3.7
	c17.1-4.1,34.1-8.9,51.9-9.4c9.3-0.2,18.5-2.2,27.7-3.4c0.5-0.1,1.1-0.3,1.4-0.7c0.3-0.3,0.2-0.9,0.4-2.4c-9-4.3-18.6-7.6-28.7-9.4
	c-28.8-5.2-57.9-2.2-86.8-2.9c-3.3-0.1-6.7,2.2-10,3.3c0.3,4.9,0.5,8.9,0.7,13c-6.8-0.4-8-0.7-8.8-2.8
	C793.5,356.5,792.3,352.5,790.9,348.6z"/>
<path class="st6" d="M646.6,639.7c4,0.7,7.9,1.4,11.9,2.1c7.6,1.4,15.3,2.8,22.9,4.6c3.7,0.9,6.2,3.2,6.2,7.9
	c0,10.9,2.7,21.3,6.4,31.3c3.7,10.1,8.8,19.8,10.8,30.2c2.9,15.1,9.5,28.3,15.5,42.2c4.4,0.6,8.5,1.7,12.5,1.7
	c6.7-0.1,13.5-0.5,20.1-1.6c15-2.3,29.9-2,45-0.9c5.7,0.4,11.5,0.3,17.1-0.5c19.5-2.8,39-5.8,58.8-3.4c3,0.4,6.2-0.1,9.3-0.5
	c13.9-1.9,27.8-3.8,41.6-5.9c4.5-0.7,8.9-2,13.2-3.1c0.3-2.5,0.7-4.1,0.6-5.6c-1.4-25.2-3.4-50.5-4.1-75.7
	c-0.7-25.2-0.2-50.5-0.3-75.8c-0.1-21.5-0.3-43.1-0.6-64.6c-0.1-4.2-0.7-8.3-1.1-13.2c-46.4,3.8-91.8,7.5-137.3,11.3
	c-45.9,3.8-91.8,6.2-138.2,11.1c-1.4,9.2-2.9,17.6-3.7,26.1c-0.8,8-0.5,16.1-1.2,24.2c-0.8,8.6-1.8,17.1-3.3,25.6
	c-1,5.7,0.1,11.7-1.1,18L646.6,639.7z"/>
<path class="st6" d="M680.2,658.2c-7,3-13.5,5.9-20.1,8.6c-19.8,7.9-39.7,15.6-59.5,23.5c-12.6,5.1-25,10.4-37.5,15.8
	c-3.3,1.4-6.5,3.3-9.7,5.1c-3.8,2.2-6,5.5-7.2,10c-2.8,11.1-3.6,22.2-2.8,33.6c1.1,14.5,1.8,29,3.1,43.4c1.4,15.5,2.4,31.1,5.1,46.4
	c3.7,21.1,6.5,42.5,13.5,62.9c1.9,5.5,2.1,11.6,3.5,17.4c2.9,12,6,23.9,9.3,35.7c0.8,2.8,2.9,5.2,4.5,8
	c14.9-6.3,26.7-16.1,39.1-24.7c18.5-12.8,36-27.3,55-39.3c18.7-11.8,35.3-26.4,52.9-39.6c5.7-4.3,12-8.6,14.8-16.5
	c-1.2-3.4-2.4-7-3.7-10.4c-4.1-10.4-9.6-20.5-12.3-31.3c-3.8-15.2-9.5-29.6-14.7-44.2c-5.3-15.1-12.8-29.5-14.5-45.8
	c-0.1-1.1-0.4-2.1-0.8-3.1c-6.6-15.9-11.6-32.2-14.6-49.3C683.2,662.5,681.6,660.8,680.2,658.2z"/>
<path class="st6" d="M740.4,453.5c6.3,0.2,12.9-0.5,19.6-1.6c10.2-1.7,20.5-3.4,30.8-4.7c10.9-1.4,21.6-0.6,31.8,4.7
	c6,3.1,12.4,5.3,18.7,7.9c21.6,9,42.9,18.9,65.5,25.1c9.5,2.6,18.7,6.4,27.9,10c2.7,1.1,5,3.3,7.5,4.9c-4,11.1-2.7,21.8-2.8,32.3
	c-0.2,11.3,0.2,22.6,0.5,33.9c0.3,10.8,0,21.6,1.4,32.2c1.4,11.1-2,22.4,0.8,33.5c12.2,2.9,23.4,0.3,34.6-0.8c2.3-0.2,4.5-2,7.2-3.4
	c-3.8-20.8-4.5-41.2-4-61.6c0.6-25.3,2.3-50.5,2.7-75.7c0.5-32.3,0.2-64.6,0.2-96.9c0-5.3-0.8-10.6-1.2-15.2
	c-11.1-6.9-21.9-9.9-33.6-9.4c-9.3,0.4-18.7,0.4-28,1.1c-7.2,0.5-14.4,1.8-21.6,2.8c-12.3,1.7-24.6,3.3-36.9,5.4
	c-16.8,2.9-33.3,7.3-50.7,6.1c-8.7-0.6-17.6,1.1-26.2,2.8c-10.8,2.2-21.6,2.6-32.5,1.9c-4-0.3-8.1,0-11.9,0
	C734.4,404.2,734.5,435.6,740.4,453.5z"/>
<path class="st6" d="M433.9,515.7c-4.7,10.1-7.9,20.1-8.7,30.8c-1,13.9-1,28.1-3.3,41.8c-2.3,13.8-3.1,27.7-3.6,41.6
	c-0.1,2.5,0.5,5,0.8,8.2c2.9-0.6,4.9-0.9,6.7-1.6c13.6-5.2,27.3-10.1,40.6-16c8.1-3.6,15.7-3.2,24.1-1.8c16.8,2.9,33.8,4.8,50.8,6.9
	c1.4,0.2,2.9-0.9,5.2-1.7c1.1-6,2.3-12.2,3.2-18.5c2.7-17.5,3.5-35.2,7.9-52.4c1.8-7,3.4-14.5,0.6-23c-4-0.6-8-1.2-12-1.6
	c-11.3-1.2-22.7-1.4-33.7-3.8C486.8,518.9,460.5,518.2,433.9,515.7z"/>
<path class="st3" d="M252.5,764.8c-2.5-0.8-5-1.6-7.5-2.4c-11.8-4-23.4-8.5-35.1-13c-3.5-1.3-6.6-3.4-7.2-7.7
	c-0.6-4.7,2.8-6.5,6-8.5c14.5,5,26.8,15.6,43.2,18.9c0.9-9.7,1.7-18.6,2.6-27.5c1-9.6,1.8-19.3,3-28.9c1.4-10.3-0.7-19.3-8.4-26.4
	c-4.6-4.3-9.3-8.4-14-12.6c-0.8-0.7-2-1-2.6-1.8c-10.1-12.5-23.6-20.8-35.8-30.8c-6.3-5.2-9.6-12.6-13.3-19.7
	c-2.7-5.2-5.1-10.5-8.2-17c-5.2,4.3-9.6,7.7-13.8,11.5c-21.5,19.5-43.2,38.7-64.2,58.8C78.3,676,58.2,693.1,41.6,714
	c-10,12.6-18.5,26-22.7,41.9c-1,3.6-2.3,7.4-2.1,11c1,17.1,2,34.1,10.3,49.8c11.1,21.1,26,38.9,41.8,55.9
	c8.4,9.1,19.2,14.9,31.2,17.2c14.2,2.8,28.7,4.4,42.8,7.4c16.5,3.5,32.8,3.7,49.4,0.7c12.7-2.3,25.8-2.7,38.6-4.4
	c13.7-1.8,24.1-15.3,22.8-29.4c-0.6-6.4-2-12.8-2.9-19.2c-1.9-13.8-1.2-53.5,1.1-71.2L252.5,764.8z M395.1,474.8
	c8.1,7.4,16,14.9,23.9,22.5c3.3,3.2,5.7,7.8,12.3,8.2c4-3.4,8.8-7.3,13.5-11.4c3.9-3.5,8-6.7,12.5-8.9l23.9-15.1
	c14.1-10,28.4-19.8,42.6-29.8c2.7-1.9,4.8-4.8,7.6-7.6c-26-20.5-51-40.2-75.8-59.8c-9.9,0-17.3,5.2-25.1,9.3
	c-18.9,10-38.2,19-58.1,26.8c-9.6,3.8-19.1,7.9-28.6,11.9c1.7,7.8,7.3,11.8,12,16.4L395.1,474.8z M353.8,440.3
	c-0.9-0.4-1.8-0.9-2.6-1.5c-4.4-2.8-8-6.8-11.8-10.4c-3.5-3.3-2.3-10.2,1.9-12.4c3.2-1.7,6.7-2.8,10.2-4c21.1-7.4,42.2-15,61.9-25.9
	c8.2-4.5,16.7-8.8,24.4-14.2c5.7-4,11.5-7.1,19.3-8.1c13.1,11.8,29.6,19.8,42,34.1c12.1,14.1,27.1,25.1,43.6,33.1
	c11,5.3,23.1,7.1,34.9,5.5c15-2,30-2.2,45-2.9c5.1-0.2,10.2-1.4,15.9-2.3c2.6-13.5,3.7-26.7,3.2-40.1c-0.2-5.4-1.2-10.7-1.6-16
	c-0.6-9.3,1.4-11.8,10-12.2c4.1-0.2,8.3,0,12.4-0.5c24.7-3.1,49.3-6.9,73.4-13.8c4.4-1.3,8.9-2.4,14-3.8
	c-1.6-13.7-4.1-26.7-9.6-39.3c-14.6,2.4-28.9,5-43.2,7c-6.6,0.9-13.4,1.6-20,1c-15.7-1.4-25.6-11-29.8-26.4
	c-5.8-21.4-9.2-42.9-4.6-65.4c2.1-10.3,1.2-21.3,1.7-31.8c-5.4-3-8.7,0.5-11.2,3.5c-6.9,8-13.4,16.4-19.9,24.8
	c-2.9,3.8-5.5,7.8-8.1,11.8c-4.6,7-10.7,13.1-9,23.1c0.7,4.3-2.5,7.8-7.3,9c-2.9,0.7-5.6,2.2-9.4,3.8c-0.9-2.8-1.8-5.6-2.7-8.5
	c-0.9,0-2-0.4-2.7,0.1c-6.5,3.7-6.5,3.7-13.3,4.3c1-9.7,7.9-14.7,13.6-20.4c3-2.9,6.7-5,10-7.6c20.8-16.5,36.5-38.1,52.4-59.4
	c2.2-2.9,3.8-6.4,5.4-9.8c0.6-1.3,0.4-3,0.7-5.5c-2.2-1.1-4.3-2.5-6.6-3.2c-8.9-2.8-17.9-5.5-26.9-7.9c-6.2-1.7-11.7-4.7-16-9.5
	c-5.7-6.3-11.2-12.7-16.3-19.4c-6.1-7.9-8.4-17.6-7.8-27.4c1.4-21.7,5.5-42.8,17.9-61c8.4-12.3,19.3-20.3,34.8-20.7
	c25.8-0.7,50.6,3.6,74.6,12.9c9.9,3.8,18.4,9.8,25.4,18.1c4.7,5.7,10,11,14.1,17.2c3.5,5.2,6.3,11.1,8.3,17.1
	c5.6,17.3,15.1,31.7,27.6,44.2c5.3,5.3,11.5,7.2,18.5,6.2c10.8-1.5,21.4-3.7,32.2-5.1c9.8-1.3,19.6-2.2,29.4-2.8
	c9.9-0.6,19.7-0.4,29.6-0.9c7.4-0.3,14.5,1,21.3,3.8c7.7,3.2,10.4,8.1,10,17.9c-6.6-1.1-10.1-9.8-18.3-7.6c0.1,1.2,0.1,2.6,0.4,3.9
	c0.7,2.7,1.1,5.8-1.5,7.2c-3.9,2-5.2-1.8-6.8-4.4c-0.3-0.5-0.6-0.9-0.9-1.3c-2.7,0.3-6.3,1.9-7.8,0.7c-5-3.9-10.5-5.3-16.1-4.1
	c-6.1,1.3-10.2-5.2-16.3-3.3c-4.9,1.5-10.1,2.3-15.3,2.9c-4.1,0.5-8.3,0.2-12.4,0.1c-9.1-0.2-17.5,2-25.4,8.9
	c1.5,2.5,2.8,5.2,4.6,7.5c15.7,20.8,29.8,42.7,42.1,65.8c4.1,7.8,5.8,16.2,6.5,24.7c0.7,9.3-4.1,16.5-10.1,22.7
	c-7.4,7.7-15.6,14.5-26.4,16.1c-6,0.9-9.3,4.1-10.6,10.1c-0.7,3.1-2.4,6.3-2.3,9.3c0.8,14.4,1.3,28.9,4.8,44
	c14.2-2.4,28-0.6,41.8-1.1c15.6-0.6,31-0.2,46.6,1.9c13,1.7,25.5,4.7,37.9,8.5c7.9,2.4,16.1,3.8,24.2,5.6c8.1,1.8,16.3,3.3,24.3,5.1
	c5.7,1.3,9.1,5.1,10.1,11c1,6.4,2.3,12.8,2.3,19.2c0.3,27.4,1.6,55-0.3,82.3c-1.5,20.4-1.9,40.8-2.5,61.2
	c-0.8,30.6-1.4,61.3,4.3,91.7c0.3,1.5-0.2,3.1-0.5,5.5c-15.7,8.3-34.1,11.9-49.1,25.4c1.2,29.1,2.6,59,5.3,89
	c-8.7,4.9-17.5,5.4-26.1,6.6c-21.6,3.2-43.2,6-64.8,8.7c-5.1,0.6-10.4-0.7-15.4,0c-27.8,3.6-55.8,6-82.5,15.4
	c-8.3,2.9-16.3,6.6-24.8,10.1c2.4,23.9,14.1,43.2,23,65c-1.5,2.2-3,5.8-5.6,8.1c-5.5,4.8-11.6,9-17.6,13.3
	c-22.1,16-45.6,29.8-67.3,46.5c-20,15.4-41.4,28.8-62,43.2c-4.7,3.3-8.9,7.3-13.6,10.7c-9.3,6.7-19.1,10.8-30.7,6.7
	c-4.4-1.5-9.1-2.5-13.7-2.9c-13.1-1.1-25.4-5-37.7-9.5c-4.9-1.8-9.9-3.9-14.9-4.3c-15.2-1.4-29.5-6.1-43.7-10.9
	c-8.9-3.1-17.8-5.1-27.3-6c-10.3-0.9-20.3-4-30.5-5.9c-24-4.5-48-8.7-71.9-13.2c-9.6-1.8-19.7-1.9-28.5-7.9
	c-1.7-6.4-2.1-12.6-0.1-19c1.4-4.6,2.6-9.3,4-13.9c8.4-27.2,16.5-54.4,20.6-82.7c1-6.9,2.7-13.6,4.3-21.3c-1.5-0.9-3.1-2.8-4.8-2.8
	c-13.8-0.1-26.2-5.9-39.1-9.7c-6-1.8-12-3.5-18-5.2l-1.2,11.3c0,7.3,0.4,14.5-0.1,21.8c-1.1,17.3,0.3,34.4,3.2,51.4
	c0.5,3.2,0.9,6.4,1.2,9.6c2.1,20.4-10.1,36.9-29.7,39.7c-8.2,1.2-16.5,2-24.7,3.3c-7,1-10.6,4.2-11.1,11.4
	c-1.3,19.3-3.1,38.6-0.6,58c0.3,2.6,1,5.3,0.9,7.9c0,1.1-1.5,2.9-2.6,3.1c-1.2,0.2-3.4-0.7-3.8-1.7c-1.5-3.9-3-8-3.5-12.2
	c-2-15.5-3.6-31-5.4-46.5c-0.6-5.3-1.5-10.5-2.4-16.7c-7.2-0.4-13.9-0.1-20.3-1.4c-6.6-1.4-13.1-2.4-20.2-2
	c-4.6,14.4-5.3,28.9-7.3,43.1c-2,14.3,1.7,28.9-1.4,42.9c-3.6,1.7-5.9,0.2-6.3-2.7c-1.5-10.6-2.8-21.3-3.9-32
	c-2-18.7-3.7-37.5-5.6-56c-5.8-1.6-10.8-3-15.8-4.2c-11.3-2.9-21.5-8.4-29.7-16.8c-18.1-18.6-35.3-38.1-46.6-62.2
	c-1.1-2.4-2.7-4.8-3.2-7.3c-2.5-12.1-5.4-24.1-6.7-36.3c-1.1-10.3,1.9-20.2,6.5-29.6c8.2-17,18.9-32.3,32.1-45.4
	c16.8-16.8,34-33.1,51.3-49.5c18.4-17.4,37.2-34.3,55.4-52c5.2-5,9.3-11.6,13.1-17.9c2.1-3.5,3.1-7.8,3.9-11.9
	c1.9-9.8,6.4-17.3,13.5-24.5c20.3-20.5,45.5-24.7,71.8-25.1c9.7-0.2,19.6,1.9,29.2,3.7c9.9,1.8,18.3,7.5,26,13.9
	c2.7,2.3,5.2,5.3,6.9,8.5c7.8,14.7,14,30.1,17.6,46.4c3.4,15.4,1.7,30-8,42.9c-1.6,2.1-3.2,4.3-4.5,6.6
	c-5.3,9.1-12.3,15.7-22.4,18.7c-4.4,1.3-8.8,3.5-12.8,5.9c-7.3,4.3-13.9,9.5-15.9,19.3c4.9,5.2,11.6,6.4,18,8c2,0.5,4.1,0.6,6.2,0.7
	c11.3,0.8,22.7,1.5,33.7,2.2c6-7.1,1.6-16.2,5.5-24.3c12.3-5.4,25.3-10.5,38.7-14.4c6.5-1.9,12.8-4.4,19.4-5.8
	c7.3-1.5,10.5-6.3,12.1-13c2.7-10.9,6.6-21.5,5.6-33.2c-0.3-3.7,0.7-7.5,1.3-11.2c2.4-17,4.4-34.1,7.3-51
	c3.2-19.4-4.2-34.6-15.9-48.5c-4.5-5.4-10.7-9.4-14.6-15.4L353.8,440.3z M459.4,488.4c-0.8,0.7-1.6,1.4-2.5,2.1
	c-6.5,5.1-13.8,9.2-18,17.5c3.1,1.2,5.5,2.5,8,2.9c5.1,0.7,10.3,1.2,15.5,1.1c14.1-0.4,27.9,2.3,41.7,4.6c7.2,1.2,14.3,3,21.5,3.7
	c11.7,1,23.4,3.2,35.8,0.7c1.2-13.3,6-25.3,1.8-38.6c-2.2-7.1,2.1-10.6,9.6-10.9c12.9-0.5,25.9-0.8,38.7-1.8
	c8.1-0.6,16.2-2.3,24.6-3.6c0.8-8.9,1.5-16.6,2.2-25.3c-7-0.3-13.1-0.9-19.3-0.8c-25.9,0.3-51.7,3.5-77.6,0.4
	c-3.7-0.4-8.1,1.6-11.5,3.7c-11.2,6.8-21.9,14.4-33,21.2c-4.7,2.8-9.1,6.5-14,8.9L459.4,488.4z M646.6,639.7c4,0.7,7.9,1.4,11.9,2.1
	c7.6,1.4,15.3,2.8,22.9,4.6c3.7,0.9,6.2,3.2,6.2,7.9c0,10.9,2.7,21.3,6.4,31.3c3.7,10.1,8.8,19.8,10.8,30.2
	c2.9,15.1,9.5,28.3,15.5,42.2c4.4,0.6,8.5,1.7,12.5,1.7c6.7-0.1,13.5-0.5,20.1-1.6c15-2.3,29.9-2,45-0.9c5.7,0.4,11.5,0.3,17.1-0.5
	c19.5-2.8,39-5.8,58.8-3.4c3,0.4,6.2-0.1,9.3-0.5c13.9-1.9,27.8-3.8,41.6-5.9c4.5-0.7,8.9-2,13.2-3.1c0.3-2.5,0.7-4.1,0.6-5.6
	c-1.4-25.2-3.4-50.5-4.1-75.7c-0.7-25.2-0.2-50.5-0.3-75.8c-0.1-21.5-0.3-43.1-0.6-64.6c-0.1-4.2-0.7-8.3-1.1-13.2
	c-46.4,3.8-91.8,7.5-137.3,11.3c-45.9,3.8-91.8,6.2-138.2,11.1c-1.4,9.2-2.9,17.6-3.7,26.1c-0.8,8-0.5,16.1-1.2,24.2
	c-0.8,8.6-1.8,17.1-3.3,25.6c-1,5.7,0.1,11.7-1.1,18L646.6,639.7z M641.6,626.9c0.7-11.8,1.6-23.6,2.7-35.3
	c1.8-19.3,3.9-38.5,5.5-57.8c0.7-7.5-0.9-9.2-7.3-12.4c-6.5-3.2-13.1-6.4-19.4-10c-16.3-9.3-32.4-18.8-48.6-28.3c-0.4-0.2-1,0-2,0
	c-3.6,6-3.5,13.2-3.9,20c-1.5,30.1-7.5,59.6-11.6,89.4c-1.5,11-1.1,22-2.6,33.5c3.7,0.3,6.3,0.1,8.8,0.7
	c22.3,4.9,44.9,8.2,67.5,10.7c3.3,0.4,6.6,0.8,9.9,1.4L641.6,626.9z M409,757.8c-1.7,7.4-2.1,7.1-3.4,9.1c-2.4,3.6-8.4,3.6-9.4,9.6
	c8.4,0.8,14.9-2.4,21.5-5.6c3.2-1.6,6.8-2.5,10.2,1.8c-1,1.8-1.7,3.8-3,5.3c-1.3,1.5-4.5,2.2-4.7,3.6c-2.3,14.2-12.5,11.5-21.5,10.9
	c-2.5-0.2-5.2-1-7.4-2.3c-14.3-8.4-29.7-7.9-45.3-6.7c-4.1,0.3-8.3,0-12.5,0.1c-3,0.1-5.9,0.6-8.9,0.9c-1.3,4.4-2.7,8-3.3,11.6
	c-1.2,6.9-1.7,13.9-3.1,20.7c-5.1,24.2-9.9,48.4-18.3,71.8c-3.4,9.5-5.9,19.5-1.5,30.4c4.9,1.2,9.9,2.5,14.9,3.5
	c27.5,5.3,55,10.5,82.6,15.6c9.7,1.8,19.5,2.8,29.2,4.6c8.1,1.5,16.3,3.3,24.2,5.5c14,3.9,27.5,9.8,42.3,10.3c3,0.1,6.1,1.3,8.9,2.6
	c20.6,9.7,43.4,10.1,65,15.7c2.4,0.6,5.4-1.4,8.5-2.2c-3.1-12-6.3-22.7-8.5-33.7c-5.6-27.3-10.5-54.8-16.2-82.1
	c-4.5-21.6-7.4-43.4-8.2-65.5c-0.7-19.9-1.9-39.7-2.8-59.5c-0.3-7-1-13.9-4.5-20.7c-5-1.4-9.9-3.1-15-4
	c-26.5-4.6-52.6-12.3-79.7-13.6c-6.1-0.3-12.3-2.3-18.2-4c-21.6-6.4-44-7.3-66-10.6c-8.3-1.3-11.1,1.2-13.2,9.9
	c-1.4,5.7-1.9,11.7-3.2,17.5c-4.4,19.9-4.7,40.7-11.8,60c-0.8,2.1,0.4,4.9,0.8,8.3c12.7,0.1,24.6,0.5,36.4,0.2
	c5.8-0.2,10.8-3.2,15.3-7.2c2.3-2,4.7-4.2,7.5-5.1C393.4,761.8,400.4,760.1,409,757.8z M680.2,658.2c-7,3-13.5,5.9-20.1,8.6
	c-19.8,7.9-39.7,15.6-59.5,23.5c-12.6,5.1-25,10.4-37.5,15.8c-3.3,1.4-6.5,3.3-9.7,5.1c-3.8,2.2-6,5.5-7.2,10
	c-2.8,11.1-3.6,22.2-2.8,33.6c1.1,14.5,1.8,29,3.1,43.4c1.4,15.5,2.4,31.1,5.1,46.4c3.7,21.1,6.5,42.5,13.5,62.9
	c1.9,5.5,2.1,11.6,3.5,17.4c2.9,12,6,23.9,9.3,35.7c0.8,2.8,2.9,5.2,4.5,8c14.9-6.3,26.7-16.1,39.1-24.7c18.5-12.8,36-27.3,55-39.3
	c18.7-11.8,35.3-26.4,52.9-39.6c5.7-4.3,12-8.6,14.8-16.5c-1.2-3.4-2.4-7-3.7-10.4c-4.1-10.4-9.6-20.5-12.3-31.3
	c-3.8-15.2-9.5-29.6-14.7-44.2c-5.3-15.1-12.8-29.5-14.5-45.8c-0.1-1.1-0.4-2.1-0.8-3.1c-6.6-15.9-11.6-32.2-14.6-49.3
	C683.2,662.5,681.6,660.8,680.2,658.2z M740.4,453.5c6.3,0.2,12.9-0.5,19.6-1.6c10.2-1.7,20.5-3.4,30.8-4.7
	c10.9-1.4,21.6-0.6,31.8,4.7c6,3.1,12.4,5.3,18.7,7.9c21.6,9,42.9,18.9,65.5,25.1c9.5,2.6,18.7,6.4,27.9,10c2.7,1.1,5,3.3,7.5,4.9
	c-4,11.1-2.7,21.8-2.8,32.3c-0.2,11.3,0.2,22.6,0.5,33.9c0.3,10.8,0,21.6,1.4,32.2c1.4,11.1-2,22.4,0.8,33.5
	c12.2,2.9,23.4,0.3,34.6-0.8c2.3-0.2,4.5-2,7.2-3.4c-3.8-20.8-4.5-41.2-4-61.6c0.6-25.3,2.3-50.5,2.7-75.7
	c0.5-32.3,0.2-64.6,0.2-96.9c0-5.3-0.8-10.6-1.2-15.2c-11.1-6.9-21.9-9.9-33.6-9.4c-9.3,0.4-18.7,0.4-28,1.1
	c-7.2,0.5-14.4,1.8-21.6,2.8c-12.3,1.7-24.6,3.3-36.9,5.4c-16.8,2.9-33.3,7.3-50.7,6.1c-8.7-0.6-17.6,1.1-26.2,2.8
	c-10.8,2.2-21.6,2.6-32.5,1.9c-4-0.3-8.1,0-11.9,0C734.4,404.2,734.5,435.6,740.4,453.5z M742.5,97.4c-0.8,0.5-2,0.7-2.5,1.5
	c-9.4,15.9-24.1,26.5-36.6,39.2c-11.9,12.1-26.8,17.9-43.7,17.4c-0.9,0-1.8,0.8-3.1,1.4c-4.1,4.5-4.2,10.4-4.2,16.4
	c0,5.3,0.9,11.2-0.8,15.9c-2.3,6.4-2.1,12.6-2.5,19c-0.3,4.3,0.3,8.7-0.6,12.9c-4.9,21.7-1.7,42.7,4.2,63.6
	c3.6,12.6,11.4,20.4,24.1,21.6c6.6,0.6,13.4,0.1,20-0.7c8.2-1,16.5-2,24.5-4.2c19.5-5.3,38.8-11.1,58.1-17c2.4-0.7,4.5-2.6,6.9-3.8
	c7.9-3.9,15.5-8.5,24.3-10.3c9.7-2,16.2-9.2,22.5-16.3c4.9-5.5,6.6-12.1,5.6-19.4c-0.6-4.2-1.1-8.8-3-12.5
	c-6.7-13.3-13.1-27-21.1-39.4c-19.9-30.9-45.2-57-69.5-84.1C744.6,98,743.4,97.8,742.5,97.4z M633.6,15.6
	c-27.4,0.2-22.4-0.7-41.3,17.6c-2.2,2.1-3.8,5-5.3,7.7c-8.6,15.9-10.4,33.5-12,51.2c-0.3,3.1,0.6,6.4,1.1,9.5
	c2,12.5,10.9,20.5,18.5,29.1c4,4.5,9.7,8.3,15.3,10.4c17.6,6.6,35.6,9.8,54.7,6.9c15.1-2.2,27.6-7.9,38.2-19.2
	c5.4-5.8,11.4-10.9,17.1-16.4c6.5-6.2,12.2-13.2,16.2-21.5c4.3-8.9,4.4-17.6-1.9-25.7c-6.2-8-12.2-16.1-18.8-23.6
	c-3.4-3.8-7.9-6.9-12.4-9.4c-10-5.6-20.6-9.7-32-11.6C658.4,18.7,646.1,13.8,633.6,15.6z M258.2,521.6c-4.1,0.2-8.3,0.2-12.4,0.6
	c-20.6,1.9-39.6,7.4-54.9,23.2c-11.1,11.4-14.4,22.6-9.1,38c1.9,5.6,4.7,10.8,6.9,16.3c4.9,12.5,13.4,21.5,24.3,28.5
	c10.5,6.8,20.6,14.3,31.2,21c9.5,6,19.9,9.7,31.1,7.9c8.1-1.3,16.1-3.8,24.1-6.1c8.9-2.6,15.2-8.6,20.6-16.3
	c6.9-9.8,10.4-21,13.7-32.4c0.7-2.4,0.6-5.4,0-7.9c-4-16.2-8-32.3-16.8-46.7c-3.5-5.6-7.3-10.4-12.6-14
	C290.2,524.1,274.6,521.4,258.2,521.6z M545.4,706.9c14.2-5.9,28.5-12.2,43-18c22.2-8.8,44.6-17.2,66.8-26
	c6.1-2.4,12.5-4.5,18.4-11.2c-19.9-3.8-37.9-8.5-56.2-10.1c-12.4-1.1-24.6-3.4-36.9-4.9c-9.3-1.1-18.4-2.9-27.7-4.2
	c-10.8-1.5-21.5-3-32.3-4.2c-10.3-1.2-20.5-2.1-30.8-3c-2-0.2-4.1,0.2-6.2,0.6c-20.8,4.5-41.4,9.4-61,18.3
	c-9,4.1-18.5,6.9-27.8,10.1c-12.8,4.4-25.6,8.5-38.4,13c-2.6,0.9-4.7,3-8.6,5.6C415,684.4,480.2,695.7,545.4,706.9z M584.4,477.4
	c1.8,6.4,6.5,8.3,10.4,10.1c19.5,8.9,36.5,22.5,56,31.5c7.4,3.4,14.3,5.6,22.3,5c29-2.2,58-4.2,86.9-6.6c23.2-2,46.4-4.7,69.7-6.7
	c27.4-2.3,54.7-6.4,82.3-5.7c2.6,0.1,5.2-0.1,7.8-0.5c3.4-0.7,6.8-1.7,10.7-2.8c-4.3-4.9-9.3-6.1-14.2-7.6
	c-12.4-3.8-25.1-7-37.2-11.7c-18-6.9-35.9-14-53.2-22.5c-14.9-7.3-29.8-8-45.5-5.3c-1.5,0.3-3.1,0.6-4.6,0.7
	c-20.6,2.4-40.9,7-61.7,7.7c-14.5,0.5-28.9,2.4-43.4,4.2c-26.3,3.2-52.3,7.9-78.8,8.8C589.5,476.2,587.1,476.9,584.4,477.4z
	 M433.9,515.7c-4.7,10.1-7.9,20.1-8.7,30.8c-1,13.9-1,28.1-3.3,41.8c-2.3,13.8-3.1,27.7-3.6,41.6c-0.1,2.5,0.5,5,0.8,8.2
	c2.9-0.6,4.9-0.9,6.7-1.6c13.6-5.2,27.3-10.1,40.6-16c8.1-3.6,15.7-3.2,24.1-1.8c16.8,2.9,33.8,4.8,50.8,6.9
	c1.4,0.2,2.9-0.9,5.2-1.7c1.1-6,2.3-12.2,3.2-18.5c2.7-17.5,3.5-35.2,7.9-52.4c1.8-7,3.4-14.5,0.6-23c-4-0.6-8-1.2-12-1.6
	c-11.3-1.2-22.7-1.4-33.7-3.8C486.8,518.9,460.5,518.2,433.9,515.7z M655.9,374.5c-1.3,2.7-3.4,5.8-4.2,9.2
	c-1.4,6.3-1.7,12.7-2.7,19.1c-2.8,18-1.1,36.5-5.6,54.3c-0.6,2.2,0.8,4.9,1.4,7.6c28.4-3.1,56-6.2,83.9-9.2c1.9-8.2,3.2-15.7,1.6-23
	c-2.5-11.7-2-23.5-2.1-35.3c0-4.8-0.4-9.5-0.6-13.4c-4.7-5.4-10.1-4.8-15.2-5.2C694.4,377.2,676.4,375.9,655.9,374.5z M790.9,348.6
	c-10.2-4.6-18.4,2.4-28.7,2.7c1.7,6,3.2,11,4.4,16.1c0.5,2.4-0.8,4-4.6,3.9c-3.1-5.8-6.5-12.2-9.7-18.2c-1.6-0.4-2.7-1-3.6-0.8
	c-25.3,5.1-50.5,10.3-76,15.6c10.7,6,22.2,4.1,33.4,3.5c6.4-0.4,12.3,0.3,18.4,1.8c13.6,3.3,27.2,6.4,41,9c5,0.9,10.4,0.8,15.4-0.3
	c12.8-2.7,25.7-3.1,38.7-3.1c9.4,0,18.5-1.5,27.6-3.7c17.1-4.1,34.1-8.9,51.9-9.4c9.3-0.2,18.5-2.2,27.7-3.4
	c0.5-0.1,1.1-0.3,1.4-0.7c0.3-0.3,0.2-0.9,0.4-2.4c-9-4.3-18.6-7.6-28.7-9.4c-28.8-5.2-57.9-2.2-86.8-2.9c-3.3-0.1-6.7,2.2-10,3.3
	c0.3,4.9,0.5,8.9,0.7,13c-6.8-0.4-8-0.7-8.8-2.8C793.5,356.5,792.3,352.5,790.9,348.6z M257,756c21.5,6,40.5,16,62.7,18.1
	c5.5-21.6,8.1-43.1,11.8-64.5c-5.5-4.6-11.1-4.6-16.7-3.8c-15.3,2.1-30.5,4.4-45.5,6.7c-1.8,2.9-3.8,5-4.4,7.4
	C262.2,731.2,259.9,742.6,257,756z M757.9,299.5c0.8,13,1.3,24.7,2.2,36.3c0.2,2.9,1.8,5.7,2.8,8.5c9.7,0.6,18.1-1.2,26.3-5.8
	c-3.4-15.1-3.3-30.8-10-45.3C772.3,295.2,765.9,297.1,757.9,299.5z"/>
<path class="st3" d="M604.9,382.1c-14.4,2.1-28.8,4.1-43.2,6.3c-7.1,1.1-14.3,2.3-21.4,3.7c-16.3,3.2-28.2-5.4-38.5-16.4
	c-9.8-10.5-8.6-34.5,3.3-43.8c5.4-4.3,10.8-8.4,17.4-10.4c6.4-2,13-3.5,20.6-5.5c0.9-3.9,1.8-8.5,3.2-13c6.7-22.5,26.4-27.1,42-24
	c10.3,2.1,20.3,16.2,20.9,29.4c0.4,8.6-0.1,17.3-1,25.8c-1.6,14.4-4,28.8-1.6,43.4C606.6,378.8,605.5,380.3,604.9,382.1z
	 M598.5,376.3c0.3-8.2,0.4-16.2,1.1-24.1c0.7-8,2.1-15.9,2.8-23.9c0.5-6.4,1-12.9,0.4-19.3c-1.5-16-13.9-25.8-29.1-23.6
	c-11,1.6-20.6,10.9-23.2,23c-1,4.6-1.4,9.3-2.2,14.7c-4.6,0.5-8.7,0.5-12.6,1.3c-10.9,2.1-21,5.8-28.4,15c-6.7,8.3-7,25.3,0.1,32.8
	c9.9,10.4,21.8,16.7,36.3,12.6C561.6,379.6,579.9,377.8,598.5,376.3z"/>
<path class="st3" d="M58.8,775.2c-2.9,0.1-3.6-2.5-3.3-4.3c1.2-6.3,2.1-12.9,4.7-18.5c8-17.4,16.9-34.5,28.1-50
	c0.8-1.1,2.3-1.6,3.4-2.3c2.8,2.4,0.8,4.1-0.2,5.7c-5.1,8.1-10.7,15.8-15.4,24.2C63.4,752.8,63.3,753.4,58.8,775.2z"/>
<path class="st3" d="M898.3,785.1c-1,1.3-1.7,3.7-3.1,3.8c-20.4,2.5-39.8,8-60.8,8.4c-2.9,0.1-5.8-0.6-9-0.9
	c1.1-1.6,1.4-2.9,2.3-3.1c4.5-1,9.1-2,13.8-2.5c18.9-2,37.9-3.8,57-5.6C898.7,785.3,898.3,785.1,898.3,785.1z"/>
<path class="st3" d="M703.1,960.7c13-11.2,27.2-16.2,40-23.7c1.1-0.6,2.8-0.1,4.3-0.1c-0.4,1.3-0.4,2.7-0.9,3
	c-12.3,6.8-24.7,13.5-37.1,20C708.2,960.6,706.5,960.3,703.1,960.7z"/>
<path class="st3" d="M850.8,811.6c14-4.6,25.9-6.5,39.8-7.8c-2.7,2.1-3.7,3.4-4.9,3.7c-10,2.5-20,4.8-30,6.9
	C855,814.6,854.1,813.5,850.8,811.6z"/>
<path class="st3" d="M80,768.4c0.7-16.2,4.8-26.9,14.8-36.8c1.2,8.5-4.5,12.2-6.4,17.4C86.4,754.5,83.8,759.7,80,768.4z"/>
<path class="st3" d="M962.8,664.5c7.8-5.6,14-4.6,20.4-2.5C977.2,663.4,971.4,666.5,962.8,664.5z"/>
<path class="st3" d="M977.6,678.7c-3.3,5.5-8.1,4.5-13.4,5C968.1,677.6,968.1,677.6,977.6,678.7z"/>
<path class="st3" d="M375.7,429.9c0.4-1.4,0.3-3,0.9-3.2c20.9-10.4,41.9-20.6,63-30.8c0.6-0.3,1.8,0.7,2.6,1.1c0,0.5,0.2,1.3,0,1.5
	c-19.7,12.8-41.2,21.7-62.2,31.8C378.9,430.8,377.2,430.1,375.7,429.9z"/>
<path class="st3" d="M400.9,437.6c12.8-11.4,23.2-16.6,37.9-18.2c-12.5,7.8-24,13.5-35.5,19.3C402.8,439,401.7,438,400.9,437.6z"/>
<path class="st3" d="M696.4,623.2c3.7-2.4,6.5-4.3,9.7-6.4c1.6-8.3-1.3-16.7-1.1-24.9c-3.4-3.6-6.5-6.9-9.6-10.2
	c-4.3-4.6-6.6-4.7-11.9-0.5c-1.6,1.3-3.1,2.7-4.7,4c-0.3,0.3-1,0-2.5,0c-0.5-1.5-1.8-3.5-1.5-5.1c4.2-21.3,17.3-31.7,34.7-36.9
	c3.2-0.9,7.5-0.4,10.5,1.2c12.4,6.5,20.4,17.1,26.2,31.7c-6.4,0-11.6-1-16.3,0.3c-4.1,1.2-7.6,5.1-12,8.2c-2.2-2.4-4.5-4.8-7.9-8.5
	c-0.8,3-1.7,4.9-1.6,6.6c0.5,5.9,1.4,11.7,2.1,17.6c0.5,4.3,1.3,8.5,1.5,12.8C712.5,624.5,710.3,626,696.4,623.2z"/>
<path class="st3" d="M752.5,547.8c6.8-5.9,14.7-6.3,22.3-7.6c7.1-1.2,11.1,1,13.1,7.8c2.8,9.9,3.6,20-0.1,30
	c-1.5,4-2.5,8.7-5.1,11.6c-7.6,8.4-5.4,17.6-4,27.3c3.6,1,6.8,1.8,11.9,3.2c-9.5,6.1-18,7.8-29.7,7.2c3.4-2.6,4.8-3.9,6.4-4.9
	c1.7-1,3.6-1.7,5.8-2.8c-1-8.4-1.9-16.3-2.7-23.5c-5-3.5-10.1-5.6-13.1-9.5c-4.2-5.5-4.9-12.8-4.8-19.9
	C752.5,560.2,752.5,553.9,752.5,547.8z M757.9,549.5c-0.7,10.5-0.5,19.5,1.4,28.4c1.1,5.1,4.4,7.8,8.5,7.9
	c6.5,0.2,12.3-4.1,13.5-10.5c1.6-9.4,2.1-18.7-0.8-28.7c-4.8,0.3-9.3,0.5-13.8,1C764.1,547.8,761.7,548.6,757.9,549.5z"/>
<path class="st3" d="M582.2,502.8c1.9,11.7-3.7,22.6-4.3,34.2c-0.6,11.5-1.6,23-0.8,35.7c-5-5-5.1-10.1-4.8-14.8
	c1.3-16.6,3.1-33.1,4.8-49.7c0.2-1.9,1.1-3.7,1.7-5.5C580,502.7,581.1,502.8,582.2,502.8z"/>
<path class="st3" d="M582.3,575.4c-0.4-2.1-1.2-4.2-1-6.3c1.1-12.2,2.5-24.4,4.4-36.5C588.5,547,585.1,561,582.3,575.4z"/>
<path class="st3" d="M591.6,567.4c1-5.1,1.9-10.3,3-15.4c0.9-3.9,1.9-7.8,3.3-13.4c3.2,10.6-0.2,18.5-2.6,26.5
	c-0.3,1-2.5,1.4-3.8,2.1L591.6,567.4z"/>
<path class="st3" d="M345.5,748c-2.7-10,1.8-19,2.6-28.5c0.8-9.3,2.6-18.6,4-27.9c3.1-0.6,3.5,1.9,3.3,3.7
	c-1.2,8.9-2.5,17.9-4.1,26.7C349.6,730.7,347.5,739.2,345.5,748z"/>
<path class="st3" d="M321.3,853.4c3.1-16.5,6.1-33,9.5-51.4c2,2.5,3.7,3.7,3.5,4.5c-2.6,15.7-5.3,31.3-11.9,45.8
	c-0.2,0.4,0,0.8-0.5,1L321.3,853.4z"/>
<path class="st3" d="M377.7,739.2c-3.3-10.3-0.8-20.5,2.3-33.1C383.8,718.9,379,728.9,377.7,739.2z"/>
<path class="st3" d="M364.9,715c-1.9,9.8-3.8,19.5-6.5,32.9c-2.3-13.2,0.2-22.1,2.4-31C361.1,716,363.5,715.6,364.9,715L364.9,715z"
	/>
<path class="st3" d="M367.8,811.9c1.6,16.8,1.6,16.8-3.2,28.4C363.9,829.2,366.1,820.6,367.8,811.9z"/>
<path class="st3" d="M345.5,845.9c0.6-7,1.1-14,1.9-20.9c0.8-6.7,2.1-13.3,5-19.2c-1.1,12-2,24-3.3,36c-0.2,1.6-1,2.6-2.3,3.9
	L345.5,845.9z"/>
<path class="st3" d="M604.6,805.1c-6.8,2.2-10.3-2.3-14.6-3.8c-0.2-4.2,2.2-4,4.1-4.5c1.5-0.4,2.9-0.8,4.9-1.4
	c-0.7-4.9-0.9-9.7-2-14.3c-2.4-9.8-5.4-19.5-8-28.8c-4.5-2-4.1,2.6-6,3.7c-3.9-0.7-8-2.3-11.7-1.8c-3.7,0.6-7.2,3.3-11.3,5.4
	c-3.1-9.4-0.7-17.6,2-25.6c2.3-6.8,6.6-12.1,13-15.4c4.6-2.4,9.2-5,14-6.9c11.5-4.5,23.5,1.1,27.8,13.1c1.8,4.9,2.3,10.3,3.5,16.5
	c-6.5,1.6-13.2-2.1-18,3.4c-0.4,0.5-3.4-1.6-5.2-2.4c-1.3-0.6-2.6-1.1-3.9-1.5c-0.3-0.1-0.8,0.6-1.9,1.4c1.7,3,3.9,5.9,5.1,9.3
	c1.2,3.5,1.2,7.4,2.3,11c1.7,5.6,3.9,11.1,5.9,16.6C607.8,788,608,796.7,604.6,805.1z"/>
<path class="st3" d="M622.1,707.4c9.4-6.2,17.6-11.6,26.4-17.5c5.6,14.3,8,28.4,7,42.8c-0.4,5-3.5,9.9-5.9,16.3
	c1.2,3,2.8,7.4,4.4,11.4c4,0.8,7.2,1.5,10.9,2.3c-6.6,8-9.1,9.4-22.4,12.7c-2.3-6.2,4.8-7.2,6.1-12.5c-1.7-4.6-3.7-10-5.8-15.7
	C621.8,741.9,623.7,723.9,622.1,707.4z M631.1,709.6c0,5.6-0.1,10.4,0.1,15.2c0.1,2.6,0.7,5.3,1.3,7.9c1.4,5.6,5.3,7.5,10.7,5.7
	c4.3-1.4,7.7-4.3,7.8-8.9c0.3-9.9,0.3-20-5.3-29.4C640.3,703.5,635.6,706.6,631.1,709.6z"/>
<path class="st3" d="M798.9,191.6c8.4,10.3,11.4,20.2,10.2,33.9c-0.4-0.3-1.2-0.4-1.3-0.8c-3-10.1-6-20.2-8.8-30.3
	c-0.3-0.9-0.5-1.2-0.5-2.2L798.9,191.6z"/>
<path class="st3" d="M784.1,198.8c3.2,3.5,3.1,8,4.6,11.6c0.5,1.2,0.1,2.9,0.1,5.2C784.8,210.3,782.4,205.6,784.1,198.8z"/>
<path class="st3" d="M651.6,115.4c-2.2-1.1-3.8-1.5-4.8-2.5c-2.8-2.8-3-6.7-0.8-10.3c2.2-3.7,5.5-5.3,9-4.3c4.4,1.2,6.8,6.3,4.1,10
	C657,111.1,654.1,113.1,651.6,115.4z"/>
<path class="st3" d="M606.4,97.7c6,0,9.3,3.1,9.6,7.6c0.3,4-2.8,8.1-5.8,7.8c-4.4-0.3-8.6-4.8-7.9-9.7
	C602.5,101.1,605.3,99.1,606.4,97.7z"/>
<path class="st3" d="M263,602.5c-1.6-1.4-3.8-2.4-4.4-4c-0.8-2.3-1.2-5.2-0.5-7.5c1.2-4.1,3.9-7.6,8.6-7.4c1.7,0.1,4,1.5,4.7,3
	c2.2,4.4,0.9,9.6-2.8,12.6C267.2,600.6,265.3,601.3,263,602.5z"/>
<path class="st3" d="M301.1,611.4c-3.6-0.3-6.6-3.7-6.7-7.6c-0.1-4.5,5.2-8.4,10-7.4c2.7,0.6,5.1,4.1,4.9,7.3
	C309,608.3,305.4,611.8,301.1,611.4z"/>
<path class="st3" d="M455.4,588.8c4.3-20.2,4.3-20.2-4-30.9c-3.9,0-8.4,0-12.5,0c-4-6.9,0.3-10.8,3.5-14.7c6.9-8.5,8.9-9,28.6-8.4
	c7,5.4,7.6,14.5,10.4,22.3c1.1,3-2.3,6.5-5.4,5.8c-3.3-0.7-6.1-4.9-10-2.2c-4.7,3.3-2.9,8.7-3.3,13.3c-0.3,3.7,0.1,7.5-0.4,11.2
	c-0.9,7.8-8.7,11.2-15,6.4c-1.4-1-2.8-3.8-2.4-5.2c0.8-2.4,3.1-1.8,5-0.5C451.7,587,453.5,587.8,455.4,588.8z"/>
<path class="st3" d="M505.5,578.8c-0.6,5.4-1,9.6-1.5,14.4c3.5,1.3,6.7,2.4,10.1,3.6c-0.5,0.9-0.8,2.3-1.4,2.4
	c-10.1,3.1-10.1,3-25.3-2.1c2.7-1,4.1-1.7,5.6-2.1c1.4-0.4,3-0.6,5-0.9c0.8-3.5,1.6-7.1,2.2-9.9c-0.7-1.8-0.8-3.2-1.5-3.6
	c-6.7-3.9-8.7-10.2-8.4-17.6c0.2-4.8,0.6-9.6,1.7-14.3c1.4-6.1,5.4-8.6,11.5-8.3c6.4,0.3,11.8,3.2,17.7,6.5
	C520.9,560.2,516.9,571,505.5,578.8z M515.5,551.7c-9.5-5.6-9.5-5.6-18.3-3.3c-3.4,8.6-4.5,17.1,1.4,25.1
	C511.8,570.9,513.1,569.3,515.5,551.7z"/>
<path class="st3" d="M663.5,383.9c3.4,8,1.3,14.7,0.8,21.2c-0.6,7.5-1.6,15-2,22.5c-0.3,6.8-0.1,13.6-0.1,20.9
	c-1.7-0.8-3.2-1.1-3.2-1.6c-2.5-19.4,1.6-38.6,1.6-57.9C660.5,387.8,661.9,386.5,663.5,383.9z"/>
<path class="st3" d="M692.5,401c0,7.7,0.1,15.4-0.1,23.1c0,1.3-1,2.6-1.8,4.4C686.8,415.5,686.7,413.4,692.5,401z"/>
<path class="st3" d="M677.1,398c0,12.4,0,24.8,0,39.7c-4.4-8.9-3.8-16.4-4-23.5C672.9,408.7,672.5,402.8,677.1,398z"/>
<path class="st3" d="M700.8,421.2c-0.7-2.7-1.4-4-1.2-5.2c0.2-1.2,1.2-2.4,1.8-3.6c0.5,1.2,1.5,2.3,1.5,3.5
	C702.8,417.3,701.9,418.5,700.8,421.2z"/>
<path class="st3" d="M662.7,952.9c20.9-15.5,44.4-23.7,65.2-34.8c1.7-0.9,4.7-0.5,7.3-0.8c-0.5,1.6-0.4,3.3-1.3,3.7
	c-20.1,10.1-40.4,20.1-60.7,29.9C671.3,951.9,668.5,951.9,662.7,952.9z"/>
</svg>
